<?xml version="1.0" encoding="utf-8"?>
<!-- Generator: Adobe Illustrator 21.0.2, SVG Export Plug-In . SVG Version: 6.00 Build 0)  -->
<svg version="1.1" id="Слой_1" xmlns="http://www.w3.org/2000/svg" xmlns:xlink="http://www.w3.org/1999/xlink" x="0px" y="0px"
	 viewBox="0 0 469.5 177" style="enable-background:new 0 0 469.5 177;" xml:space="preserve">
<style type="text/css">
	.st0{fill:#1B4E7E;}
	.st1{fill:#FEFEFE;}
</style>
<g id="Слой_x0020_1">
	<g id="_155205520">
		<path class="st0" d="M87,29.9c30.9,0,56,25.1,56,56s-25.1,56-56,56s-56-25.1-56-56S56.1,29.9,87,29.9z"/>
		<path class="st1" d="M122,129.6c-9.6,7.7-21.8,12.3-35,12.3c-0.4,0-0.7,0-1.1,0c-9.4-0.2-20.4-3.3-28.7-8.6h0l-0.3-0.9
			c0,0-3.8-11.4-5.2-16.9c-1.4-5.4-1.2-11.2-1.2-11.2s-2.2,1.4-4.6,3.3c-2.4,1.9-3.5,4.2-3.5,4.2s0.3-3.9,2.5-6.6
			c2.2-2.7,3.3-2.9,3.3-2.9l-4.5-0.8l-0.3-1.6l-0.5,1.3l-6-0.2c0,0,1.9-2.6,4.3-3.9c2.4-1.3,6,0.5,6,0.5s-1.3-2.3-2.2-3.1
			c-0.9-0.8-0.9-0.8-0.9-0.8l0.4-1.2l-1.5,0.9L41.4,92l0.3-1.3l-1.4,0.7l-0.5-0.7l-4.3-0.5c0,0,2.5-3.2,6.9-2.5s6.8,5,7.1,5.5
			c0.3,0.5,1,1.8,1,1.8s0.1-2.1-0.9-5.3c-1-3.2-1.3-3.4-1.3-3.4s3.8,3.1,4.6,4.5c0.8,1.5,0.2,5.7,0.2,5.7s3.3-3.9,5.5-4.5
			c2.2-0.6,5.2,0.5,6.3,1.3s1.7,1.5,1.7,1.5s-2.6,0.4-3.6,0.5c-1,0.1-1.5,0.6-1.5,0.6s-1.2-2.1-1.2-1.7c0,0.4,0.2,2,0.2,2
			s-0.8,0.2-1.2,0.2c-0.4,0-1,0.1-1,0.1l-0.1,1.1c0,0-1.4,0.5-1.8,1c-0.4,0.4-1,1.1-1,1.1s5.7-0.6,8,1.5c2.3,2.1,2.8,4.9,3,6
			c0.2,1,0.1,3.5,0.1,3.5s-3.3-3.8-5-5.4c-1.7-1.6-4.3-1.3-5-1.3c-0.7,0-3.8,0.4-3.8,0.4s0.4,11.6,6.7,22.1c1.7,2.9,3.5,5,5.1,6.7
			c0.3-1,0.8-2.9,1.1-3.7c0.5-1.1,1.6-1.7,1.6-1.7s-1,2.6-0.7,4.4c0.4,1.8,0.9,1.4,0.9,1.4l0.7-2.3c0,0,0,2.3,0.5,2.5
			c0.5,0.2,0.6-1.3,0.6-1.3s0.7,0.8,0.7-0.4c0-1.2,0-1.2,0-1.2s0.2,2.2,0.9,2.3c0.6,0.1,0.8-1.8,0.8-3.3c0-1.5,0.2-3.5,0.2-3.5
			s0.4,3.2,0.7,4.2c0.4,1,0.9,3.5,1.4,2.6c0.5-0.9,0.5-1.8,0.5-1.8l1.6,2.2c0,0,0.5-1.2,0.5-1.8c0-0.6,0-0.7,0-0.7s1,1.1,1.2,1.6
			c0.2,0.5,1.8,0.8,1.8,0.8s0-0.8-0.8-1.6c-0.9-0.8-0.9-1.2-0.9-1.2s0.9,0.4,1.3,0.5c0.4,0.1,1,0.3,1,0.3s-5.6-7.6-7.9-20.5
			C69.8,98.2,72.1,85.7,73,82s2.4-7.7,2.4-7.7s-4.8,4.4-7,7.2c-2.2,2.8-2.2,3.1-3.1,4.1c-0.8,1.1-2.2,4.1-2.2,4.1S62.5,83,65,78.9
			c2.5-4,6.7-6.6,6.7-6.6s-3.2-0.3-5.4-0.3c-2.2,0-2.9,0-2.9,0l-0.9-1l0.1,2.1l-2.9,0.4l-0.6-1.6L58.9,74l-0.8,0
			c0,0-0.5-0.8-0.7-0.7c-0.2,0-0.4,1.4-0.5,1.7c-0.1,0.3-1.6-0.5-1.7-0.1C55,75.2,54.9,76,54.9,76s-2.6,1.4-3.5,2.3
			c-0.9,1-1.2,1.8-1.2,1.8s-0.6-3.6,3.3-8.2s8.4-5.7,11.2-5.7c2.8,0,5.9,0.6,5.9,0.6s-3-3.3-4.4-4.1c-1.5-0.8-2-0.8-2-1
			C64,61.5,64,58.8,64,58.8s-0.9,2.4-1.3,2.8c-0.3,0.3-0.3,0.3-0.3,0.3s-0.6-1.4-2.6-1.5c-2-0.2-2.9-0.3-3.3-0.4
			c-0.3-0.1-0.4-2.3-0.4-2c0,0.3-0.6,2.5-0.6,2.5s-1.5-0.3-1.7-0.3c-0.2,0-0.5-2.3-0.5-2.3L52.2,60c0,0-2.3,0-5,0.5
			c-2.8,0.5-4.8,0.6-5,0.7c-0.2,0.1,4.8-4.8,8.5-6.7s10.2-2.3,12.9-1.6c2.7,0.8,9.2,7,9.2,7s-1.4-4.8-3.1-6.9
			c-1.7-2.1-5.7-5.1-5.7-5.1s5.2-0.6,8.5,2.9c3.3,3.5,3.3,6,3.3,6s0.3-3.8-0.2-5.4c-0.5-1.6-0.9-2.2-0.9-2.2l1.7-1.2
			c0,0-2,0-2.2-0.1s-0.5-2.1-1.3-2.9c-0.8-0.8-2.3-2-2-1.9c0.3,0.1,3.9-0.6,5.9,2.1c2,2.6,3.9,5,4.1,6.5c0.2,1.5,0.4,8.2,0.4,8.2
			s6.3-7.8,8.2-9c1.9-1.2,2.1-0.2,3.6-0.8c1.5-0.5,5.5-0.5,7.3,0.2c1.8,0.6,4.2,2.9,4.2,2.9s-3.7-0.2-5.2,0.3
			c-1.5,0.5-1.5,0.5-1.5,0.5s-1-2-1.1-1.8c-0.1,0.2-0.2,1.2,0,1.4c0.2,0.2-1.5,0.7-1.7,0.9c-0.2,0.2-0.7-0.4-0.7-0.4l-0.3,1.3
			c0,0-2.7,1-3.7,2c-1,1-2.5,3.1-2.5,3.1s7.9-1.5,9.8-0.3c1.9,1.2,5.6,2.3,8.3,5.8c2.7,3.5,3.3,6.1,3.3,6.1s-4.4-2.6-6.3-3.2
			c-2-0.6-5.4-0.7-5.4-0.7s-0.1-1.3-0.4-1.7s-1-1.6-1.1-1.2c0,0.3,0.1,2.7,0.1,2.7l-2.7-0.2L93.2,66l-1.1,0.5l-0.6,1.6
			c0,0-1.7-1-3.8,0.3c-2.1,1.3-3.2,1.5-3.2,1.5s3.9,1.9,6.1,5c2.3,3.1,1.9,7.8,1.8,9.2s-2.1,6.3-2.1,6.3s-0.5-4.7-0.7-6.1
			s-1.8-5.7-1.8-5.7l1-1l-1.3-0.3c0,0-2.2-1.7-4.8-3.2c-2.5-1.5-2.5-1-2.5-1s-2,3.7-3.7,12.5c-1.8,8.8-0.6,25.9,6.8,35.3
			c7.4,9.3,8.4,11.7,8.4,11.7s1.6-3,2-5.6c0.4-2.6,0.2-4,0.2-4s1.9,2.4,1.9,4.1c0,1.7-0.3,3,0.1,2.9c0.4-0.1,1.3-1.1,1.3-1.5
			c0-0.4,0.3-0.2,0.3-0.2s0.5,1.5,0.4,2.9c-0.1,1.5-0.5,2.3-0.5,2.3s2.4-2.1,2.7-4.6c0.2-2.5,0.2-3.7,0.2-3.7s1.4,2,1.4,3.1
			s-0.1,3.1-0.1,3.1s4.6-5.8,6.3-10.4c1.7-4.6,5.1-14.1,5.1-22.3s-0.3-9.1-0.3-9.1s-3.9,3.5-4.8,5.5c-0.9,2-1.3,3.9-1.3,3.9
			s-1.5-2.8-0.9-4.5s0.8-3.2,1.7-3.9c0.9-0.7,2.3-2.1,2.3-2.1s-3-0.8-4.2-0.8c-1.1,0-1.7,0-1.7,0l-0.1-0.8l-0.7,1.1l-1.2,0.2
			c0,0-0.8-0.3-0.9-0.9c-0.1-0.6-0.2-1.7-0.2-1.4c0,0.3,0.2,2.6,0.2,2.6s-1.2,0.1-2,0.7c-0.7,0.6-0.9,0.8-0.9,0.8s-0.7-1.2-0.7-1
			c0,0.2,0,1.9,0,1.9s-3,1.5-3.9,3c-0.9,1.4-2.8,5-2.8,5s-1.2-3.7,2.3-9.6c3.5-5.9,7.9-7.6,11.7-7.3s6.7,2.4,6.7,2.4
			s-2.5-3.7-6.8-4.7c-4.4-1.1-5.7-1.4-6.9-1.4s-3.1,0.5-3.1,0.5s2.4-3.5,7.5-3.7c5.1-0.2,8.9,2.9,10.1,3.8c1.2,0.9,1.4,1.3,1.4,1.3
			s0-5.4,2.6-8c2.6-2.6,6.6-3,6.6-3s-3.1,2.8-4.5,4.5c-1.4,1.7-1.9,7.2-2,7.5c-0.1,0.4-0.6,2.3-0.6,2.3s3.6-5.3,6.3-6.9
			c2.7-1.6,4.7-2.4,7.5-2.2c2.8,0.2,6.6,2.1,8.2,3.5c1.6,1.4,3.5,4.8,3.5,4.8s-4.2-2.5-7.1-2.8c-3-0.3-3.9,0.1-3.9,0.1l-0.5-1.9
			l-0.3,1.8l-1.4,0c0,0-0.9-1.5-0.9-1.1c0,0.3-0.7,0-0.5,0.8c0.2,0.7,0.3,0.8,0.3,0.8s-3.7,1.2-5,2c-1.2,0.8-3.4,2.7-3.4,2.7
			s6.1-0.7,7.9-0.5c1.8,0.2,4.2,0.9,6.6,3.1c2.3,2.2,3.8,4.9,3.7,5.8c-0.1,0.9-0.1,1.3-0.1,1.3s-1.8-2.3-4.4-4.2
			c-2.6-1.9-3.8-2.7-3.8-2.7s-3,0.5-4.3,0.1c-1.3-0.4-3.3-0.1-3.3-0.1s4.7,1.3,7.1,3.8c2.4,2.5,3.5,9.5,2.8,12.2
			c-0.7,2.7-0.7,2.8-0.7,2.8s-1.3-4.8-3.1-7.5c-1.9-2.7-1.9-2.7-1.9-2.7l0.7-2.1l-1.2,0.7c0,0-1.7-1.6-3.7-3.1
			c-2-1.4-4.6-1.5-4.6-1.5s1.2,9.1,0.2,16.6c-1,7.5-5.3,18.9-6.5,21.1c-1.2,2.2-2,4.1-2,4.1l2.3-1.9v2.3L122,129.6L122,129.6z"/>
	</g>
	<g id="_155204176">
		<g>
			<path class="st0" d="M197.8,95.5c0,3.1-0.1,5.3-0.2,6.6c-0.1,1.3-0.6,2.5-1.3,3.6s-1.8,1.9-3.1,2.5s-2.8,0.9-4.6,0.9
				c-1.7,0-3.1-0.3-4.4-0.8s-2.4-1.3-3.2-2.4c-0.8-1.1-1.3-2.2-1.4-3.5c-0.1-1.3-0.2-3.5-0.2-6.7v-5.3c0-3.1,0.1-5.3,0.2-6.6
				s0.6-2.5,1.3-3.6c0.8-1.1,1.8-1.9,3.1-2.5s2.8-0.9,4.6-0.9c1.7,0,3.1,0.3,4.4,0.8s2.4,1.3,3.2,2.4c0.8,1.1,1.3,2.2,1.4,3.5
				c0.1,1.3,0.2,3.5,0.2,6.7V95.5z M189.8,85.4c0-1.4-0.1-2.3-0.2-2.7c-0.1-0.4-0.5-0.6-0.9-0.6c-0.4,0-0.7,0.2-0.9,0.5
				c-0.2,0.3-0.3,1.3-0.3,2.9v14.4c0,1.8,0.1,2.9,0.2,3.3c0.1,0.4,0.5,0.6,1,0.6c0.5,0,0.9-0.2,1-0.7c0.1-0.5,0.2-1.6,0.2-3.5
				L189.8,85.4L189.8,85.4z M217,77.4v6.2h-4.7v24.7h-8V83.6h-4.8v-6.2H217L217,77.4z M241.8,113.6h-5.5v-5.3h-12.9v5.3h-5.5v-11.7
				h1.7c0.9-2.5,1.6-5.8,2.2-10c0.5-4.1,0.8-8.6,0.8-13.5v-0.9h17.8v24.4h1.7L241.8,113.6L241.8,113.6z M232.1,101.8V83.5h-2.4v0.2
				c0,5.9-0.6,12-1.9,18.1H232.1L232.1,101.8z M244.3,77.4h13.4v6.2h-5.3v5.9h5v5.8h-5v6.8h5.9v6.2h-13.9L244.3,77.4L244.3,77.4z
				 M280.1,108.3h-8V83.6h-2.3v17.5c0,2.3-0.3,4-0.9,4.9c-0.6,1-1.5,1.6-2.7,1.9c-1.2,0.3-3.1,0.4-5.8,0.4h-1.3V103
				c1,0,1.7-0.1,2-0.4c0.4-0.2,0.5-1.1,0.5-2.5V77.4h18.4V108.3L280.1,108.3z M306.4,77.4v6.2h-4.7v24.7h-8V83.6h-4.8v-6.2H306.4
				L306.4,77.4z M324.1,77.4l-2.2,20.4c-0.4,3.2-0.7,5.5-1.1,6.8c-0.4,1.3-1.2,2.2-2.3,2.8s-3,0.9-5.6,0.9h-4.7v-4h0.5
				c1.1,0,1.7-0.1,2-0.3c0.3-0.2,0.4-0.4,0.4-0.8c0,0-0.1-0.9-0.4-2.6l-4.2-23.2h7l2.5,19.2l1.2-19.2L324.1,77.4L324.1,77.4z
				 M325.7,77.4h8.1c2.2,0,3.9,0.2,5,0.5c1.2,0.4,2.1,0.9,2.7,1.5c0.6,0.6,1,1.4,1.2,2.3c0.2,0.9,0.3,2.3,0.3,4.3v2.7
				c0,2-0.2,3.4-0.6,4.3c-0.4,0.9-1.2,1.6-2.2,2.1c-1.1,0.5-2.5,0.7-4.3,0.7h-2.2v12.4h-8L325.7,77.4L325.7,77.4z M333.7,82.7v7.9
				c0.2,0,0.4,0,0.6,0c0.7,0,1.3-0.2,1.5-0.5c0.3-0.4,0.4-1.1,0.4-2.2v-2.6c0-1-0.2-1.8-0.5-2.1C335.4,82.9,334.7,82.7,333.7,82.7z
				 M363.1,108.3h-6.7V94.2l-4.2,14.1h-7V77.4h6.7v13.9l4.5-13.9h6.7V108.3L363.1,108.3z M380.6,90.8c1.2,0.4,2,1,2.6,1.9
				c0.6,0.9,0.9,3,0.9,6.3c0,2.5-0.3,4.4-0.9,5.7c-0.5,1.3-1.5,2.4-2.9,3.1c-1.4,0.7-3.1,1.1-5.3,1.1c-2.4,0-4.4-0.4-5.8-1.2
				c-1.4-0.8-2.3-1.8-2.7-3c-0.4-1.2-0.7-3.2-0.7-6.2v-2.4h7.7v5c0,1.3,0.1,2.2,0.2,2.6c0.1,0.4,0.5,0.5,1.1,0.5s1-0.2,1.2-0.7
				c0.2-0.4,0.3-1.7,0.3-3.6v-2.2c0-1.2-0.1-2.1-0.4-2.6c-0.3-0.5-0.7-0.9-1.2-1.1c-0.5-0.2-1.5-0.3-3-0.3v-4.5c1.8,0,3-0.1,3.4-0.2
				c0.4-0.1,0.8-0.4,0.9-0.9c0.2-0.4,0.3-1.2,0.3-2.2v-1.7c0-1.1-0.1-1.8-0.3-2.2c-0.2-0.4-0.6-0.5-1-0.5c-0.5,0-0.9,0.2-1.1,0.5
				c-0.2,0.4-0.3,1.1-0.3,2.3V87H366v-2.6c0-3,0.7-4.9,2-6c1.3-1,3.5-1.6,6.4-1.6c3.7,0,6.2,0.7,7.5,2.2c1.3,1.4,2,3.5,2,6
				c0,1.7-0.2,3-0.7,3.7C382.6,89.5,381.8,90.2,380.6,90.8L380.6,90.8z M411.8,77.4v30.9h-7V87.5l-2.8,20.9h-4.9l-3-20.4v20.4h-7
				V77.4h10.4c0.3,1.9,0.6,4.1,0.9,6.6l1.1,7.8l1.8-14.4L411.8,77.4L411.8,77.4L411.8,77.4z M428.9,77.4l4.6,30.9h-8.2l-0.4-5.5H422
				l-0.4,5.5h-8.3l4.1-30.9H428.9z M424.7,97.3c-0.4-3.5-0.8-7.8-1.2-13c-0.8,5.9-1.3,10.2-1.5,13H424.7z"/>
			<path class="st0" d="M299.3,53.3h1.3v10.1h5V53.3h1.3v10.1h0.9V68h-1.1v-3.2h-7.4V53.3L299.3,53.3z M314,62.2l1.2,0.2
				c-0.2,0.9-0.5,1.5-1.1,2c-0.5,0.4-1.2,0.7-2,0.7c-1,0-1.8-0.4-2.4-1.1c-0.6-0.8-0.9-1.8-0.9-3.1c0-1.4,0.3-2.5,0.9-3.2
				c0.6-0.8,1.4-1.2,2.4-1.2c0.9,0,1.7,0.4,2.3,1.1c0.6,0.8,0.9,1.8,0.9,3.2c0,0.1,0,0.2,0,0.4H310c0,0.9,0.3,1.6,0.6,2.1
				c0.4,0.5,0.9,0.7,1.5,0.7c0.4,0,0.8-0.1,1.1-0.4C313.5,63.1,313.8,62.7,314,62.2L314,62.2z M310.1,59.9h3.9
				c0-0.7-0.2-1.2-0.4-1.6c-0.4-0.5-0.9-0.8-1.5-0.8c-0.5,0-1,0.2-1.4,0.6C310.3,58.6,310.1,59.1,310.1,59.9L310.1,59.9z
				 M316.7,56.5h1.2V60h3.3v-3.5h1.2v8.3h-1.2v-3.7h-3.3v3.7h-1.2V56.5z M323.5,56.5h5.7v1.2H327v7.1h-1.2v-7.1h-2.2V56.5z
				 M330.4,68V56.5h1.1v1.1c0.3-0.4,0.5-0.8,0.9-0.9c0.3-0.2,0.7-0.3,1.2-0.3c0.6,0,1.1,0.2,1.6,0.5s0.8,0.9,1,1.5
				c0.2,0.7,0.4,1.4,0.4,2.2c0,0.9-0.1,1.6-0.4,2.3c-0.3,0.7-0.6,1.2-1.1,1.6c-0.5,0.4-1,0.5-1.5,0.5c-0.4,0-0.8-0.1-1.1-0.3
				c-0.3-0.2-0.6-0.4-0.8-0.8v4L330.4,68L330.4,68z M331.4,60.7c0,1.1,0.2,1.8,0.5,2.4c0.4,0.5,0.8,0.8,1.3,0.8c0.5,0,1-0.3,1.3-0.8
				s0.6-1.3,0.6-2.5c0-1.1-0.2-1.8-0.5-2.4c-0.4-0.5-0.8-0.8-1.3-0.8c-0.5,0-0.9,0.3-1.3,0.9C331.7,58.8,331.4,59.6,331.4,60.7z
				 M341.9,53.3h6.3v1.3h-5v3.6h2.3c0.9,0,1.5,0.1,2.1,0.3c0.5,0.2,0.9,0.5,1.2,1.1c0.3,0.5,0.4,1.2,0.4,1.9c0,0.6-0.1,1.1-0.3,1.6
				s-0.5,0.9-1,1.2c-0.4,0.3-1.2,0.5-2.2,0.5h-3.8L341.9,53.3L341.9,53.3z M343.2,63.5h2.6c0.7,0,1.2-0.2,1.6-0.5
				c0.4-0.3,0.5-0.8,0.5-1.5c0-0.5-0.1-0.9-0.3-1.2c-0.2-0.3-0.5-0.5-0.8-0.6c-0.4-0.1-0.9-0.1-1.8-0.1h-1.7L343.2,63.5L343.2,63.5z
				 M350.6,68V56.5h1.1v1.1c0.3-0.4,0.5-0.8,0.9-0.9c0.3-0.2,0.7-0.3,1.2-0.3c0.6,0,1.1,0.2,1.6,0.5s0.8,0.9,1,1.5
				c0.2,0.7,0.4,1.4,0.4,2.2c0,0.9-0.1,1.6-0.4,2.3c-0.3,0.7-0.6,1.2-1.1,1.6c-0.5,0.4-1,0.5-1.5,0.5c-0.4,0-0.8-0.1-1.1-0.3
				c-0.3-0.2-0.6-0.4-0.8-0.8v4L350.6,68L350.6,68z M351.7,60.7c0,1.1,0.2,1.8,0.5,2.4c0.4,0.5,0.8,0.8,1.3,0.8c0.5,0,1-0.3,1.3-0.8
				s0.6-1.3,0.6-2.5c0-1.1-0.2-1.8-0.5-2.4c-0.4-0.5-0.8-0.8-1.3-0.8c-0.5,0-0.9,0.3-1.3,0.9C351.9,58.8,351.7,59.6,351.7,60.7z
				 M357.6,60.7c0-1.5,0.4-2.7,1.1-3.4c0.6-0.6,1.3-0.9,2.2-0.9c1,0,1.8,0.4,2.4,1.1c0.6,0.8,0.9,1.8,0.9,3.1c0,1.1-0.1,1.9-0.4,2.5
				c-0.3,0.6-0.7,1.1-1.2,1.4c-0.5,0.4-1.1,0.5-1.7,0.5c-1,0-1.8-0.4-2.4-1.1C358,63.1,357.6,62.1,357.6,60.7L357.6,60.7z
				 M358.9,60.7c0,1.1,0.2,1.8,0.6,2.4s0.9,0.8,1.5,0.8c0.6,0,1.1-0.3,1.5-0.8c0.4-0.5,0.6-1.3,0.6-2.4c0-1-0.2-1.8-0.6-2.3
				s-0.9-0.8-1.5-0.8c-0.6,0-1.1,0.3-1.5,0.8C359.1,58.8,358.9,59.6,358.9,60.7L358.9,60.7z M365.6,56.5h1.2V60h3.3v-3.5h1.2v8.3
				h-1.2v-3.7h-3.3v3.7h-1.2V56.5z M373.1,56.5h1.2v6.3l3.3-6.3h1.3v8.3h-1.2v-6.3l-3.3,6.3h-1.3L373.1,56.5L373.1,56.5z M380.7,68
				V56.5h1.1v1.1c0.3-0.4,0.5-0.8,0.9-0.9c0.3-0.2,0.7-0.3,1.2-0.3c0.6,0,1.1,0.2,1.6,0.5s0.8,0.9,1,1.5c0.2,0.7,0.4,1.4,0.4,2.2
				c0,0.9-0.1,1.6-0.4,2.3c-0.3,0.7-0.6,1.2-1.1,1.6c-0.5,0.4-1,0.5-1.5,0.5c-0.4,0-0.8-0.1-1.1-0.3c-0.3-0.2-0.6-0.4-0.8-0.8v4
				L380.7,68L380.7,68z M381.8,60.7c0,1.1,0.2,1.8,0.5,2.4c0.4,0.5,0.8,0.8,1.3,0.8c0.5,0,1-0.3,1.3-0.8s0.6-1.3,0.6-2.5
				c0-1.1-0.2-1.8-0.5-2.4c-0.4-0.5-0.8-0.8-1.3-0.8c-0.5,0-0.9,0.3-1.3,0.9C382,58.8,381.8,59.6,381.8,60.7z M387.8,60.7
				c0-1.5,0.4-2.7,1.1-3.4c0.6-0.6,1.3-0.9,2.2-0.9c1,0,1.8,0.4,2.4,1.1c0.6,0.8,0.9,1.8,0.9,3.1c0,1.1-0.1,1.9-0.4,2.5
				c-0.3,0.6-0.7,1.1-1.2,1.4c-0.5,0.4-1.1,0.5-1.7,0.5c-1,0-1.8-0.4-2.4-1.1C388.1,63.1,387.8,62.1,387.8,60.7L387.8,60.7z
				 M389,60.7c0,1.1,0.2,1.8,0.6,2.4c0.4,0.5,0.9,0.8,1.5,0.8c0.6,0,1.1-0.3,1.5-0.8c0.4-0.5,0.6-1.3,0.6-2.4c0-1-0.2-1.8-0.6-2.3
				s-0.9-0.8-1.5-0.8c-0.6,0-1.1,0.3-1.5,0.8C389.2,58.8,389,59.6,389,60.7L389,60.7z M395.8,56.5h2.7c0.7,0,1.2,0.1,1.5,0.2
				c0.3,0.1,0.6,0.4,0.9,0.7c0.2,0.4,0.4,0.8,0.4,1.3c0,0.4-0.1,0.8-0.2,1c-0.1,0.3-0.4,0.5-0.6,0.8c0.3,0.1,0.6,0.4,0.8,0.7
				c0.2,0.4,0.3,0.8,0.3,1.3c0,0.8-0.3,1.4-0.7,1.8c-0.4,0.4-1.1,0.6-1.9,0.6h-3.1L395.8,56.5L395.8,56.5z M397,60h1.3
				c0.5,0,0.9,0,1-0.1c0.2,0,0.4-0.2,0.5-0.4s0.2-0.4,0.2-0.7c0-0.4-0.1-0.8-0.4-0.9c-0.3-0.2-0.7-0.3-1.3-0.3h-1.3L397,60L397,60z
				 M397,63.7h1.6c0.7,0,1.1-0.1,1.4-0.3c0.3-0.2,0.4-0.5,0.4-0.9c0-0.3-0.1-0.5-0.2-0.8c-0.1-0.2-0.3-0.4-0.6-0.4
				c-0.2,0-0.6-0.1-1.1-0.1H397V63.7L397,63.7z M407.4,63.8c-0.4,0.4-0.9,0.8-1.3,0.9s-0.9,0.3-1.3,0.3c-0.8,0-1.3-0.2-1.8-0.7
				c-0.4-0.4-0.6-1-0.6-1.7c0-0.4,0.1-0.8,0.2-1.1c0.1-0.3,0.4-0.6,0.6-0.8c0.3-0.2,0.5-0.4,0.9-0.4c0.2-0.1,0.6-0.1,1.1-0.2
				c0.9-0.1,1.7-0.3,2.1-0.5c0-0.2,0-0.3,0-0.4c0-0.6-0.1-1-0.4-1.2c-0.3-0.3-0.8-0.5-1.3-0.5s-1,0.1-1.3,0.4
				c-0.3,0.2-0.4,0.6-0.6,1.3l-1.2-0.2c0.1-0.6,0.3-1.1,0.5-1.4s0.6-0.6,1-0.9c0.4-0.2,1-0.3,1.6-0.3c0.6,0,1.1,0.1,1.5,0.3
				c0.4,0.2,0.6,0.4,0.8,0.6c0.2,0.3,0.3,0.6,0.4,0.9c0,0.2,0,0.7,0,1.3v1.9c0,1.3,0,2.1,0.1,2.5c0,0.4,0.1,0.7,0.3,1h-1.2
				C407.5,64.5,407.4,64.2,407.4,63.8L407.4,63.8L407.4,63.8z M407.3,60.7c-0.4,0.2-1.1,0.4-1.9,0.5c-0.5,0.1-0.9,0.2-1,0.3
				c-0.2,0.1-0.4,0.3-0.4,0.4c-0.1,0.2-0.2,0.4-0.2,0.7c0,0.4,0.1,0.7,0.4,0.9s0.6,0.4,1,0.4s0.9-0.1,1.2-0.4c0.4-0.2,0.6-0.5,0.8-1
				c0.1-0.3,0.2-0.8,0.2-1.4V60.7L407.3,60.7z M410.4,56.5h1.2V60h3.3v-3.5h1.2v8.3h-1.2v-3.7h-3.3v3.7h-1.2V56.5z M417.8,56.5h1.2
				v6.3l3.3-6.3h1.3v8.3h-1.2v-6.3l-3.3,6.3h-1.3L417.8,56.5L417.8,56.5z M430.9,56.5v8.3h-1.2v-3.2h-0.7c-0.4,0-0.7,0-0.9,0.2
				c-0.2,0.1-0.5,0.5-0.9,1.2l-1,1.8h-1.5l1.3-2.2c0.4-0.7,0.8-1.1,1.2-1.2c-0.7-0.1-1.2-0.4-1.5-0.9c-0.3-0.4-0.5-1-0.5-1.6
				c0-0.7,0.2-1.3,0.6-1.8c0.4-0.4,1-0.7,1.9-0.7L430.9,56.5L430.9,56.5z M429.7,57.7H428c-0.7,0-1.2,0.1-1.4,0.4s-0.3,0.6-0.3,0.9
				c0,0.5,0.1,0.9,0.4,1.1c0.3,0.2,0.9,0.4,1.6,0.4h1.3L429.7,57.7L429.7,57.7z"/>
			<polygon class="st0" points="176.8,117 433.1,117 433.1,119.5 176.8,119.5 			"/>
		</g>
	</g>
</g>
</svg>
