<?xml version="1.0" encoding="utf-8"?>
<!-- Generator: Adobe Illustrator 21.0.2, SVG Export Plug-In . SVG Version: 6.00 Build 0)  -->
<svg version="1.1" id="Слой_1" xmlns="http://www.w3.org/2000/svg" xmlns:xlink="http://www.w3.org/1999/xlink" x="0px" y="0px"
	 viewBox="0 0 14593.7 2520" style="enable-background:new 0 0 14593.7 2520;" xml:space="preserve">
<style type="text/css">
	.st0{fill:#FFFFFF;}
	.st1{fill:#004D81;}
</style>
<g transform="translate(0.000000,2812.000000) scale(0.100000,-0.100000)">
	<path class="st0" d="M126769.5,24009.4c-176-25-348-115-454-239l-40-46v123v122h-265h-265v-1370v-1370h265h265v501v500l55-59
		c103-112,259-196,410-223c78-13,296-7,360,11c164,46,286,120,398,240c178,192,258,435,258,780c0,369-87,610-291,810
		c-151,147-309,213-540,224C126873.5,24016.4,126802.5,24014.4,126769.5,24009.4z M126827.5,23538.4c248-52,403-295,384-604
		c-6-107-20-171-54-249c-53-120-158-216-279-257c-177-60-414,1-555,142l-48,48v359v360l60,55
		C126468.5,23515.4,126662.5,23573.4,126827.5,23538.4z"/>
	<path class="st0" d="M128914.5,24008.4c-351-37-631-227-788-534c-87-170-116-316-108-545c9-230,52-373,167-547
		c136-207,330-346,569-411c88-23,113-26,301-26c226-1,285,9,447,74c225,90,441,314,533,551c55,144,65,206,65,414c0,177-2,197-28,290
		c-98,351-364,619-704,705c-79,21-255,41-333,39C129010.5,24017.4,128956.5,24013.4,128914.5,24008.4z M129166.5,23539.4
		c333-62,504-512,329-867c-120-243-410-339-656-218c-261,128-363,522-213,825C128730.5,23488.4,128928.5,23583.4,129166.5,23539.4z"
		/>
	<path class="st0" d="M133634.5,24008.4c-454-48-812-397-879-858c-19-128-8-353,23-472c92-353,360-612,736-710c97-26,348-36,482-20
		c213,25,404,95,546,202c40,30,73,57,73,61c0,5-205,311-224,335c-1,1-29-18-62-42c-118-89-309-148-479-148c-174,0-301,49-413,159
		c-67,67-126,174-138,252l-7,42h737h736v63c-1,227-42,440-115,594c-54,115-90,167-179,261c-160,168-344,257-587,282
		C133772.5,24020.4,133745.5,24020.4,133634.5,24008.4z M133886.5,23589.4c65-12,162-57,206-94c67-57,141-194,156-288l6-38h-485
		h-486l7,33c29,143,132,289,244,347C133623.5,23594.4,133770.5,23611.4,133886.5,23589.4z"/>
	<path class="st0" d="M136157.5,24009.4c-177-25-327-102-445-229c-26-28-50-51-52-51c-3,0-5,54-5,120v120h-260h-260v-1370v-1370h260
		h260v502v501l73-69c180-174,335-232,592-221c148,6,224,25,346,88c232,121,389,344,455,649c21,99,30,370,16,491
		c-44,370-236,658-519,780C136501.5,24000.4,136289.5,24027.4,136157.5,24009.4z M136230.5,23534.4c218-57,351-239,371-510
		c15-194-51-380-175-498c-75-70-129-97-241-117c-150-27-353,42-472,160l-58,58v347v346l56,59
		C135839.5,23514.4,136057.5,23579.4,136230.5,23534.4z"/>
	<path class="st0" d="M138221.5,24009.4c-235-23-457-107-634-240l-82-61l17-32c22-43,173-310,178-316c2-2,37,21,77,52
		c85,65,217,130,314,154c104,25,279,23,370-5c102-31,183-94,220-169c28-56,29-65,33-227l3-170l-57,52c-97,89-227,148-375,172
		c-99,15-300,12-383-6c-181-40-358-164-430-302c-54-102-70-177-70-322c1-107,5-137,27-206c14-44,43-107,64-140
		c75-116,217-221,367-272c74-25,92-27,245-26c122,0,183,4,235,17c101,25,239,97,313,163l62,56v-96v-96h260h260v700
		c0,757-1,780-55,912c-101,249-375,399-755,413C138362.5,24016.4,138270.5,24014.4,138221.5,24009.4z M138438.5,22865.4
		c98-19,180-58,234-112l43-43v-125v-124l-41-41c-155-155-502-172-661-32c-73,64-100,176-69,283
		C137989.5,22828.4,138199.5,22910.4,138438.5,22865.4z"/>
	<path class="st0" d="M142300.5,24009.4c-315-33-558-178-734-436c-196-289-227-724-75-1052c118-256,331-450,584-530
		c136-43,170-47,375-46c183,1,208,3,299,27c364,98,632,380,718,759c41,180,27,441-32,613c-96,280-331,519-600,610
		C142686.5,24005.4,142469.5,24027.4,142300.5,24009.4z M142557.5,23538.4c127-27,252-124,316-246c91-174,97-431,13-605
		c-102-213-321-323-547-275c-174,37-289,143-362,335c-24,62-26,80-26,227c-1,143,2,167,22,225c46,126,128,233,222,288
		C142287.5,23541.4,142439.5,23563.4,142557.5,23538.4z"/>
	<path class="st0" d="M144897.5,24009.4c-177-25-327-102-445-229c-26-28-50-51-52-51c-3,0-5,54-5,120v120h-260h-260v-1370v-1370h260
		h260v502v502l73-70c106-104,182-152,313-196c61-20,88-23,234-23c145,0,174,3,240,23c319,100,524,342,607,717c24,110,29,387,9,523
		c-72,484-374,783-816,806C145003.5,24015.4,144932.5,24014.4,144897.5,24009.4z M144968.5,23534.4c88-23,156-62,217-124
		c216-221,209-670-13-878c-76-71-128-98-228-119c-161-34-362,30-490,155l-59,57v346c0,343,0,346,23,374c67,86,208,171,320,194
		C144806.5,23552.4,144907.5,23550.4,144968.5,23534.4z"/>
	<path class="st0" d="M121685.5,23739.4v-230h275h275v-760v-760h265h265v760v760h280h280v230v230h-820h-820V23739.4z"/>
	<path class="st0" d="M123365.5,23964.4c0-3,180-455,400-1006l401-1000l-43-96c-49-113-81-153-146-183c-63-30-196-38-267-16
		c-27,8-51,13-54,11c-5-6-81-458-77-462c1-2,29-8,62-14c78-15,293-15,374,0c266,50,424,161,533,377c25,50,967,2375,967,2388
		c0,3-127,5-282,4l-281-3l-253-675c-140-371-255-679-257-684s-106,265-232,600c-125,335-241,644-257,687l-30,77h-279
		C123491.5,23969.4,123365.5,23967.4,123365.5,23964.4z"/>
	<path class="st0" d="M130495.5,22979.4v-990h260h260v760v760h410h410v-760v-760h260h260v990v990h-930h-930V22979.4z"/>
	<path class="st0" d="M139565.5,23739.4v-230h275h275v-760v-760h265h265v760v760h275h275v230v230h-815h-815V23739.4z"/>
	<path class="st0" d="M35975.5,16664.4v-4835h2275h2275v-830v-830h870h870v1795v1795h-255h-255v3870v3870h-1260h-1260v-3870v-3870
		h-370h-370v3870v3870h-1260h-1260V16664.4z"/>
	<path class="st0" d="M69452.5,21492.4c-4-3-7-2179-7-4835v-4828h1668c1650,0,2004,5,2402,35c756,58,1069,164,1343,455
		c239,254,360,587,424,1170c14,135,17,316,20,1415c4,1273,1,1441-32,1704c-73,568-255,939-584,1187c-90,68-281,168-390,204
		c-378,125-1068,189-2043,190h-278v815v815h1200h1200v840v840h-2458C70565.5,21499.4,69455.5,21496.4,69452.5,21492.4z
		 M72180.5,16654.4c217-16,395-62,462-119c72-63,113-203,133-456c13-179,13-1816-1-1975c-28-333-95-478-245-535
		c-99-37-240-61-402-68l-152-7v1588v1589l63-6C72072.5,16662.4,72136.5,16657.4,72180.5,16654.4z"/>
	<path class="st0" d="M45185.5,19888.4c-756-50-1437-342-1821-782c-333-382-494-846-561-1617c-19-213-18-3112,0-3365
		c35-472,89-753,198-1019c159-389,432-729,759-942c314-204,711-353,1130-423c494-83,1086-77,1545,15c673,135,1152,466,1524,1053
		c182,288,271,521,315,832c37,258,43,366,48,937l5,562h-1145h-1146l-4-732c-3-497-8-759-16-813c-33-218-67-317-136-393
		c-131-146-469-146-574-1c-41,56-68,148-88,294c-13,100-16,288-20,1138l-5,1017h1567h1567l-5,783c-3,632-7,816-21,957
		c-80,838-258,1312-641,1709c-356,370-812,611-1365,721C45950.5,19888.4,45554.5,19912.4,45185.5,19888.4z M45718.5,18456.4
		c162-74,197-266,197-1094v-423h-360h-360v303c1,607,24,996,66,1096c30,71,89,114,186,136
		C45537.5,18495.4,45650.5,18487.4,45718.5,18456.4z"/>
	<path class="st0" d="M64656.5,19888.4c-496-52-933-304-1296-747c-33-40-61-68-63-62c-4,12,24,529,34,618l5,52h-1230h-1231l2-4522
		l3-4523h1205h1205l5,898l5,899l52-65c141-176,330-349,513-470c378-249,818-336,1295-255c415,70,769,290,977,608
		c197,300,263,660,289,1570c14,523,6,4118-10,4340c-52,713-132,938-434,1226C65631.5,19790.4,65168.5,19941.4,64656.5,19888.4z
		 M63836.5,18460.4c121-46,147-112,169-426c14-197,13-4316-1-4500c-21-284-53-362-174-417c-41-18-68-22-150-22
		c-217-1-314,83-349,301c-35,219-37,382-33,2513c4,2161,4,2180,43,2334c36,139,104,210,227,236
		C63635.5,18493.4,63773.5,18483.4,63836.5,18460.4z"/>
	<path class="st0" d="M79896.5,19888.4c-496-52-933-304-1296-747c-33-40-61-68-63-62c-4,12,24,529,34,618l5,52h-1230h-1231l2-4522
		l3-4523h1205h1205l5,898l5,899l52-65c141-176,330-349,513-470c378-249,818-336,1295-255c415,70,769,290,977,608
		c197,300,263,660,289,1570c14,523,6,4118-10,4340c-52,713-132,938-434,1226C80871.5,19790.4,80408.5,19941.4,79896.5,19888.4z
		 M79076.5,18460.4c121-46,147-112,169-426c14-197,13-4316-1-4500c-21-284-53-362-174-417c-66-29-223-32-301-5
		c-151,52-197,160-224,522c-14,191-14,4151,0,4336c28,359,86,471,263,509C78875.5,18493.4,79013.5,18483.4,79076.5,18460.4z"/>
	<path class="st0" d="M84790.5,19889.4c-627-44-1106-205-1505-507c-513-386-761-891-854-1743c-36-324-38-413-43-1680
		c-6-1536,2-1866,57-2305c57-451,172-782,382-1093c342-508,915-778,1817-857c1033-91,1866,90,2401,522c363,293,646,744,753,1198
		c53,225,89,563,107,1010c13,327,13,2731,0,2985c-38,739-151,1096-483,1535c-342,450-920,767-1612,884
		C85527.5,19886.4,85070.5,19909.4,84790.5,19889.4z M85286.5,18469.4c103-30,159-112,184-270c31-199,35-450,35-2440
		c0-1993-3-2221-35-2387c-28-148-92-235-192-264c-77-22-208-17-271,11c-141,61-184,198-202,638c-13,298-12,3735,0,4057
		c16,402,41,518,132,600c27,25,53,45,57,45c3,1,29,7,56,15C85105.5,18490.4,85224.5,18488.4,85286.5,18469.4z"/>
	<path class="st0" d="M105838.5,19889.4c-356-38-664-166-958-400c-99-79-258-240-345-348c-35-44-66-80-67-78c-2,1,6,142,17,312
		s20,324,20,342v32h-1225h-1225v-4525v-4525l1203,2l1202,3l3,903l2,903l77-93c443-533,1001-784,1618-729c413,37,728,174,981,426
		c318,316,416,658,455,1585c14,359,7,4410-9,4595c-35,408-69,594-135,752c-109,259-371,524-668,678c-118,61-300,120-445,145
		C106203.5,19892.4,105961.5,19902.4,105838.5,19889.4z M104940.5,18478.4c126-23,184-77,209-191c37-168,39-248,43-2343
		c4-2020,1-2357-27-2559c-31-219-111-291-325-290c-81,0-109,4-148,22c-136,61-170,129-204,397c-14,115-17,357-20,2135
		c-3,1357-1,2071,6,2210c12,220,31,367,56,441C104580.5,18444.4,104742.5,18515.4,104940.5,18478.4z"/>
	<path class="st0" d="M110715.5,19888.4c-729-49-1298-280-1714-695c-372-372-551-808-635-1549c-40-345-43-517-39-2050
		c4-1287,7-1494,22-1660c42-466,99-736,216-1011c142-338,375-631,640-807c390-258,884-389,1610-428c763-41,1436,88,1909,364
		c314,183,581,455,775,789c220,380,298,727,336,1487c13,270,13,2963,0,3181c-12,194-42,442-71,584c-62,312-240,664-478,948
		c-313,373-841,658-1441,778C111500.5,19888.4,111088.5,19913.4,110715.5,19888.4z M111245.5,18458.4c119-51,157-145,179-444
		c15-195,15-4307,0-4479c-25-301-86-404-255-436c-122-23-236,3-303,71c-69,69-100,183-121,443c-14,176-14,4170,0,4361
		c18,244,49,366,108,428c33,35,90,65,145,77C111064.5,18493.4,111188.5,18483.4,111245.5,18458.4z"/>
	<path class="st0" d="M123300.5,19893.4c-609-33-1102-174-1497-427c-477-306-726-614-853-1058c-98-341-135-707-135-1356v-373h1128
		h1129l6,623c8,760,19,928,71,1043c39,84,115,128,245,140c204,19,342-83,394-291c50-198,72-669,47-991c-20-249-50-355-117-414
		c-128-112-477-277-1213-572c-430-172-577-236-789-342c-281-141-469-264-586-384c-152-155-242-393-291-767c-22-160-32-1190-14-1433
		c38-544,160-905,384-1141c111-116,384-275,601-351c117-41,296-84,415-101c151-21,460-16,604,10c441,79,786,323,1022,724l54,91v-347
		v-347h1176h1175l-4,2573c-3,1749-8,2649-16,2812c-28,584-62,961-106,1181c-63,313-206,575-445,814c-398,399-870,592-1625,665
		C123904.5,19889.4,123441.5,19900.4,123300.5,19893.4z M123835.5,13606.4c-16-270-40-370-102-435c-89-91-323-107-457-31
		c-131,75-173,224-191,678c-20,516,25,951,118,1136c79,158,265,351,534,556l103,78l3-902
		C123845.5,14118.4,123842.5,13718.4,123835.5,13606.4z"/>
	<path class="st0" d="M49105.5,15789.4v-3960h1200h1200v1460v1460h430h430l2-1457l3-1458l1198-3l1197-2v3960v3960l-1197-2l-1198-3
		l-3-1422l-2-1423h-430h-430v1425v1425h-1200h-1200V15789.4z"/>
	<path class="st0" d="M55235.5,18914.4v-835h690h690v-3125v-3125h1205h1205v3125v3125l688,2l687,3l3,833l2,832h-2585h-2585V18914.4z
		"/>
	<path class="st0" d="M88705.5,15789.4v-3960h1200h1200v1460v1460h430h430l2-1457l3-1458l1198-3l1197-2v3960v3960l-1197-2l-1198-3
		l-3-1422l-2-1423h-430h-430v1425v1425h-1200h-1200V15789.4z"/>
	<path class="st0" d="M95225.5,15789.4v-3960h1099h1099l64,163c36,89,410,1046,834,2126l769,1964l3-2126l2-2127h1055h1055v3960v3960
		l-1117-2l-1118-3l-810-2085c-445-1147-815-2097-822-2110c-9-19-12,454-12,2088l-1,2112h-1050h-1050V15789.4z"/>
	<path class="st0" d="M114645.5,15788.4v-3960l1683,4c1135,3,1723,8,1807,15c568,52,871,104,1143,198c365,127,569,302,727,626
		c133,270,201,600,220,1064c18,438,9,811-25,994c-75,403-287,740-625,992c-196,146-508,282-780,338c-57,11-106,23-108,24
		c-1,2,24,6,57,10c82,9,277,58,386,96c425,150,708,427,839,821c73,220,90,367,83,713c-7,376-43,615-132,884
		c-116,347-295,594-555,764c-314,206-795,328-1450,368c-98,6-800,10-1717,10h-1553V15788.4z M117462.5,18050.4
		c225-48,302-123,350-346c19-86,21-355,4-470c-28-183-79-288-167-337c-95-53-296-88-504-88h-100v636v637l163-6
		C117308.5,18072.4,117405.5,18062.4,117462.5,18050.4z M117437.5,15295.4c219-40,301-104,346-273c31-114,42-221,48-478
		c10-362-14-628-68-772c-67-180-227-255-581-272l-137-6v914v914l153-6C117281.5,15313.4,117389.5,15303.4,117437.5,15295.4z"/>
	<path class="st0" d="M127085.5,15789.4v-3960h1200h1200v1460v1460h430h430v-1460v-1460h1200h1200v3960v3960h-1200h-1200v-1425
		v-1425h-430h-430v1425v1425h-1200h-1200V15789.4z"/>
	<path class="st0" d="M133595.5,15789.4v-3960l1102,2l1103,3l830,2119l830,2119l5-2119l5-2119l1053-3l1052-2v3960v3960h-1114h-1114
		l-54-137c-30-76-398-1024-819-2107l-764-1968l-3,2106l-2,2106h-1055h-1055V15789.4z"/>
	<path class="st0" d="M143480.5,19742.4c-1004-33-1725-156-2171-369c-391-186-682-551-815-1023c-81-289-103-514-96-974
		c9-606,72-974,212-1257c148-296,474-472,1010-545c66-9,121-18,122-19c2-2-43-15-100-31c-146-41-375-116-497-165
		c-438-174-628-376-695-734c-47-249-48-286-52-1573l-4-1223h1105h1105l4,1218c4,1291,3,1267,52,1452c74,285,269,419,638,437l127,6
		v-1556v-1557h1200h1200v3960v3960l-1132-2C144070.5,19746.4,143524.5,19744.4,143480.5,19742.4z M143425.5,17262.4v-946l-127,6
		c-302,16-496,104-581,265c-81,153-107,322-107,707c0,313,10,421,51,563c31,106,45,134,102,194c71,76,182,130,306,148
		c28,4,120,8,204,9l152,1V17262.4z"/>
	<path class="st0" d="M34282.5,9622.4c-4-3-7-93-7-200v-193h55795h55795v200v200h-55788
		C59393.5,9629.4,34285.5,9626.4,34282.5,9622.4z"/>
	<path class="st0" d="M58670,1440h165h165"/>
	<path class="st0" d="M84120,1440h165h165"/>
</g>
<g id="Слой_x0020_1">
	<ellipse class="st0" cx="1387.7" cy="1259.1" rx="1358.9" ry="1234.6"/>
	<path class="st1" d="M469.6,1478.4l-11.4,143.1c-13.4,0-61.1-5.7-72.5-5.7l5.7-127.8c-30.5,5.7-61.1-5.7-97.3-30.5l-5.7,106.8
		c-30.5-43.9-13.4-112.6-11.4-148.8c0-5.7,5.7-19.1,5.7-19.1c19.1,42,80.1,72.5,122.1,76.3c66.8,5.7,143.1-11.4,158.4-13.4
		c-19.1,13.4-72.5,24.8-106.8,30.5L469.6,1478.4z M719.5,1100.6c-5.7,0,0,5.7-13.4,0l-43.9-19.1c-19.1-5.7-49.6-13.4-72.5-19.1
		c0-11.4,19.1-30.5,30.5-43.9c11.4-19.1,19.1-13.4,49.6,0C694.7,1020.4,742.4,1058.6,719.5,1100.6L719.5,1100.6z M439,1020.4
		c43.9-36.3,85.9-43.9,154.5-30.5c-5.7,13.4-13.4,24.8-19.1,36.3c-11.4,19.1-11.4,19.1-30.5,19.1
		C526.8,1039.5,450.5,1033.8,439,1020.4L439,1020.4z M378,1045.2c30.5,5.7,72.5,5.7,101.1,11.4c30.5,5.7,66.8,11.4,97.3,19.1
		c42,11.4,91.6,19.1,131.7,43.9c24.8,13.4,19.1,19.1,30.5,24.8c5.7-13.4,30.5-55.3,30.5-72.5c0-24.8-30.5-42-43.9-55.3
		c5.7-5.7,209.9,19.1,234.7,19.1c-30.5-24.8-274.7-66.8-326.3-72.5c-55.3-5.7-112.6-19.1-154.5,0C460,972.7,378,1014.7,378,1045.2
		L378,1045.2z M710,1360.1c-5.7,76.3-43.9,190.8-106.8,229c-19.1,11.4-49.6,19.1-72.5,0c-24.8-24.8,19.1-42,30.5-49.6
		C673.7,1466.9,685.2,1381,710,1360.1L710,1360.1z M761.5,1274.2c5.7-13.4,49.6-85.9,61.1-91.6l253.8,42l-5.7,61.1
		c-43.9,0-85.9-5.7-131.7-5.7C914.1,1279.9,778.7,1279.9,761.5,1274.2z M1103,1285.6l5.7-55.3c24.8,5.7,137.4,19.1,158.4,24.8
		l-5.7,30.5C1217.5,1287.6,1148.8,1285.6,1103,1285.6z M1286.2,1287.6V1257l190.8,30.5C1471.3,1293.3,1297.6,1285.6,1286.2,1287.6
		L1286.2,1287.6z M811.1,1045.2c5.7,5.7,0,5.7,5.7,11.4c24.8,43.9,19.1,72.5-30.5,101.1c-91.6,66.8-204.2,137.4-295.7,198.4
		c-24.8,19.1-76.3,55.3-106.8,55.3c-101.1,5.7-127.8-173.6,11.4-158.4c61.1,5.7,80.1,30.5,112.6,72.5
		c13.4,0,192.7-118.3,215.6-137.4c5.7-72.5-122.1-85.9-179.3-97.3c-36.3-5.7-80.1-13.4-118.3-19.1c-43.9-5.7-76.3-19.1-101.1,11.4
		c-43.9,49.6-61.1,127.8-72.5,223.2c-5.7,43.9-5.7,97.3-5.7,143.1c0,76.3,13.4,112.6,13.4,122.1c-24.8,0-97.3,11.4-85.9,43.9
		c5.7,5.7,5.7,5.7,11.4,5.7s5.7,0,11.4,5.7c43.9,5.7,30.5-24.8,158.4,0c-5.7,19.1-61.1,19.1-61.1,55.3
		c19.1,49.6,143.1-5.7,173.6-13.4c55.3-19.1,112.6-36.3,162.2-55.3c112.6-36.3,221.3-72.5,332-106.8L1624,1291l-530.4-162.2
		c5.7-13.4,19.1-19.1,19.1-42c0-13.4-13.4-24.8-24.8-30.5C1076.3,1058.6,839.7,1045.2,811.1,1045.2L811.1,1045.2z"/>
	<path class="st1" d="M1669.7,841.1c5.7,11.4,19.1,72.5,30.5,85.9c5.7,5.7,13.4,42,13.4,43.9c0,5.7-13.4,30.5-19.1,30.5
		L1669.7,841.1z M940.8,732.3c5.7-5.7,11.4-11.4,13.4-19.1c11.4,0,97.3,42,106.8,49.6C1045.8,768.6,946.6,738.1,940.8,732.3z
		 M1099.2,636.9c5.7-13.4,5.7-5.7,13.4-19.1c13.4,5.7,106.8,76.3,127.8,97.3c13.4,11.4,19.1,5.7,36.3-5.7l106.8-55.3l-127.8,97.3
		L1099.2,636.9L1099.2,636.9z M959.9,390.8c19.1-30.5,131.7,5.7,162.2,5.7c72.5,13.4,475.1,97.3,488.4,101.1
		c-43.9-5.7-482.7-80.1-576.2-97.3C1021,402.3,965.6,402.3,959.9,390.8L959.9,390.8z M1725,522.5c5.7-42,13.4-42,66.8-66.8
		c55.3-30.5,112.6-61.1,167.9-85.9c36.3-19.1,55.3-30.5,97.3-19.1c-5.7,5.7,0,5.7-5.7,5.7s-5.7,0-5.7,5.7l-72.5,36.3
		C1952.1,415.6,1747.9,522.5,1725,522.5L1725,522.5z M1681.1,1045.2c13.4,0,43.9-19.1,61.1-24.8c13.4-5.7,11.4-5.7,19.1-30.5
		l72.5-362.5c5.7-11.4,91.6-55.3,112.6-66.8c72.5-36.3,101.1-49.6,162.2-101.1c13.4-11.4,36.3-30.5,43.9-43.9
		c49.6-61.1,42-61.1-24.8-97.3c-43.9-19.1-97.3-13.4-137.4,5.7c-76.3,42-158.4,80.1-234.7,122.1c-24.8,11.4-30.5,24.8-61.1,19.1
		l-215.6-47.7c-55.3-11.4-469.4-101.1-519-80.1c-19.1,11.4-30.5,30.5-24.8,61.1c11.4,5.7,396.9,143.1,463.6,167.9
		c5.7,5.7,11.4,5.7,13.4,5.7s5.7,0,5.7,5.7c5.7,5.7,5.7,5.7,5.7,5.7c-24.8,36.3-30.5,30.5-72.5,61.1c-11.4,5.7-76.3,43.9-85.9,43.9
		c-11.4,0-137.4-97.3-158.4-101.1c-11.4,13.4-36.3,36.3-43.9,49.6c11.4,11.4,19.1,19.1,30.5,30.5c11.4,5.7,19.1,19.1,13.4,42
		c-30.5,19.1-85.9-19.1-118.3-36.3c-13.4-5.7-13.4-5.7-24.8,5.7c-5.7,5.7-13.4,13.4-19.1,19.1l-43.9,42
		c61.1,19.1,122.1,43.9,190.8,72.5c19.1,5.7,24.8,13.4,36.3,30.5l43.9,49.6c5.7,5.7,5.7,11.4,13.4,19.1
		c11.4,11.4,19.1,19.1,30.5,30.5c30.5-24.8,19.1-85.9,24.8-101.1c13.4-11.4,270.9-72.5,305.3-80.1c30.5-5.7,61.1-11.4,76.3,11.4
		c24.8,24.8,30.5,215.6,49.6,265.2L1681.1,1045.2z"/>
	<path class="st1" d="M1572.4,1627.2H1561c-5.7-5.7-5.7,5.7-5.7-5.7l-5.7,5.7C1562.8,1627.2,1562.8,1627.2,1572.4,1627.2
		L1572.4,1627.2z M2095.2,1417.3L2095.2,1417.3c-30.5-5.7-61.1-11.4-97.3-11.4c-36.3-5.7-43.9-5.7-72.5,13.4c-5.7,0-5.7,5.7-5.7,5.7
		l0,0l0,0c-19.1,11.4-19.1,13.4-49.6,19.1c-5.7,0-5.7,0-5.7,0l-5.7,5.7c-13.4,5.7-85.9,19.1-91.6,30.5c-5.7,5.7-5.7,97.3-5.7,112.6
		c-5.7,5.7,5.7,0-5.7,5.7h-19.1c0-11.4,0-30.5,5.7-36.3c-5.7-19.1,5.7-43.9,5.7-61.1l11.4-42c0-5.7,0,0,0-5.7v-5.7l13.4-5.7
		c85.9-19.1,137.4-55.3,246.1-43.9C2062.7,1402,2072.3,1411.6,2095.2,1417.3L2095.2,1417.3z M1730.7,1466.9c5.7,5.7,5.7-5.7,5.7,5.7
		c0,5.7-11.4,43.9-11.4,61.1c-5.7,19.1-5.7,43.9-5.7,66.8l-19.1,5.7l-127.8,19.1c-5.7,5.7-5.7,5.7-13.4,5.7l5.7-5.7
		c0-19.1,5.7-55.3,11.4-76.3c5.7-24.8,19.1-43.9,43.9-42c5.7-5.7,0,0,5.7-5.7l42-11.4c13.4-5.7,30.5-5.7,43.9-11.4l13.4-5.7
		L1730.7,1466.9L1730.7,1466.9z M1311,1671.1h-11.4l5.7-13.4c-5.7-19.1,5.7-66.8,19.1-76.3c5.7-5.7,61.1-19.1,72.5-19.1l5.7-5.7
		l-5.7,5.7l-11.4,61.1c0,5.7-5.7,11.4-5.7,19.1v1.9c-5.7,5.7,0,5.7-5.7,5.7L1311,1671.1L1311,1671.1L1311,1671.1z M1236.6,1688.2
		l-13.4,5.7v-11.4l5.7-42l5.7-19.1c5.7-5.7,5.7-11.4,19.1-13.4c5.7-5.7,19.1-5.7,24.8-5.7c5.7-5.7,0-5.7,11.4-5.7l-5.7,5.7
		l-13.4,80.1c0,0,0,0,0,5.7C1261.4,1688.2,1244.2,1688.2,1236.6,1688.2z M1429.3,1657.7L1429.3,1657.7h-11.4v-11.4l-5.7,11.4H1429.3
		z M1286.2,1936.3v13.4l5.7,5.7c0-11.4-5.7-11.4,5.7-19.1H1286.2L1286.2,1936.3z M1389.2,1779.8c5.7,19.1,0,5.7-5.7,11.4l5.7,43.9
		l122.1-5.7c5.7-13.4,0-30.5,0-43.9v-43.9c-5.7-5.7-5.7-19.1-5.7-30.5c-13.4-5.7-5.7-5.7-5.7,0s5.7,5.7-11.4,5.7
		c-19.1,5.7-80.1,5.7-97.3,13.4c-5.7,19.1,5.7,80.1,5.7,112.6c-5.7-5.7-5.7-11.4-5.7-24.8
		C1394.9,1804.6,1389.2,1793.2,1389.2,1779.8L1389.2,1779.8z M1730.7,1991.6c5.7,5.7,5.7,0,5.7-5.7s0-11.4,5.7-13.4l5.7-5.7l0,0l0,0
		C1730.7,1964.9,1730.7,1978.2,1730.7,1991.6L1730.7,1991.6z M2047.5,1972.5C2053.2,1972.5,2047.5,1972.5,2047.5,1972.5l11.4,5.7
		v-5.7l5.7-5.7l-5.7-5.7C2053.2,1972.5,2058.9,1972.5,2047.5,1972.5L2047.5,1972.5z M1772.7,1978.2c5.7,5.7,5.7-5.7,0,5.7
		C1772.7,1984,1767,1984,1772.7,1978.2z M1772.7,1966.8c0-5.7-5.7-5.7,5.7-5.7c11.4,0,5.7,0,5.7,0c0,5.7,5.7,5.7-5.7,5.7
		C1772.7,1966.8,1772.7,1964.9,1772.7,1966.8L1772.7,1966.8z M1681.1,1997.3l5.7,13.4l-5.7,5.7c5.7,5.7,5.7,11.4,5.7,13.4h24.8
		c-11.4,0-5.7,5.7-5.7-5.7c0-5.7,0-11.4,0-19.1l-5.7,5.7c-5.7,5.7,5.7,0-5.7,5.7c-5.7-5.7-5.7-11.4-5.7-19.1
		c0-7.6-5.7-11.4-5.7-19.1c0-13.4-5.7-30.5,0-43.9c5.7,5.7,5.7,13.4,5.7,24.8c0-5.7,0-11.4,0-13.4c0-19.1,5.7-30.5,5.7-43.9
		c5.7-5.7,0-5.7,5.7-5.7c5.7,5.7,5.7-5.7,5.7,11.4c13.4-5.7-5.7-11.4,19.1-11.4c0,11.4,0,5.7-5.7,13.4c-5.7,13.4,0-13.4,0,5.7
		c11.4-5.7,19.1-5.7,30.5,5.7c5.7,5.7,19.1,13.4,19.1,24.8l5.7,5.7l-5.7-5.7c-5.7-5.7-13.4-13.4-24.8-19.1
		c-19.1-5.7-24.8,0-30.5,5.7c0-11.4,5.7-11.4,5.7-19.1c-11.4,0-5.7-5.7-5.7,5.7c0,0-5.7-5.7-5.7,0c0,0-5.7-5.7-11.4-5.7
		c-5.7,19.1,5.7,5.7,5.7,19.1s0,5.7-5.7,11.4c0,5.7-5.7,5.7,0,5.7c0-11.4,5.7-11.4,13.4-11.4c0,11.4-5.7,5.7-5.7,13.4
		c-5.7,11.4,0,5.7,0,13.4l5.7,30.5c0-11.4-5.7-19.1-5.7-30.5c5.7-24.8,5.7-13.4,11.4-13.4V1938c5.7,5.7,0,5.7,5.7,11.4v-22.9
		c0,0,5.7,0,5.7,5.7s5.7,11.4,5.7,11.4v-11.4c13.4,5.7,5.7,0,5.7,19.1h5.7c0,0,0-5.7,0,0l5.7-5.7c5.7,13.4,0-5.7-5.7,13.4h-5.7
		c-5.7,5.7,0,11.4,5.7,24.8c0,13.4,0,24.8-11.4,30.5v5.7v13.4h5.7l-5.7-13.4l11.4,11.4l5.7-5.7c-5.7-5.7,5.7-5.7-5.7-5.7l5.7-5.7
		c0,0,0-5.7,5.7,0l5.7-5.7c0,0,0,0,5.7,0c0,0,0,0,5.7,0h-5.7c0,0,0,0-5.7,0h13.4c0-11.4,5.7,0,0-13.4c5.7,11.4,0,0-5.7,5.7v-5.7
		v-5.7c5.7-13.4,5.7-5.7,5.7-13.4l5.7,5.7c5.7,5.7,5.7,30.5,5.7,36.3c0,0,0,0,0,5.7c0,0,0,0,0,5.7c0,0,0,0,0,5.7
		c5.7-5.7,5.7,5.7,11.4-5.7l5.7-11.4c-5.7-49.6-5.7-72.5-30.5-112.6c-11.4-13.4-13.4-11.4-36.3-11.4c-24.8,0-43.9-5.7-55.3,36.3
		c-11.4,30.5,0,55.3-5.7,85.9L1681.1,1997.3z M1316.7,1964.9c0,11.4,0,5.7-5.7,5.7l-5.7-5.7C1311,1964.9,1311,1964.9,1316.7,1964.9
		L1316.7,1964.9z M1311,1936.3l5.7,11.4l0,0h-5.7V1936.3C1311,1928.6,1305.3,1934.4,1311,1936.3L1311,1936.3z M1286.2,1903.8
		c-5.7,5.7,5.7,5.7-5.7,5.7l5.7,5.7c0,0,0,0,5.7,0v11.4v-5.7c0-5.7,0-5.7,5.7-5.7l5.7,5.7l0,0l5.7-5.7v5.7l5.7,5.7l5.7-5.7
		c0,5.7,0,5.7-5.7,11.4c5.7,13.4,5.7,19.1,0,30.5v5.7c11.4,13.4,0,11.4,0,11.4c-5.7,0-11.4-5.7-13.4-11.4c0-5.7,0,0-5.7-5.7
		c0,0,0,0,0,5.7v5.7v5.7l11.4,5.7v-5.7h5.7h3.8c0,0,0,0,5.7,0c5.7-5.7,5.7-5.7,0-13.4v-13.4c-5.7-5.7-5.7,0-5.7-5.7
		c5.7,0,5.7,0,11.4,5.7c5.7-5.7,0-5.7,5.7-11.4l5.7-5.7c5.7-5.7,0,0,5.7-5.7c0,5.7,0,19.1,5.7,24.8l-1.9-1.9l-5.7-43.9l-5.7,5.7
		c0,0,0,0,0,5.7c0,0,0,0,0,5.7c0,0,0,5.7,0,11.4c-5.7,0-11.4,0-13.4-5.7v-5.7c0-13.4,5.7-5.7,0-5.7
		C1311,1911.5,1297.6,1903.8,1286.2,1903.8L1286.2,1903.8z M1322.4,1959.2L1322.4,1959.2l-5.7,5.7c5.7,5.7,5.7,5.7,0,13.4
		c0,0,0,0-5.7,0h-5.7h-5.7v5.7c0,5.7,5.7,5.7-5.7,5.7l-11.4-5.7l-5.7,5.7c-5.7,11.4-5.7,0-5.7,5.7c5.7-11.4,5.7-5.7,0-13.4l-5.7-5.7
		l-5.7,19.1l49.6,5.7c13.4,0,13.4-5.7,30.5-5.7c11.4,0,19.1,0,36.3,0c-5.7-13.4,5.7-5.7-11.4-11.4c19.1,0,11.4-5.7,11.4-5.7
		c-11.4,0-66.8,5.7-43.9-19.1c-5.7-5.7-5.7-19.1-5.7-24.8c-5.7,5.7,0,0-5.7,5.7l-5.7,5.7C1328.2,1959.2,1328.2,1953.4,1322.4,1959.2
		L1322.4,1959.2z M1244.2,1964.9c0,5.7,5.7,5.7,0,5.7C1236.6,1959.2,1244.2,1964.9,1244.2,1964.9z M1206.1,1627.2l-11.4,72.5
		l-40.1,1.9c-5.7,0-5.7,0-5.7,0h-3.8c0-19.1,5.7-49.6,11.4-72.5l61.1-13.4L1206.1,1627.2L1206.1,1627.2z M1169.8,1724.5l154.5-30.5
		c61.1-5.7,240.4-42,311-55.3c24.8-5.7,49.6-5.7,76.3-13.4c30.5-5.7,251.9-5.7,270.9,0c30.5,5.7,190.8,19.1,204.2,13.4
		c5.7,5.7,30.5,5.7,42,5.7c11.4,0,19.1,0,24.8,5.7c-5.7,11.4,0,5.7-5.7,5.7l-1.9-7.6l-209.9-19.1c-19.1,0-43.9-5.7-72.5-5.7
		c-19.1,5.7-42,5.7-61.1,5.7c-42,5.7-80.1,11.4-118.3,13.4l-13.4,5.7l-637.3,85.9v-13.4C1145,1724.5,1154.5,1718.8,1169.8,1724.5
		L1169.8,1724.5z M1429.3,1657.7h-13.4l5.7-11.4c0-19.1,5.7-42,5.7-61.1c5.7-5.7,5.7-19.1,13.4-30.5c5.7-5.7,19.1-5.7,30.5-11.4
		c19.1-5.7,55.3-19.1,72.5-19.1l5.7-5.7l-5.7,5.7c-5.7,24.8-13.4,76.3-19.1,112.6L1429.3,1657.7v5.7V1657.7z M1389.2,1539.4
		c-19.1-5.7-162.2,43.9-204.2,55.3c-55.3,19.1-61.1,5.7-66.8,122.1c0,5.7-5.7,19.1-5.7,30.5c0,13.4,5.7,11.4,5.7,30.5
		c0,42,0,80.1,5.7,122.1c5.7,55.3,5.7,30.5,61.1,66.8c13.4,5.7,19.1,5.7,30.5,19.1c-5.7,5.7-19.1,5.7-24.8,5.7v5.7l13.4,5.7
		l127.8,13.4c30.5,5.7,85.9,11.4,122.1,13.4l545.7,72.5c24.8,5.7,36.3,0,61.1-5.7s229-30.5,240.4-36.3
		c-5.7-5.7-154.5-19.1-173.6-19.1c-11.4,0-19.1,0-30.5-5.7h11.4l137.4-11.4c5.7-5.7,5.7-11.4,11.4-13.4l13.4-5.7
		c11.4-5.7,19.1-13.4,19.1-30.5c0-5.7,0-19.1,0-24.8s0-11.4-5.7-13.4c5.7-30.5,0-49.6-5.7-80.1c-11.4-5.7-5.7-5.7-11.4-36.3
		l-13.4-137.4c0,0,5.7,0,5.7-11.4c5.7-11.4-5.7-42-5.7-43.9c-5.7-5.7-19.1-30.5-19.1-42c-19.1-24.8-30.5-49.6-43.9-80.1
		c-11.4-19.1-5.7-11.4,0-30.5c5.7-36.3-49.6-43.9-72.5-61.1c-72.5-19.1-106.8-36.3-192.7-19.1c-30.5,5.7-320.5,91.6-358.7,97.3
		c-30.5,5.7-61.1,19.1-85.9,24.8C1471.3,1508.9,1404.5,1528,1389.2,1539.4L1389.2,1539.4z M1230.9,1966.8L1230.9,1966.8
		c5.7,0,5.7,0,5.7,5.7c5.7,5.7,0,0,5.7,5.7C1230.9,1972.5,1236.6,1978.2,1230.9,1966.8z M1236.6,1964.9L1236.6,1964.9L1236.6,1964.9
		L1236.6,1964.9l-5.7-5.7c0-5.7-5.7,0-5.7-5.7s0-5.7,0-11.4v-11.4c5.7-5.7,5.7-5.7,5.7-11.4l0,0l0,0h5.7c0,0,0,5.7,5.7,5.7l5.7,5.7
		c-5.7,5.7,0,0-5.7,5.7c-5.7,11.4,5.7,19.1-5.7,30.5v11.4C1236.6,1966.8,1236.6,1966.8,1236.6,1964.9L1236.6,1964.9z M1249.9,1905.7
		v5.7C1244.2,1905.7,1244.2,1905.7,1249.9,1905.7c-11.4,0-13.4-5.7-24.8,0c0-5.7,5.7-5.7,5.7-11.4
		C1242.3,1898.1,1244.2,1903.8,1249.9,1905.7L1249.9,1905.7L1249.9,1905.7z M1379.7,1997.3c-11.4,0-19.1,0-30.5,0
		c-19.1,0-19.1,5.7-30.5,5.7l-49.6-5.7l5.7-19.1l5.7,5.7c5.7,11.4,5.7,5.7,0,13.4c5.7-5.7,0,5.7,5.7-5.7l5.7-5.7l11.4,5.7
		c-5.7-5.7-5.7-5.7-5.7-11.4v-5.7c0,0,0,0,0-5.7v-7.6v-7.6c-5.7-5.7,0,5.7-5.7-5.7v-5.7c0-5.7,0-11.4,5.7-11.4h5.7v-19.1
		c0,0,0,0-5.7,0l-5.7-5.7l5.7-5.7c5.7-24.8,30.5-5.7,30.5,11.4c5.7,5.7,0-5.7,0,5.7v5.7c0,5.7,5.7,5.7,13.4,5.7c0-5.7,0-11.4,0-11.4
		s0,0,0-5.7c0,0,0,0,0-5.7l5.7-5.7c-19.1-30.5-5.7-42-55.3-36.3l-11.4,19.1c-19.1,5.7-11.4-5.7-19.1-11.4l0,0
		c-5.7-5.7-5.7-5.7-24.8-5.7c-19.1,24.8-11.4,61.1-11.4,91.6l-76.3-30.5c-11.4-30.5-11.4-137.4-5.7-173.6l85.9-11.4
		c5.7,11.4,5.7,19.1,13.4,30.5l0,0l0,0c0,11.4,19.1,55.3,30.5,66.8h85.9c5.7-13.4-5.7-72.5-5.7-85.9v-24.8v-3.8
		c11.4-5.7,30.5-5.7,42-5.7l5.7,66.8c5.7-5.7,5.7,11.4,5.7-11.4l-5.7-61.1c5.7-5.7,101.1-19.1,112.6-13.4c5.7-5.7-5.7-5.7,5.7,0h5.7
		l19.1-5.7c5.7-5.7,5.7-5.7,11.4-5.7v13.4l5.7,36.3l5.7,42l5.7,43.9c11.4,5.7,137.4,0,154.5-5.7l-5.7-131.7v-11.4l42-5.7
		c5.7-5.7,5.7-5.7,19.1-5.7v19.1c0,5.7,0,49.6,5.7,61.1c-5.7,13.4,0,61.1,5.7,72.5c5.7,5.7,24.8,11.4,30.5,13.4
		c11.4,5.7,19.1,5.7,36.3,11.4l5.7,118.3l5.7,61.1h-47.7c-13.4-5.7-11.4-19.1-11.4-36.3l-5.7,11.4c-5.7,5.7-5.7-5.7-11.4,5.7
		c0,0,0,0,0-5.7c0,0,0,0,0-5.7c0,0,0,0,0-5.7c0-11.4,5.7-30.5-5.7-36.3l-5.7-5.7c-5.7,11.4,0,0-5.7,13.4v5.7h5.7
		c5.7,13.4,5.7,5.7,0,13.4v11.4c-5.7,0-5.7,5.7-5.7-5.7h-5.7c0,0,0,0-5.7,0l-5.7,5.7c0,0,0,0-5.7,0c5.7,5.7,0,5.7,11.4,5.7l-5.7,5.7
		v5.7c-5.7-5.7-5.7,5.7-5.7-5.7l0,0l-5.7,5.7l-11.4,5.7h-5.7c-5.7-5.7-5.7-5.7-5.7-13.4l0,0l0,0c0,0,0,0-5.7,0v5.7
		c-5.7-13.4,0,0-11.4-13.4c-5.7-5.7-5.7-11.4-5.7-13.4l-5.7-30.5c0-11.4-5.7-5.7,0-13.4c0-5.7,5.7-5.7,5.7-13.4
		c-11.4,0-13.4,0-13.4,11.4c0-5.7,0-5.7,0-5.7c5.7-5.7,5.7,5.7,5.7-11.4c0-13.4-5.7,0-5.7-19.1c5.7,0,5.7,5.7,11.4,5.7
		c0,0,0,0,5.7,0c0-13.4-5.7-5.7,5.7-5.7l0,0c0-19.1-5.7,11.4,0-5.7c5.7-11.4,5.7-5.7,5.7-13.4c-30.5,0-5.7,5.7-19.1,11.4
		c0-19.1,0-5.7-5.7-11.4c-5.7,5.7-5.7,0-5.7,5.7c-5.7,13.4-5.7,24.8-5.7,43.9c0,5.7,0,11.4,0,13.4c0-11.4,5.7-19.1-5.7-24.8
		c-5.7,11.4,0,30.5,0,43.9c0,11.4,5.7,11.4,5.7,19.1c0,11.4-5.7,13.4,5.7,19.1c13.4-5.7,0,0,5.7-5.7l5.7-5.7c0,5.7-5.7,11.4,0,19.1
		c5.7,11.4-5.7,5.7,5.7,5.7h-24.8c-5.7-5.7-5.7-11.4-5.7-13.4l-11.4-5.7c-36.3,0-179.3-24.8-192.7-19.1c-5.7-5.7-42-5.7-72.5-11.4
		c-19.1-5.7-43.9-5.7-66.8-5.7V1933l-5.7,5.7c-19.1,30.5,36.3,19.1,43.9,19.1c0,5.7,5.7,5.7-11.4,5.7c19.1,5.7,5.7-5.7,11.4,5.7
		 M1249.9,1798.9c5.7,5.7,5.7,0,5.7,5.7l11.4,19.1C1261.4,1825.6,1261.4,1810.3,1249.9,1798.9L1249.9,1798.9z M1337.7,1726.4
		l-66.8,5.7c-19.1,5.7-19.1,0-19.1-5.7c11.4,0,72.5-5.7,80.1-11.4C1337.7,1718.8,1328.2,1718.8,1337.7,1726.4L1337.7,1726.4z
		 M1225.1,1743.6L1225.1,1743.6l-5.7-5.7C1236.6,1732.1,1219.4,1732.1,1225.1,1743.6z M2181,1491.7l66.8,101.1
		c5.7,5.7,5.7-5.7,5.7,5.7l-11.4-1.9l-22.9-5.7c-49.6-19.1-179.3-13.4-234.7-11.4c-5.7-19.1-49.6-131.7-49.6-143.1
		c30.5-19.1,158.4,5.7,198.4,19.1C2158.1,1478.4,2175.3,1478.4,2181,1491.7z M2266.9,1798.9c-5.7-5.7-5.7-5.7-13.4-5.7l-13.4-112.6
		h19.1l19.1,154.5c-11.4-5.7-5.7,5.7-5.7-5.7C2261.2,1819.9,2261.2,1810.3,2266.9,1798.9L2266.9,1798.9z M1730.7,2018.3
		c5.7,5.7,5.7,5.7,11.4,5.7l11.4,5.7c0,0,5.7,5.7-11.4,5.7C1736.5,2033.6,1730.7,2024,1730.7,2018.3L1730.7,2018.3
		C1725,2008.8,1725,2018.3,1730.7,2018.3S1730.7,2018.3,1730.7,2018.3L1730.7,2018.3z M2287.9,1934.4c5.7,5.7,5.7,5.7,5.7,13.4
		c0,5.7,0,5.7,0,13.4c-13.4,0-5.7-5.7-11.4-13.4L2287.9,1934.4h5.7H2287.9z M2276.4,1953.4c0,5.7,5.7,5.7-5.7,5.7
		c-5.7,0-11.4,0-13.4,0c-11.4,0-19.1,5.7-30.5,0v-5.7h11.4c11.4,0,11.4,0,19.1-5.7c-5.7,0-11.4,0-13.4,0c-5.7-5.7-5.7,0-5.7-5.7
		c5.7,0,19.1,0,24.8,0C2276.4,1947.7,2272.6,1953.4,2276.4,1953.4z M2282.2,1844.7l5.7,19.1v5.7h-13.4h-36.3l-240.4,19.1
		c0,0,0,0,0,5.7l5.7,61.1l5.7,61.1c-5.7-5.7-11.4-131.7-11.4-154.5v-11.4L2282.2,1844.7L2282.2,1844.7z M1976.9,1856.1
		c-5.7,11.4,0,11.4,0,19.1c-5.7,30.5,11.4,85.9,5.7,118.3c5.7,5.7,5.7,13.4,5.7,24.8h-112.6V2005l-7.6-106.8l-5.7-55.3
		c5.7,0,19.1,0,24.8,5.7c19.1-5.7,49.6,5.7,72.5,5.7h13.4L1976.9,1856.1L1976.9,1856.1z M2224.9,1936.3c13.4,0,36.3-5.7,49.6-5.7
		c-5.7,5.7-5.7,5.7-19.1,5.7c-13.4,0-13.4,0-24.8,5.7h-5.7V1936.3z M2062.7,1987.8c-11.4,0-5.7,5.7-11.4-5.7
		c5.7-5.7,19.1-5.7,30.5-5.7l-19.1-5.7c-5.7,0-5.7-5.7-5.7-5.7c-5.7-5.7-5.7,0-5.7-5.7v-5.7c11.4-5.7,66.8-11.4,76.3-5.7
		c-5.7,5.7,5.7,0-5.7,5.7l-49.6,5.7l5.7,5.7c13.4,0,36.3-5.7,43.9,5.7l5.7,5.7c5.7,5.7,0,0,5.7,5.7
		C2125.7,1978.2,2083.7,1978.2,2062.7,1987.8L2062.7,1987.8z M2047.5,1959.2v30.5h-19.1v-30.5H2047.5L2047.5,1959.2z M1831.9,1663.4
		v-5.7C1831.9,1663.4,1837.6,1657.7,1831.9,1663.4z M1954,1652C1959.7,1657.7,1959.7,1652,1954,1652L1954,1652l-80.1,13.4
		c-13.4,0-19.1,5.7-24.8,0L1954,1652z M1976.9,1652c0-5.7,0,0-5.7-5.7l-5.7-5.7h11.4C1980.7,1652,1980.7,1646.3,1976.9,1652
		L1976.9,1652z M1557.1,1785.5C1562.8,1785.5,1562.8,1785.5,1557.1,1785.5c5.7,5.7,5.7,11.4,5.7,19.1c5.7,30.5,0,13.4,5.7,19.1
		l-5.7-122.1c5.7-5.7,122.1-19.1,137.4-19.1c5.7-5.7,5.7-5.7,5.7-5.7c-11.4-5.7-122.1,13.4-137.4,19.1c-5.7,5.7,0,0-5.7,5.7
		l5.7,72.5c0,11.4,0,5.7,0,5.7 M2230.6,1688.2l5.7,72.5l5.7,11.4c-5.7,0-11.4,0-19.1,0l-13.4-5.7l5.7-11.4
		c-19.1-24.8-24.8-19.1-24.8-72.5l-5.7-19.1c11.4,0,30.5-5.7,42,0v13.4L2230.6,1688.2z M1915.8,1461.2c0,19.1,42,101.1,43.9,131.7
		c-42,0-127.8-5.7-158.4,0l5.7-106.8L1915.8,1461.2z M1261.4,1953.4c-5.7-5.7-5.7,5.7-5.7-5.7
		C1261.4,1953.4,1261.4,1942,1261.4,1953.4z M1255.7,1922.9L1255.7,1922.9L1255.7,1922.9L1255.7,1922.9L1255.7,1922.9
		C1244.2,1928.6,1261.4,1928.6,1255.7,1922.9z M1242.3,1953.4c-5.7,0-5.7,0,0,5.7 M1675.4,1991.6l11.4,5.7l5.7-5.7l-5.7-13.4v13.4
		H1675.4z"/>
</g>
</svg>
