<svg id="Слой_1" xmlns="http://www.w3.org/2000/svg" viewBox="0 0 1106.7 437.1"><style>.st1{fill:#fefefe}</style><g id="Слой_x0020_1"><ellipse cx="240.2" cy="218.6" rx="235.1" ry="213.5" fill="#004d81"/><path class="st1" d="M83.2 260.7l-1.8 25.1c-2.7 0-10.8-.9-12.6-.9l.9-22.4c-5.4.9-10.8-.9-17-5.4l-.9 18.9c-5.4-8.1-2.7-19.7-1.8-26 0-.9.9-3.6.9-3.6 3.6 7.2 14.4 12.6 21.5 13.5 11.7.9 25.1-1.8 27.8-2.7-3.6 2.7-12.6 4.5-18.8 5.4l1.8-1.9zm43.9-66.4c-.9 0 0 .9-2.7 0l-8.1-3.6c-3.6-.9-9-2.7-12.6-3.6 0-1.8 3.6-5.4 5.4-8.1 1.8-3.6 3.6-2.7 9 0 4.6 1 12.6 8.2 9 15.3zM77.8 180c8.1-6.3 15.3-8.1 26.9-5.4-.9 2.7-2.7 4.5-3.6 6.3-1.8 3.6-1.8 3.6-5.4 3.6-2.7-.9-16.1-1.8-17.9-4.5zM67 184.5c5.4.9 12.6.9 17.9 1.8 5.4.9 11.7 1.8 17 3.6 7.2 1.8 16.1 3.6 23.3 8.1 4.5 2.7 3.6 3.6 5.4 4.5.9-2.7 5.4-9.9 5.4-12.6 0-4.5-5.4-7.2-8.1-9.9.9-.9 36.8 3.6 41.3 3.6-5.4-4.5-48.4-11.7-57.4-12.6-9.9-.9-19.7-3.6-26.9 0-3.5.9-17.9 8.1-17.9 13.5zm58.3 55.6c-.9 13.5-8.1 33.2-18.8 40.4-3.6 1.8-9 3.6-12.6 0-4.5-4.5 3.6-7.2 5.4-9 19.8-12.6 21.6-27.8 26-31.4zm9-15.3c.9-2.7 9-15.3 10.8-16.1l44.9 7.2-.9 10.8c-8.1 0-15.3-.9-23.3-.9-4.6-.1-28.8-.1-31.5-1zm60.1 1.8l.9-9.9c4.5.9 24.2 3.6 27.8 4.5l-.9 5.4c-8 .9-19.7 0-27.8 0zm32.3.9v-5.4l33.2 5.4c-.9.9-31.4-.9-33.2 0zm-83.4-43c.9.9 0 .9.9 1.8 4.5 8.1 3.6 12.6-5.4 17.9-16.1 11.7-35.9 24.2-52 35-4.5 3.6-13.5 9.9-18.8 9.9-17.9.9-22.4-30.5 1.8-27.8 10.8.9 14.4 5.4 19.7 12.6 2.7 0 34.1-20.6 37.7-24.2.9-12.6-21.5-15.3-31.4-17-6.3-.9-14.4-2.7-20.6-3.6-8.1-.9-13.5-3.6-17.9 1.8-8.1 9-10.8 22.4-12.6 39.5-.9 8.1-.9 17-.9 25.1 0 13.5 2.7 19.7 2.7 21.5-4.5 0-17 1.8-15.3 8.1.9.9.9.9 1.8.9s.9 0 1.8.9c8.1.9 5.4-4.5 27.8 0-.9 3.6-10.8 3.6-10.8 9.9 3.6 9 25.1-.9 30.5-2.7 9.9-3.6 19.7-6.3 28.7-9.9 19.7-6.3 38.6-12.6 58.3-18.8l116.6-37.7-93.3-28.7c.9-2.7 3.6-3.6 3.6-7.2 0-2.7-2.7-4.5-4.5-5.4-1.8.8-43.9-1.9-48.4-1.9zM294 148.6c.9 1.8 3.6 12.6 5.4 15.3.9.9 2.7 7.2 2.7 8.1s-2.7 5.4-3.6 5.4l-4.5-28.8zm-128.3-18.9c.9-.9 1.8-1.8 2.7-3.6 1.8 0 17 7.2 18.8 9-2.6.9-20.6-4.5-21.5-5.4zm27.8-17c.9-2.7.9-.9 2.7-3.6 2.7.9 18.8 13.5 22.4 17 2.7 1.8 3.6.9 6.3-.9l18.8-9.9-22.4 17.9-27.8-20.5zm-24.2-43.1c3.6-5.4 23.3.9 28.7.9 12.6 2.7 83.4 17 86.1 17.9-8.1-.9-85.2-14.4-101.4-17-2.6 0-12.5 0-13.4-1.8zm134.6 23.3c.9-7.2 2.7-7.2 11.7-11.7 9.9-5.4 19.7-10.8 29.6-15.3 6.3-3.6 9.9-5.4 17-3.6-.9.9 0 .9-.9.9s-.9 0-.9.9l-12.6 6.3c-4.4 3.7-40.3 22.5-43.9 22.5zm-8.1 91.6c2.7 0 8.1-3.6 10.8-4.5 2.7-.9 1.8-.9 3.6-5.4l12.6-63.7c.9-1.8 16.1-9.9 19.7-11.7 12.6-6.3 17.9-9 28.7-17.9 2.7-1.8 6.3-5.4 8.1-8.1 9-10.8 7.2-10.8-4.5-17-8.1-3.6-17-2.7-24.2.9-13.5 7.2-27.8 14.4-41.3 21.5-4.5 1.8-5.4 4.5-10.8 3.6l-37.7-8.1c-9.9-1.8-82.5-17.9-91.5-14.4-3.6 1.8-5.4 5.4-4.5 10.8 1.8.9 70 25.1 81.6 29.6.9.9 1.8.9 2.7.9.9 0 .9 0 .9.9l.9.9c-4.5 6.3-5.4 5.4-12.6 10.8-1.8.9-13.5 8.1-15.3 8.1s-24.2-17-27.8-17.9c-1.8 2.7-6.3 6.3-8.1 9l5.4 5.4c1.8.9 3.6 3.6 2.7 7.2-5.4 3.6-15.3-3.6-20.6-6.3-2.7-.9-2.7-.9-4.5.9l-3.6 3.6-8.1 7.2c10.8 3.6 21.5 8.1 33.2 12.6 3.6.9 4.5 2.7 6.3 5.4l8.1 9c.9.9.9 1.8 2.7 3.6l5.4 5.4c5.4-4.5 3.6-15.3 4.5-17.9 2.7-1.8 47.5-12.6 53.8-14.4 5.4-.9 10.8-1.8 13.5 1.8 4.5 4.5 5.4 37.7 9 46.7l.9 1.5zM277 286.7h-1.8c-.9-.9-.9.9-.9-.9l-.9.9h3.6zm91.5-36.7c-5.4-.9-10.8-1.8-17-1.8-6.3-.9-8.1-.9-12.6 2.7-.9 0-.9.9-.9.9-3.6 1.8-3.6 2.7-9 3.6h-.9l-.9.9c-2.7.9-15.3 3.6-16.1 5.4-.9.9-.9 17-.9 19.7-.9.9.9 0-.9.9h-3.6c0-1.8 0-5.4.9-6.3-.9-3.6.9-8.1.9-10.8l1.8-7.2v-1.8l2.7-.9c15.3-3.6 24.2-9.9 43.1-8.1 8 .1 9.8 1.9 13.4 2.8zm-63.7 8.9c.9.9.9-.9.9.9 0 .9-1.8 8.1-1.8 10.8-.9 3.6-.9 8.1-.9 11.7l-3.6.9-22.4 3.6c-.9.9-.9.9-2.7.9l.9-.9c0-3.6.9-9.9 1.8-13.5.9-4.5 3.6-8.1 8.1-7.2l.9-.9 7.2-1.8c2.7-.9 5.4-.9 8.1-1.8l2.7-.9.8-1.8zm-73.6 35.9h-1.8l.9-2.7c-.9-3.6.9-11.7 3.6-13.5.9-.9 10.8-3.6 12.6-3.6l.9-.9-.9.9-1.8 10.8c0 .9-.9 1.8-.9 3.6v.9c-.9.9 0 .9-.9.9l-11.7 3.6zm-13.4 2.7l-2.7.9v-1.8l.9-7.2.9-3.6c.9-.9.9-1.8 3.6-2.7.9-.9 3.6-.9 4.5-.9.9-.9 0-.9 1.8-.9l-.9.9-2.7 14.4v.9h-5.4zm34-5.4H250v-1.8l-.9 1.8h2.7zm-25.1 49.4v2.7l.9.9c0-1.8-.9-1.8.9-3.6h-1.8zm18-27.8c.9 3.6 0 .9-.9 1.8l.9 8.1 21.5-.9c.9-2.7 0-5.4 0-8.1v-8.1c-.9-.9-.9-3.6-.9-5.4-2.7-.9-.9-.9-.9 0s.9.9-1.8.9c-3.6.9-14.4.9-17 2.7-.9 3.6.9 14.4.9 19.7-.9-.9-.9-1.8-.9-4.5 0-1.8-.9-3.6-.9-6.2zm60.1 37.6c.9.9.9 0 .9-.9s0-1.8.9-2.7l.9-.9c-2.7-.8-2.7 1.8-2.7 4.5zm55.6-3.6c.9 0 0 0 0 0l1.8.9v-.9l.9-.9-.9-.9c-.9 1.8 0 1.8-1.8 1.8zm-48.4.9c.9.9.9-.9 0 .9 0 0-.9 0 0-.9zm0-1.8c0-.9-.9-.9.9-.9h.9c0 .9.9.9-.9.9-.9 0-.9-.8-.9 0zm-16.2 5.4l.9 2.7-.9.9c.9.9.9 1.8.9 2.7h4.5c-1.8 0-.9.9-.9-.9V354l-.9.9c-.9.9.9 0-.9.9-.9-.9-.9-1.8-.9-3.6s-.9-1.8-.9-3.6c0-2.7-.9-5.4 0-8.1.9.9.9 2.7.9 4.5v-2.7c0-3.6.9-5.4.9-8.1.9-.9 0-.9.9-.9.9.9.9-.9.9 1.8 2.7-.9-.9-1.8 3.6-1.8 0 1.8 0 .9-.9 2.7-.9 2.7 0-2.7 0 .9 1.8-.9 3.6-.9 5.4.9.9.9 3.6 2.7 3.6 4.5l.9.9-.9-.9c-.9-.9-2.7-2.7-4.5-3.6-3.6-.9-4.5 0-5.4.9 0-1.8.9-1.8.9-3.6-1.8 0-.9-.9-.9.9 0 0-.9-.9-.9 0 0 0-.9-.9-1.8-.9-.9 3.6.9.9.9 3.6s0 .9-.9 1.8c0 .9-.9.9 0 .9 0-1.8.9-1.8 2.7-1.8 0 1.8-.9.9-.9 2.7-.9 1.8 0 .9 0 2.7l.9 5.4c0-1.8-.9-3.6-.9-5.4.9-4.5.9-2.7 1.8-2.7v-2.7c.9.9 0 .9.9 1.8v-2.7s.9 0 .9.9.9 1.8.9 1.8v-1.8c2.7.9.9 0 .9 3.6h.9s0-.9 0 0l.9-.9c.9 2.7 0-.9-.9 2.7h-.9c-.9.9 0 1.8.9 4.5 0 2.7 0 4.5-1.8 5.4v3.6h.9l-.9-2.7 1.8 1.8.9-.9c-.9-.9.9-.9-.9-.9l.9-.9s0-.9.9 0l.9-.9h1.8l-.9-.9h-.9 2.7c0-1.8.9 0 0-2.7.9 1.8 0 0-.9.9v-1.8c.9-2.7.9-.9.9-2.7l.9.9c.9.9.9 5.4.9 6.3v2.7c.9-.9.9.9 1.8-.9l.9-1.8c-.9-9-.9-12.6-5.4-19.7-1.8-2.7-2.7-1.8-6.3-1.8-4.5 0-8.1-.9-9.9 6.3-1.8 5.4 0 9.9-.9 15.3l.9-2.8zm-63.7-6.2c0 1.8 0 .9-.9.9l-.9-.9h1.8zm-.9-4.5l.9 1.8h-.9v-1.8c0-1.8-.9-.9 0 0zm-4.5-6.3c-.9.9.9.9-.9.9l.9.9h.9v1.8-.9c0-.9 0-.9.9-.9l.9.9.9-.9v.9l.9.9.9-.9c0 .9 0 .9-.9 1.8.9 2.7.9 3.6 0 5.4v.9c1.8 2.7 0 1.8 0 1.8-.9 0-1.8-.9-2.7-1.8 0-.9 0 0-.9-.9v2.7l1.8.9v-.9h2.7c.9-.9.9-.9 0-2.7v-.9c-.9-.9-.9 0-.9-.9.9 0 .9 0 1.8.9.9-.9 0-.9.9-1.8l.9-.9.9-.9c0 .9 0 3.6.9 4.5l.9-.9-.9-8.1-.9.9v3.6c-.9 0-1.8 0-2.7-.9v-.9c0-2.7.9-.9 0-.9-1.8-.9-4.5-2.7-6.3-2.7zm6.3 9.9l-.9.9c.9.9.9.9 0 2.7h-2.7v.9c0 .9.9.9-.9.9l-1.8-.9-.9.9c-.9 1.8-.9 0-.9.9.9-1.8.9-.9 0-2.7l-.9-.9-.9 3.6 9 .9c2.7 0 2.7-.9 5.4-.9h6.3c-.9-2.7.9-.9-1.8-1.8 3.6 0 1.8-.9 1.8-.9-1.8 0-11.7.9-8.1-3.6-.9-.9-.9-3.6-.9-4.5l-.9.9-.9.9c.9 2.7.9 1.8 0 2.7zm-13.5.9c0 .9.9.9 0 .9-1.7-1.8 0-.9 0-.9zm-7.1-59.3l-1.8 12.6-7.2.9h-1.8c0-3.6.9-9 1.8-12.6l10.8-2.7-1.8 1.8zm-6.3 17.1l26.9-5.4c10.8-.9 42.2-7.2 54.7-9.9 4.5-.9 9-.9 13.5-2.7 5.4-.9 44-.9 47.5 0 5.4.9 33.2 3.6 35.9 2.7.9.9 5.4.9 7.2.9 1.8 0 3.6 0 4.5.9-.9 1.8 0 .9-.9.9l-.9-.9-36.8-3.6c-3.6 0-8.1-.9-12.6-.9-3.6.9-7.2.9-10.8.9-7.2.9-14.4 1.8-20.6 2.7l-2.7.9-112.1 15.3v-2.7c2.7.9 4.5 0 7.2.9zm45.7-11.7h-2.7l.9-1.8c0-3.6.9-7.2.9-10.8.9-.9.9-3.6 2.7-5.4.9-.9 3.6-.9 5.4-1.8 3.6-.9 9.9-3.6 12.6-3.6l.9-.9-.9.9c-.9 4.5-2.7 13.5-3.6 19.7l-16.2 3.7v.9-.9zm-7.1-20.6c-3.6-.9-28.7 8.1-35.9 9.9-9.9 3.6-10.8.9-11.7 21.5 0 .9-.9 3.6-.9 5.4 0 2.7.9 1.8.9 5.4 0 7.2 0 14.4.9 21.5.9 9.9.9 5.4 10.8 11.7 2.7.9 3.6.9 5.4 3.6-.9.9-3.6.9-4.5.9v.9l2.7.9 22.4 2.7c5.4.9 15.3 1.8 21.5 2.7l96 12.6c4.5.9 6.3 0 10.8-.9 4.5-.9 40.4-5.4 42.2-6.3-.9-.9-26.9-3.6-30.5-3.6-1.8 0-3.6 0-5.4-.9h1.8l24.2-1.8c.9-.9.9-1.8 1.8-2.7l2.7-.9c1.8-.9 3.6-2.7 3.6-5.4v-4.5c0-.9 0-1.8-.9-2.7.9-5.4 0-9-.9-14.4-1.8-.9-.9-.9-1.8-6.3l-2.7-24.2s.9 0 .9-1.8c.9-1.8-.9-7.2-.9-8.1-.9-.9-3.6-5.4-3.6-7.2-3.6-4.5-5.4-9-8.1-14.4-1.8-3.6-.9-1.8 0-5.4.9-6.3-9-8.1-12.6-10.8-12.6-3.6-18.8-6.3-34.1-3.6-5.4.9-56.5 16.1-62.8 17-5.4.9-10.8 3.6-15.3 4.5-1.7-.7-13.3 2.9-16 4.7zm-27.8 75.3c.9 0 .9 0 .9.9l.9.9c-1.8-.9-.9 0-1.8-1.8zm.9-.8l-.9-.9c0-.9-.9 0-.9-.9v-3.6c.9-.9.9-.9.9-1.8h.9s0 .9.9.9l.9.9-.9.9c-.9 1.8.9 3.6-.9 5.4V346zm2.6-9.9v.9c-.9-.9-.9-.9 0-.9-1.8 0-2.7-.9-4.5 0 0-.9.9-.9.9-1.8 1.8 0 2.7.9 3.6 1.8zm22.5 16.1h-5.4c-3.6 0-3.6.9-5.4.9l-9-.9.9-3.6.9.9c.9 1.8.9.9 0 2.7.9-.9 0 .9.9-.9l.9-.9 1.8.9c-.9-.9-.9-.9-.9-1.8v-.9-4.4c-.9-.9 0 .9-.9-.9v-.9c0-.9 0-1.8.9-1.8h.9V337h-.9l-.9-.9.9-.9c.9-4.5 5.4-.9 5.4 1.8.9.9 0-.9 0 .9v.9c0 .9.9.9 2.7.9v-1.8-.9-.9l.9-.9c-3.6-5.4-.9-7.2-9.9-6.3l-1.8 3.6c-3.6.9-1.8-.9-3.6-1.8-.9-.9-.9-.9-4.5-.9-3.6 4.5-1.8 10.8-1.8 16.1l-13.5-5.4c-1.8-5.4-1.8-24.2-.9-30.5l15.3-1.8c.9 1.8.9 3.6 2.7 5.4 0 1.8 3.6 9.9 5.4 11.7h15.3c.9-2.7-.9-12.6-.9-15.3v-5.4c1.8-.9 5.4-.9 7.2-.9l.9 11.7c.9-.9.9 1.8.9-1.8l-.9-10.8c.9-.9 17.9-3.6 19.7-2.7.9-.9-.9-.9.9 0h.9l3.6-.9c.9-.9.9-.9 1.8-.9v1.8l.9 6.3.9 7.2.9 8.1c1.8.9 24.2 0 26.9-.9l-.9-23.3v-1.8l7.2-.9c.9-.9.9-.9 3.6-.9v3.6c0 .9 0 9 .9 10.8-.9 2.7 0 10.8.9 12.6.9.9 4.5 1.8 5.4 2.7 1.8.9 3.6.9 6.3 1.8l.9 20.6.9 10.8H320c-2.7-.9-1.8-3.6-1.8-6.3l-.9 1.8c-.9.9-.9-.9-1.8.9v-.9-.9-.9c0-1.8.9-5.4-.9-6.3l-.9-.9c-.9 1.8 0 0-.9 2.7v.9h.9c.9 2.7.9.9 0 2.7v1.8c-.9 0-.9.9-.9-.9h-.8-.9l-.9.9h-.9c.9.9 0 .9 1.8.9l-.9.9v.9c-.9-.9-.9.9-.9-.9l-.9.9-1.8.9h-.9c-.9-.9-.9-.9-.9-2.7h-.9v.9c-.9-2.7 0 0-1.8-2.7-.9-.9-.9-1.8-.9-2.7l-.9-5.4c0-1.8-.9-.9 0-2.7 0-.9.9-.9.9-2.7-1.8 0-2.7 0-2.7 1.8v-.9c.9-.9.9.9.9-1.8s-.9 0-.9-3.6c.9 0 .9.9 1.8.9h.9c0-2.7-.9-.9.9-.9 0-3.6-.9 1.8 0-.9.9-1.8.9-.9.9-2.7-5.4 0-.9.9-3.6 1.8 0-3.6 0-.9-.9-1.8-.9.9-.9 0-.9.9-.9 2.7-.9 4.5-.9 8.1v2.7c0-1.8.9-3.6-.9-4.5-.9 1.8 0 5.4 0 8.1 0 1.8.9 1.8.9 3.6s-.9 2.7.9 3.6c2.7-.9 0 0 .9-.9l.9-.9c0 .9-.9 1.8 0 3.6s-.9.9.9.9h-4.5c-.9-.9-.9-1.8-.9-2.7l-1.8-.9c-6.3 0-31.4-4.5-34.1-3.6-.9-.9-7.2-.9-12.6-1.8-3.6-.9-8.1-.9-11.7-.9v-3.6l-.9.9c-3.6 5.4 6.3 3.6 8.1 3.6 0 .9.9.9-1.8.9 3.6.9.9-.9 1.8.9m-21.5-29.7c.9.9.9 0 .9.9l1.8 3.6c-.9 0-.9-2.7-2.7-4.5zm15.3-12.5l-11.7.9c-3.6.9-3.6 0-3.6-.9 1.8 0 12.6-.9 14.4-1.8.9 0-.9 0 .9 1.8zm-19.7 2.7l-.9-.9c2.7-.9 0-.9.9.9zm167.7-44l11.7 17.9c.9.9.9-.9.9.9l-1.8-.9-3.6-.9c-9-3.6-31.4-2.7-41.3-1.8-.9-3.6-9-23.3-9-25.1 5.4-3.6 27.8.9 35 3.6 4.5 3.6 7.2 3.6 8.1 6.3zm15.3 53.8c-.9-.9-.9-.9-2.7-.9l-2.7-19.7h3.6l3.6 26.9c-1.8-.9-.9.9-.9-.9-1.8-1.8-1.8-3.6-.9-5.4zm-94.2 38.6c.9.9.9.9 1.8.9l1.8.9s.9.9-1.8.9c-.9 0-1.8-1.8-1.8-2.7-.9-1.8-.9 0 0 0zm97.8-15.2c.9.9.9.9.9 2.7v2.7c-2.7 0-.9-.9-1.8-2.7l.9-2.7h.9-.9zm-1.8 3.6c0 .9.9.9-.9.9h-2.7c-1.8 0-3.6.9-5.4 0v-.9h1.8c1.8 0 1.8 0 3.6-.9h-2.7c-.9-.9-.9 0-.9-.9h4.5c2.7.9 1.8 1.8 2.7 1.8zm.9-18.9l.9 3.6v.9h-9l-42.2 3.6v.9l.9 10.8.9 10.8c-.9-.9-1.8-23.3-1.8-26.9v-1.8l50.3-1.9zm-53.9 1.8c-.9 1.8 0 1.8 0 3.6-.9 5.4 1.8 15.3.9 20.6.9.9.9 2.7.9 4.5h-19.7v-2.7l-.9-18.8-.9-9.9c.9 0 3.6 0 4.5.9 3.6-.9 9 .9 12.6.9h2.7v.9zm44 14.4c2.7 0 6.3-.9 9-.9-.9.9-.9.9-3.6.9s-2.7 0-4.5.9h-.9v-.9zm-28.7 8.9c-1.8 0-.9.9-1.8-.9.9-.9 3.6-.9 5.4-.9l-3.6-.9c-.9 0-.9-.9-.9-.9-.9-.9-.9 0-.9-.9v-.9c1.8-.9 11.7-1.8 13.5-.9-.9.9.9 0-.9.9l-9 .9.9.9c2.7 0 6.3-.9 8.1.9l.9.9.9.9c-1.8-.9-9-.9-12.6.9zm-2.7-5.3v5.4h-3.6v-5.4h3.6zM322.7 293v-.9c0 .9.9 0 0 .9zm21.6-1.8c.8.9.8 0 0 0l-14.4 2.7c-2.7 0-3.6.9-4.5 0l18.9-2.7zm3.5 0c0-.9 0 0-.9-.9l-.9-.9h1.8c.9 1.8.9.9 0 1.8zm-73.5 23.4c.9 0 .9 0 0 0 .9.9.9 1.8.9 3.6.9 5.4 0 2.7.9 3.6l-.9-21.5c.9-.9 21.5-3.6 24.2-3.6l.9-.9c-1.8-.9-21.5 2.7-24.2 3.6l-.9.9.9 12.6v.9m116.6-16.3l.9 12.6.9 1.8h-3.6l-2.7-.9.9-1.8c-3.6-4.5-4.5-3.6-4.5-12.6l-.9-3.6c1.8 0 5.4-.9 7.2 0v2.7l1.8 1.8zM337.1 258c0 3.6 7.2 17.9 8.1 23.3-7.2 0-22.4-.9-27.8 0l.9-18.8 18.8-4.5zm-114.9 86.2c-.9-.9-.9.9-.9-.9.9.9.9-.9.9.9zm-.9-5.4c-1.8.9.9.9 0 0zm-2.7 5.4c-.9 0-.9 0 0 .9m76.3 6.2l1.8.9.9-.9-.9-2.7v2.7h-1.8z"/></g><g id="Слой_x0020_1_1_"><path d="M643.9 55.1l12 80.4h-21.4l-1.1-14.4h-7.5l-1.1 14.4h-21.6l10.6-80.4h30.1zm-11.1 51.7c-1-9.1-2-20.4-3.2-33.9-2.1 15.5-3.4 26.8-3.9 33.9h7.1zm26.7-51.7h20.8c6.6 0 11.6.5 14.9 1.5 3.4 1 6.1 3.1 8.2 6.2 2.1 3.1 3.1 8.2 3.1 15.1 0 4.7-.7 8-2.2 9.8-1.5 1.9-4.4 3.3-8.7 4.3 4.9 1.1 8.1 2.9 9.9 5.4 1.7 2.5 2.6 6.4 2.6 11.7v7.5c0 5.4-.6 9.5-1.9 12.1-1.2 2.6-3.2 4.4-5.9 5.4s-8.3 1.4-16.7 1.4h-24.1V55.1zm20.9 13.7v17.9h2c2 0 3.3-.5 3.8-1.5s.8-3.9.8-8.7c0-2.5-.2-4.3-.7-5.3-.4-1-1.1-1.6-1.8-1.9-.6-.3-2-.5-4.1-.5zm0 30.4v22.6c2.9-.1 4.7-.6 5.5-1.4.8-.8 1.2-2.9 1.2-6.1v-7.5c0-3.5-.4-5.5-1.1-6.3-.6-.8-2.5-1.2-5.6-1.3zm81.8 36.3h-17.5V98.9l-10.9 36.6h-18.2V55.1h17.5v36.3l11.7-36.3h17.4v80.4zm44.5-80.4l12 80.4h-21.4l-1.1-14.4h-7.5l-1.1 14.4H766l10.6-80.4h30.1zm-11.1 51.7c-1-9.1-2-20.4-3.2-33.9-2.1 15.5-3.4 26.8-3.9 33.9h7.1zm37.8 12.9v7.2c0 3.8-.4 6.9-1.3 9.3-.9 2.4-2.4 4.5-4.6 6.2-2.2 1.7-4.7 2.8-7.5 3.4V140c2-1.1 3.1-2.6 3.3-4.5H820v-15.7h13.4v-.1zm47-18.8c-4.4.1-6.6 2-6.6 5.7v21.2c0 2.8-.3 4.8-.9 6-.6 1.2-1.1 1.8-1.3 1.8h-17.3c1.5-2.2 2.2-5.3 2.2-9.6v-18.1c0-3.8 1.1-6.8 3.2-8.8 2.1-2 5.8-3.5 11-4.3v-.1c-9.4-.5-14.1-4.9-14.1-13.1v-17c0-4.2-.7-7.3-2.2-9.4h17.3c.5.2 1 .9 1.5 2.2.5 1.3.7 3.1.7 5.5v20c0 3.7 2.2 5.6 6.5 5.7V55.1h20.9v33.4c4.3-.1 6.5-2 6.5-5.7v-20c0-2.8.3-4.7.9-5.9.6-1.2 1.1-1.8 1.4-1.8h17.3c-1.5 2.1-2.2 5.2-2.2 9.4v17c0 8.2-4.7 12.6-14.2 13.1v.1c5.2.9 8.9 2.3 11 4.3 2.2 2 3.2 4.9 3.2 8.8v18.1c0 4.2.7 7.4 2.2 9.6h-17.3c-.5-.2-1.1-1-1.5-2.2-.5-1.3-.7-3.1-.7-5.5v-21.2c0-3.7-2.2-5.6-6.6-5.7v34.6h-20.9v-34.6zm152.2 48.4h-14.4v-13.8h-33.8v13.8H970v-30.6h4.3c2.2-6.6 4.1-15.3 5.6-26s2.2-22.5 2.2-35.2v-2.4h46.4v63.6h4.3l-.2 30.6zm-25.3-30.7V70.9h-6.2v.6c0 15.4-1.7 31.1-5 47.1h11.2zm42.8 1.1v7.2c0 3.8-.4 6.9-1.3 9.3-.9 2.4-2.4 4.5-4.6 6.2-2.2 1.7-4.7 2.8-7.5 3.4V140c2-1.1 3.1-2.6 3.3-4.5h-3.3v-15.7h13.4v-.1zm-82-66.2l-24 83.5h-15.2L953 53.5h15.1zM592.4 179.1l12 80.4H583l-1.1-14.4h-7.5l-1.1 14.4h-21.6l10.6-80.4h30.1zm-11.1 51.7c-1-9.1-2-20.4-3.2-33.9-2.1 15.5-3.4 26.8-3.9 33.9h7.1zm26.7-51.7h20.8c6.6 0 11.6.5 14.9 1.5 3.4 1 6.1 3.1 8.2 6.2 2.1 3.1 3.1 8.2 3.1 15.1 0 4.7-.7 8-2.2 9.8-1.5 1.9-4.4 3.3-8.7 4.3 4.9 1.1 8.1 2.9 9.9 5.4 1.7 2.5 2.6 6.4 2.6 11.7v7.5c0 5.4-.6 9.5-1.9 12.1-1.2 2.6-3.2 4.4-5.9 5.4s-8.3 1.4-16.7 1.4H608v-80.4zm20.9 13.7v17.9h2c2 0 3.3-.5 3.8-1.5.6-1 .8-3.9.8-8.7 0-2.5-.2-4.3-.7-5.3-.4-1-1.1-1.6-1.8-1.9-.5-.3-2-.4-4.1-.5zm0 30.4v22.6c2.9-.1 4.7-.6 5.5-1.4.8-.8 1.2-2.9 1.2-6.1v-7.5c0-3.5-.4-5.5-1.1-6.3-.7-.8-2.5-1.2-5.6-1.3zm77.3-44.1v16.1h-12.3v64.4H673v-64.4h-12.4v-16.1h45.6zm52.5 47.1c0 8.1-.2 13.8-.6 17.1-.4 3.4-1.5 6.4-3.5 9.2-2 2.8-4.7 4.9-8.1 6.4-3.4 1.5-7.4 2.2-11.9 2.2-4.3 0-8.2-.7-11.6-2.1-3.4-1.4-6.2-3.5-8.2-6.3-2.1-2.8-3.3-5.9-3.7-9.2-.4-3.3-.6-9.1-.6-17.4v-13.8c0-8.1.2-13.8.6-17.1.4-3.4 1.5-6.4 3.5-9.2 2-2.8 4.7-4.9 8.1-6.4 3.4-1.5 7.4-2.2 11.9-2.2 4.3 0 8.2.7 11.6 2.1 3.4 1.4 6.2 3.5 8.2 6.3 2.1 2.8 3.3 5.9 3.7 9.2.4 3.3.6 9.1.6 17.4v13.8zm-21-26.4c0-3.7-.2-6.1-.6-7.2-.4-1-1.2-1.5-2.5-1.5-1.1 0-1.9.4-2.4 1.3-.6.8-.8 3.3-.8 7.5v37.5c0 4.6.2 7.5.6 8.6.4 1.1 1.2 1.6 2.6 1.6 1.4 0 2.3-.6 2.7-1.9.4-1.3.6-4.2.6-9l-.2-36.9zm77.5 40.9c0 6-.8 10.3-2.3 12.9-1.5 2.6-3.9 4.2-7.1 4.9-3.2.7-8.2 1-15.1 1h-24.2v-80.4h41V193h-20v13.6h3.2c6.4 0 11.3.4 14.6 1.1s5.8 2.4 7.4 5.1c1.6 2.6 2.4 6.7 2.4 12.2l.1 15.7zm-20.9-2.4v-11.6c0-3.4-.3-5.4-1-6.2-.7-.7-2.6-1.1-5.8-1.2v26.4c2.7 0 4.5-.3 5.4-1 .9-.7 1.4-2.8 1.4-6.4zm69.7-59.2l-5.7 53.3c-.9 8.4-1.9 14.3-2.9 17.7-1 3.4-3 5.8-6 7.3-2.9 1.5-7.8 2.2-14.5 2.2h-12.2v-10.4h1.3c2.8 0 4.5-.2 5.1-.7.7-.4 1-1.1 1-2 0-.1-.4-2.3-1.2-6.8l-11-60.5h18.2l6.6 50.2 3.1-50.2 18.2-.1zm53 35.1h-20.9v-13.9c0-4.1-.2-6.6-.7-7.6-.4-1-1.4-1.5-2.9-1.5-1.7 0-2.8.6-3.2 1.8-.4 1.2-.7 3.9-.7 8v37.3c0 3.9.2 6.4.7 7.7.4 1.2 1.5 1.8 3.1 1.8 1.5 0 2.6-.6 3-1.8.5-1.2.7-4 .7-8.4v-10.1H917v3.1c0 8.4-.6 14.2-1.8 17.7-1.2 3.5-3.8 6.5-7.8 9.2-4 2.6-9 3.9-14.9 3.9-6.1 0-11.2-1.1-15.2-3.3-4-2.2-6.6-5.3-7.9-9.2-1.3-3.9-1.9-9.8-1.9-17.7v-23.5c0-5.8.2-10.1.6-13 .4-2.9 1.6-5.7 3.5-8.4 2-2.7 4.7-4.8 8.2-6.3 3.5-1.5 7.5-2.3 12-2.3 6.2 0 11.2 1.2 15.3 3.6 4 2.4 6.6 5.3 7.9 8.9 1.3 3.5 1.9 9.1 1.9 16.6l.1 7.4zm55.5-35.1v80.4h-20.9v-33.8h-6.1v33.8h-20.9v-80.4h20.9v28.8h6.1v-28.8h20.9zm57.2 61.6c0 6-.8 10.3-2.3 12.9-1.5 2.6-3.9 4.2-7.1 4.9-3.2.7-8.2 1-15.1 1H981v-80.4h20.9v27.5h3.2c6.4 0 11.3.4 14.6 1.1s5.8 2.4 7.4 5.1c1.6 2.6 2.4 6.7 2.4 12.2l.2 15.7zm-20.9-2.4v-11.6c0-3.4-.3-5.4-1-6.2-.7-.7-2.6-1.1-5.8-1.2v26.4c2.7 0 4.5-.3 5.4-1 .9-.7 1.4-2.8 1.4-6.4zm48.9 21.2h-20.9v-80.4h20.9v80.4zm7.7-80.4h34.9v16.1h-13.9v15.3h13v15.3h-13v17.7h15.3v16.1h-36.3v-80.5zM708.7 364.8c0 6-.8 10.3-2.3 12.9-1.5 2.6-3.9 4.2-7.1 4.9-3.2.7-8.2 1-15.1 1H660v-80.4h41v13.9h-20v13.6h3.2c6.4 0 11.3.4 14.6 1.1 3.3.8 5.8 2.4 7.4 5.1 1.6 2.6 2.4 6.7 2.4 12.2l.1 15.7zm-20.9-2.5v-11.6c0-3.4-.3-5.4-1-6.2-.7-.7-2.6-1.1-5.8-1.2v26.4c2.7 0 4.5-.3 5.4-1 .9-.6 1.4-2.8 1.4-6.4zm74.9 21.3h-17.5V347l-10.9 36.6h-18.2v-80.4h17.5v36.3l11.7-36.3h17.4v80.4zm59.4 0h-20.9v-64.4h-6.1v45.6c0 6-.8 10.3-2.3 12.9-1.5 2.6-3.9 4.2-7 4.9-3.1.7-8.2 1-15 1h-3.3v-13.8c2.6 0 4.3-.3 5.3-.9 1-.6 1.4-2.8 1.4-6.4v-59.2h48l-.1 80.3zm8.4-80.5h34.9v16.1h-13.9v15.3h13v15.3h-13v17.7h15.3v16.1h-36.3v-80.5zm84.3 0v16.1h-12.3v64.4h-20.9v-64.4h-12.4v-16.1h45.6zm53.5 61.7c0 6-.8 10.3-2.3 12.9-1.5 2.6-3.9 4.2-7.1 4.9-3.2.7-8.2 1-15.1 1h-24.2v-80.4h20.9v27.6h3.2c6.4 0 11.3.4 14.6 1.1 3.3.8 5.8 2.4 7.4 5.1 1.6 2.6 2.4 6.7 2.4 12.2l.2 15.6zm-20.9-2.5v-11.6c0-3.4-.3-5.4-1-6.2-.7-.7-2.6-1.1-5.8-1.2v26.4c2.7 0 4.5-.3 5.4-1 .9-.6 1.4-2.8 1.4-6.4zm49 21.3h-20.9v-80.4h20.9v80.4z" fill="#1b4e7e" id="_155204320"/></g></svg>