<svg id="Layer_1" data-name="Layer 1" xmlns="http://www.w3.org/2000/svg" viewBox="0 0 592.19 224.83" height="100px"><defs><style>.cls-1{fill:#2e3192}.cls-6{fill:#ed1c24}</style><linearGradient id="linear-gradient" x1="706.68" y1="355.33" x2="815.59" y2="355.33" gradientUnits="userSpaceOnUse"><stop offset="0" stop-color="#88171a"/><stop offset=".45" stop-color="#db1f26"/><stop offset="1" stop-color="#f1564b"/></linearGradient><linearGradient id="linear-gradient-2" x1="706.68" y1="317.59" x2="815.59" y2="317.59" gradientUnits="userSpaceOnUse"><stop offset="0" stop-color="#f1564b"/><stop offset=".55" stop-color="#db1f26"/><stop offset="1" stop-color="#88171a"/></linearGradient><linearGradient id="linear-gradient-3" x1="807.69" y1="292.2" x2="856.58" y2="426.52" gradientUnits="userSpaceOnUse"><stop offset=".13" stop-color="#ed1c24"/><stop offset=".21" stop-color="#cb2038"/><stop offset=".57" stop-color="#2e3192"/></linearGradient></defs><path class="cls-1" d="M317.28 500.89a.4.4 0 0 1-.33-.18l-6.57-9.9v16.27a.38.38 0 0 1-.39.4h-1a.39.39 0 0 1-.39-.4v-18.42a.39.39 0 0 1 .39-.4h1.39a.44.44 0 0 1 .33.16l7.12 10.77 7.17-10.77a.37.37 0 0 1 .33-.16h1.39a.39.39 0 0 1 .39.4v18.42a.39.39 0 0 1-.39.4h-1a.38.38 0 0 1-.39-.4v-16.27l-6.56 9.9a.38.38 0 0 1-.32.18zM336.54 488.26a.39.39 0 0 1 .4.4v6.77h4c4 0 6.42 2.4 6.42 6s-2.43 6-6.42 6h-5.4a.39.39 0 0 1-.4-.4v-18.37a.39.39 0 0 1 .4-.4zm4.24 8.7h-3.84v9h3.84c3.16 0 4.78-1.74 4.78-4.48s-1.62-4.48-4.78-4.48zm10.2-8.7a.39.39 0 0 1 .4.4v18.42a.39.39 0 0 1-.4.4h-1a.39.39 0 0 1-.4-.4v-18.42a.39.39 0 0 1 .4-.4zM372.82 497a.4.4 0 0 1 .38-.4c4-.15 7.06-1.48 7.06-4.05 0-1.79-1.58-3.05-4.95-3.05a11.74 11.74 0 0 0-4.23.82.39.39 0 0 1-.55-.34l-.09-.86a.45.45 0 0 1 .27-.42 14.14 14.14 0 0 1 4.69-.79c4.09 0 6.68 1.8 6.68 4.5s-2.42 4.4-5.31 5c3.37.64 5.55 2.37 5.55 5.22 0 3.13-2.92 5.19-7.25 5.19a14.74 14.74 0 0 1-4.79-.73.4.4 0 0 1-.25-.39l.08-.9a.38.38 0 0 1 .53-.31 12.82 12.82 0 0 0 4.39.74c3.38 0 5.48-1.48 5.48-3.65 0-2.75-2.77-4.16-7.32-4.33a.4.4 0 0 1-.37-.4zM396.68 488.26a.42.42 0 0 1 .39.29l7.29 18.4c.11.27 0 .53-.32.53h-1.12a.37.37 0 0 1-.37-.26l-1.93-5h-9.31l-1.92 5a.37.37 0 0 1-.37.26h-1.1a.36.36 0 0 1-.34-.53l7.29-18.4a.41.41 0 0 1 .38-.29zm-4.76 12.44H400l-4-10.49zM410.57 488.66a.39.39 0 0 1 .4-.4h6c3.86 0 6.22 2.06 6.22 5a4.1 4.1 0 0 1-2.58 4.14 4.66 4.66 0 0 1 3.57 4.75c0 3.35-2.5 5.35-7 5.35H411a.39.39 0 0 1-.4-.4zm6.16 1.14h-4.4v6.94h4.2c3.27 0 4.81-1 4.81-3.46 0-2.17-1.65-3.48-4.61-3.48zm0 8.48h-4.37V506H417c3.55 0 5.33-1.32 5.33-3.82-.03-2.83-1.92-3.9-5.63-3.9zM438.55 507.81c-5.3 0-8.4-4.31-8.4-9.94s3.1-9.94 8.4-9.94 8.41 4.31 8.41 9.94-3.11 9.94-8.41 9.94zm0-18.29c-4.09 0-6.59 3.38-6.59 8.35s2.5 8.35 6.59 8.35 6.6-3.38 6.6-8.35-2.5-8.35-6.6-8.35zM454.06 488.66a.38.38 0 0 1 .4-.4h10.85a.39.39 0 0 1 .4.4v.74a.39.39 0 0 1-.4.4h-9.49v7h8.8a.4.4 0 0 1 .4.4v.74a.4.4 0 0 1-.4.4h-8.8V506h9.74a.39.39 0 0 1 .4.39v.74a.39.39 0 0 1-.4.4h-11.1a.38.38 0 0 1-.4-.4zM472.93 488.66a.39.39 0 0 1 .39-.4h6c3.86 0 6.23 2.06 6.23 5a4.1 4.1 0 0 1-2.59 4.14 4.66 4.66 0 0 1 3.57 4.75c0 3.35-2.49 5.35-7 5.35h-6.21a.39.39 0 0 1-.39-.4zm6.15 1.14h-4.4v6.94h4.21c3.26 0 4.8-1 4.8-3.46 0-2.17-1.64-3.48-4.61-3.48zm0 8.48h-4.37V506h4.65c3.54 0 5.32-1.32 5.32-3.82-.03-2.83-1.92-3.9-5.63-3.9zM500.71 488.26a.41.41 0 0 1 .39.29l7.29 18.4c.11.27 0 .53-.31.53H507a.37.37 0 0 1-.37-.26l-1.92-5h-9.31l-1.93 5a.37.37 0 0 1-.37.26H492a.36.36 0 0 1-.34-.53l7.29-18.4a.41.41 0 0 1 .39-.29zM496 500.7h8.1l-4.1-10.49zM518.86 503.25c0 3.22-1.55 4.56-4.36 4.56a8.06 8.06 0 0 1-1.45-.13.44.44 0 0 1-.33-.44l.07-.8a.4.4 0 0 1 .47-.34 6.44 6.44 0 0 0 1.21.12c1.81 0 2.64-.93 2.64-3.43v-14.13a.37.37 0 0 1 .38-.4h11.08a.39.39 0 0 1 .4.4v18.42a.4.4 0 0 1-.41.4h-.95a.39.39 0 0 1-.4-.4V489.8h-8.35zM551.76 507.08a.39.39 0 0 1-.4.4h-1a.39.39 0 0 1-.4-.4v-16.52l-10.66 16.73a.37.37 0 0 1-.34.19h-1.54a.37.37 0 0 1-.38-.4v-18.42a.37.37 0 0 1 .38-.4h1a.38.38 0 0 1 .4.4v16.52l10.67-16.73a.38.38 0 0 1 .34-.19h1.55a.39.39 0 0 1 .4.4zM580.28 500.89a.41.41 0 0 1-.33-.18l-6.56-9.9v16.27a.39.39 0 0 1-.4.4h-1a.39.39 0 0 1-.4-.4v-18.42a.39.39 0 0 1 .4-.4h1.39a.46.46 0 0 1 .33.16l7.11 10.77 7.18-10.77a.35.35 0 0 1 .32-.16h1.39a.39.39 0 0 1 .4.4v18.42a.39.39 0 0 1-.4.4h-1a.39.39 0 0 1-.4-.4v-16.27l-6.55 9.9a.4.4 0 0 1-.33.18zM612.88 507.08a.39.39 0 0 1-.4.4h-1a.39.39 0 0 1-.4-.4v-16.52l-10.67 16.73a.37.37 0 0 1-.34.19h-1.54a.37.37 0 0 1-.38-.4v-18.42a.37.37 0 0 1 .38-.4h1a.38.38 0 0 1 .39.4v16.52l10.67-16.73a.39.39 0 0 1 .35-.19h1.55a.39.39 0 0 1 .4.4zM625.2 503.25c0 3.22-1.55 4.56-4.36 4.56a8.06 8.06 0 0 1-1.45-.13.44.44 0 0 1-.33-.44l.07-.8a.4.4 0 0 1 .47-.34 6.36 6.36 0 0 0 1.21.12c1.81 0 2.63-.93 2.63-3.43v-14.13a.38.38 0 0 1 .39-.4h11.08a.39.39 0 0 1 .4.4v18.42a.4.4 0 0 1-.41.4h-.9a.39.39 0 0 1-.4-.4V489.8h-8.4zM647.63 503.25c0 3.22-1.55 4.56-4.36 4.56a8.06 8.06 0 0 1-1.45-.13.42.42 0 0 1-.32-.44l.06-.8a.4.4 0 0 1 .47-.34 6.44 6.44 0 0 0 1.21.12c1.81 0 2.64-.93 2.64-3.43v-14.13a.37.37 0 0 1 .38-.4h11.08a.39.39 0 0 1 .4.4v18.42a.4.4 0 0 1-.41.4h-1a.39.39 0 0 1-.4-.4V489.8h-8.35zM680.53 507.08a.39.39 0 0 1-.4.4h-1a.39.39 0 0 1-.4-.4v-16.52l-10.67 16.73a.37.37 0 0 1-.34.19h-1.54a.37.37 0 0 1-.38-.4v-18.42a.37.37 0 0 1 .38-.4h1a.38.38 0 0 1 .4.4v16.52l10.67-16.73a.39.39 0 0 1 .34-.19h1.55a.39.39 0 0 1 .4.4zM696 507.81c-5.3 0-8.4-4.31-8.4-9.94s3.1-9.94 8.4-9.94 8.4 4.31 8.4 9.94-3.06 9.94-8.4 9.94zm0-18.29c-4.09 0-6.59 3.38-6.59 8.35s2.5 8.35 6.59 8.35 6.59-3.38 6.59-8.35-2.46-8.35-6.59-8.35zM711.55 488.66a.39.39 0 0 1 .4-.4h1a.39.39 0 0 1 .4.4v7.81h11v-7.81a.39.39 0 0 1 .4-.4h1a.39.39 0 0 1 .4.4v18.42a.39.39 0 0 1-.4.4h-1a.39.39 0 0 1-.4-.4V498h-11v9.07a.39.39 0 0 1-.4.4h-1a.39.39 0 0 1-.4-.4zM735.54 488.26a.38.38 0 0 1 .39.4v6.77h4c4 0 6.43 2.4 6.43 6s-2.43 6-6.43 6h-5.39a.39.39 0 0 1-.4-.4v-18.37a.39.39 0 0 1 .4-.4zm4.24 8.7h-3.85v9h3.85c3.16 0 4.78-1.74 4.78-4.48s-1.62-4.48-4.78-4.48zm10.2-8.7a.39.39 0 0 1 .4.4v18.42a.39.39 0 0 1-.4.4h-1a.39.39 0 0 1-.4-.4v-18.42a.39.39 0 0 1 .4-.4zM783.3 489l-.07.85a.39.39 0 0 1-.59.29 8.64 8.64 0 0 0-3.39-.66c-5.14 0-8.15 3.38-8.15 8.35s3.12 8.35 8.22 8.35a8.44 8.44 0 0 0 3.4-.69c.28-.12.57 0 .59.29l.07.85a.44.44 0 0 1-.31.47 10.76 10.76 0 0 1-3.84.67c-6.08 0-9.94-4-9.94-9.94s3.86-9.94 9.89-9.94a10.89 10.89 0 0 1 3.8.64.45.45 0 0 1 .32.47zM790.38 488.66a.38.38 0 0 1 .4-.4h10.85a.38.38 0 0 1 .39.4v.74a.39.39 0 0 1-.39.4h-9.49v7h8.8a.4.4 0 0 1 .4.4v.74a.4.4 0 0 1-.4.4h-8.8V506h9.73a.39.39 0 0 1 .4.39v.74a.39.39 0 0 1-.4.4h-11.09a.38.38 0 0 1-.4-.4zM814.76 500H811v7.09a.38.38 0 0 1-.4.4h-1a.38.38 0 0 1-.39-.4v-18.43a.38.38 0 0 1 .39-.4h5.13c4.4 0 7.22 2.08 7.22 5.85s-2.79 5.89-7.19 5.89zm-.16-10.19H811v8.65h3.6c3.62 0 5.57-1.35 5.57-4.34s-1.95-4.32-5.57-4.32zM840.33 509.85a.38.38 0 0 1-.4.38H839a.37.37 0 0 1-.39-.38v-2.37h-12.43v2.37a.38.38 0 0 1-.4.38h-1a.38.38 0 0 1-.4-.38v-3.51a.39.39 0 0 1 .4-.39h1a35.42 35.42 0 0 0 4.52-17.31.38.38 0 0 1 .39-.38h7.11a.38.38 0 0 1 .4.4V506h1.69a.39.39 0 0 1 .4.39zm-3.85-3.9V489.8h-4.37a38.87 38.87 0 0 1-4.23 16.2zM846.75 488.66a.38.38 0 0 1 .4-.4H858a.39.39 0 0 1 .4.4v.74a.39.39 0 0 1-.4.4h-9.5v7h8.81a.4.4 0 0 1 .4.4v.74a.4.4 0 0 1-.4.4h-8.81V506h9.74a.39.39 0 0 1 .4.39v.74a.39.39 0 0 1-.4.4h-11.09a.38.38 0 0 1-.4-.4zM878.35 506v-17.34a.38.38 0 0 1 .4-.4h1a.37.37 0 0 1 .38.4v17.26h1.42a.38.38 0 0 1 .39.4v3.85a.38.38 0 0 1-.39.39h-1a.38.38 0 0 1-.39-.39v-2.69H866a.37.37 0 0 1-.38-.4v-18.42a.37.37 0 0 1 .38-.4h1a.38.38 0 0 1 .4.4V506z" transform="translate(-299.18 -285.73)"/><path id="_Контур_" data-name="&lt;Контур&gt;" fill="none" stroke="#58595b" stroke-miterlimit="10" stroke-width=".68" d="M363.31 1.28v169.14"/><path id="_Контур_2" data-name="&lt;Контур&gt;" d="M809.17 308.14a55 55 0 0 0-13.69-12.43c-10.07-6.6-22.33-9.94-36.46-9.94-14.73 0-27.24 4.66-37.17 13.84s-15.14 21.08-15.14 35.05a57.64 57.64 0 0 0 10.18 32.6c5.76 8.47 16 19.35 31.34 33.28L772 422.85A10.45 10.45 0 0 0 785.53 407c-12.36-11.18-10.47-9.53-22.83-20.71-12.86-11.53-21.87-21.26-26.78-28.91-4.64-7.23-7-14.64-7-22 0-8.68 3-15.56 9-21a31.72 31.72 0 0 1 22.19-8.33 41.55 41.55 0 0 1 23.3 6.7 67.14 67.14 0 0 1 13 12.28h-.09a21.32 21.32 0 0 1 2.58 21.88 17.16 17.16 0 0 0 12.1-5.99c3.92-4.26 8.77-20.34-1.83-32.78z" transform="translate(-299.18 -285.73)" fill="url(#linear-gradient)"/><path id="_Контур_3" data-name="&lt;Контур&gt;" d="M708.64 349.44a46.74 46.74 0 0 1 8.06-22.92c14.3-20.52 40.58-20.62 43.43-20.59a41.55 41.55 0 0 1 23.3 6.7 67.14 67.14 0 0 1 13 12.28h-.09a21.32 21.32 0 0 1 2.58 21.88 17.16 17.16 0 0 0 12.08-5.87c3.91-4.26 8.76-20.34-1.84-32.78a55 55 0 0 0-13.69-12.43c-10.07-6.6-22.33-9.94-36.46-9.94-14.73 0-27.24 4.66-37.17 13.84s-15.14 21.08-15.14 35.05a56.5 56.5 0 0 0 2 14.82z" transform="translate(-299.18 -285.73)" fill="url(#linear-gradient-2)"/><path d="M876.24 299.57c-9.94-9.18-22.45-13.84-37.18-13.84H839c-14.13 0-26.39 3.34-36.46 9.94a66.7 66.7 0 0 0-6.86 5.19c-.6.52-1.14 1-1.63 1.49l-.07.07a72 72 0 0 0-5.1 5.65c-10.61 12.44-5.76 28.52-1.84 32.78a17.15 17.15 0 0 0 12.13 5.85 21.77 21.77 0 0 1-1.57-12.55 21.46 21.46 0 0 1 4.15-9.33 67.26 67.26 0 0 1 12.94-12.26 41.55 41.55 0 0 1 23.3-6.7 31.72 31.72 0 0 1 22.19 8.33c6.06 5.48 9 12.36 9 21 0 7.39-2.35 14.8-7 22-4.91 7.65-13.92 17.38-26.78 28.91l-43 42.81-.09.09a10.26 10.26 0 0 0 14.43 14.58l.09-.08a1.21 1.21 0 0 1 .16-.16l43-43c15.34-13.93 25.58-24.81 31.34-33.28a57.64 57.64 0 0 0 10.18-32.6c-.14-13.81-5.23-25.6-15.27-34.89z" transform="translate(-299.18 -285.73)" fill="url(#linear-gradient-3)"/><path class="cls-6" d="M497.61 371.39a41.37 41.37 0 0 0 13.19 2.08 42.52 42.52 0 0 0 13.25-2.08 39.62 39.62 0 0 0 8.93-4.15 42.1 42.1 0 0 0 15.43-16.32l1.59-3-14.87-8.41-1.71 3.24a25.26 25.26 0 0 1-9.34 10 26.06 26.06 0 0 1-24.93.93L536 321.23l12.46-11-1.58-2.55a41.87 41.87 0 0 0-15.15-14.05 40.83 40.83 0 0 0-14.34-5 37.9 37.9 0 0 0-6.54-.53c-1.13 0-2.23 0-3.32.12a42.89 42.89 0 0 0-39.36 42.57 41 41 0 0 0 4.39 18.8 45.64 45.64 0 0 0 8.25 11.25 42 42 0 0 0 16.85 10.56m-12.16-44.62a24.16 24.16 0 0 1 7.07-14.2c.7-.69 1.42-1.35 2.15-1.95a24.47 24.47 0 0 1 16-5.45 24.85 24.85 0 0 1 13.45 3.74l-36.68 32.58a25.51 25.51 0 0 1-2.27-10.72 26.08 26.08 0 0 1 .28-4M341.91 288.12a41.24 41.24 0 0 0-28.1 10.64c-.65.57-1.3 1.18-1.95 1.79a41.07 41.07 0 0 0-12.68 30.25c0 11.74 4.39 21.76 12.64 30.05a41.74 41.74 0 0 0 19.58 11.38 45.21 45.21 0 0 0 10.51 1.25 42.48 42.48 0 0 0 10.55-1.25c1-.21 1.87-.49 2.78-.78.35-.13.72-.25 1.09-.4a41.79 41.79 0 0 0 13.85-8.37l13.16 9.55 1.2.89v-85.05l-14.4 10.85a41.06 41.06 0 0 0-28.27-10.8M360.06 349a24.63 24.63 0 0 1-13.6 7.09 25.79 25.79 0 0 1-4.55.38 25.78 25.78 0 0 1-19.45-42.52c.37-.46.77-.89 1.22-1.35a25.73 25.73 0 0 1 36.38 36.4M443.21 373.34h17.08v-50.13a32.63 32.63 0 0 0-33.11-33.08 31.39 31.39 0 0 0-21.2 7.72l-11.88-9.63v85.12h17.08v-50.13a15.93 15.93 0 0 1 16-16 15.71 15.71 0 0 1 11.41 4.52 15.25 15.25 0 0 1 4.62 11.5z" transform="translate(-299.18 -285.73)"/><path class="cls-6" d="M322.23 87.7l-27.65-48.69 20.76-36.63h-20.21l-10.74 18.93-10.75-18.93H253.4l20.96 36.65L246.5 87.7h20.24l17.65-30.98L302 87.7h20.23z"/><path class="cls-1" d="M460.3 402.51V385.8l-12.06 5.26v11.48h-9v11.32h9V436.42a21.76 21.76 0 0 0 6.5 16c.27.26.56.5.83.76l2.13 1.92 7.66-9.6-1.89-1.69-.07-.07a9.6 9.6 0 0 1-3.1-7.32v-22.56h8.85v-11.32h-8.85z" transform="translate(-299.18 -285.73)"/><path class="cls-6" d="M503.36 395.37c-.19-.23-.3 0-.38.29.7.37-.21-.12.38-.29M506.29 395.91c0-.05.09-.05.14-.09s-.12 0-.14.09M508.49 451.79a1.24 1.24 0 0 0-.22.18c.1 0 .14-.07.24-.18" transform="translate(-299.18 -285.73)"/><path class="cls-6" d="M531.56 419.38l.58-.22a24.25 24.25 0 0 1-.93-3.37 6.1 6.1 0 0 0-1.65-3 4.13 4.13 0 0 0-.33-2.19c-.8-.51-.88-.8-1.86-.89-.18-.22.15-.61.28-.81-.34-.94-.16-2.25-1.44-2.35l.41-.34c-.9-.36-2.07-.83-2.19-1.88-.51.12-1.23-.41-1.4.28-.32-.16.48-.74-.16-.62l.77-.28a10.81 10.81 0 0 0-4.43-3.24c.08-1.05-1.51-1-2.17-1.93-.78.09-1.43-1-2.33-.24l.19-.49c-.73-.42-1.76-.87-2.72-1.47-.58-.34-.81.39-1.37.51l.12-.51c-.59.16-.92.83-1.22 1.29 0-.05-.09-.05-.15-.05-.22-.22-.36 0-.63-.41a3.7 3.7 0 0 0 1.33-1.26c-.61-.39-1.54.76-1.78-.11a.71.71 0 0 0-1.16.53c.16-.21-.3-.46.06-.72a1.11 1.11 0 0 0-.93.24.65.65 0 0 0 .23.09c-.24.43-.55.46-.63 1a1.54 1.54 0 0 0-.49-.05c0-.45.5-.72.25-1.05-.35.34-.67.68-1 1a12.26 12.26 0 0 0-1.82-.09 25.42 25.42 0 0 0-7.8 1.18 5.39 5.39 0 0 1 2.64-.78 4.27 4.27 0 0 0 3.12-1.28c1.5-.6 2-2.74 2-2.74a43.56 43.56 0 0 1-5.89.67 56.29 56.29 0 0 0-6.19.55 27.24 27.24 0 0 1-4 2.31c-1.14.8-2.28 1.54-3.4 2.36l-.85.6-.86.64-.35.25-.09.08-.2.16-.81.67a17 17 0 0 0-5.11 6.89c.4-.15.6.34.58.64h-.24l.28.63c-.13.41-.67-.05-.59-.41a41.52 41.52 0 0 0-2.08 6.24c.74.31-.19 1.13.6 1.36-.17.06-.19 0-.33-.13.14 1.57.18 1.63-1 2.92q-.11.54-.18 1.08c-.05.36-.1.81-.13 1.14V424a24.2 24.2 0 0 0 .48 4.41 33.93 33.93 0 0 0 3 8.44 26.49 26.49 0 0 0 5.66 6.83 37.9 37.9 0 0 0 7.19 5 2.59 2.59 0 0 1 1.81-.07 2.89 2.89 0 0 0 1.83-.06l-.22.33c1-.17 1 .53 1.9 1.36.15-.42.44 0 .53-.72.54-.49.33 1.2 1 1.05-.07.26.09-.43.15-.17.82-.25.71-.16.62.12s-.19.79.66 1.34c2.7.32 5.42-.27 7.84.08-.16 0-.24-.54 0-.57.29 1.19.8-.36 1.26.08 0 .24-.2.34-.31.45 1.19.42 2-.43 3.18-.09a2.33 2.33 0 0 1 1.43-.33c.59 0 1.15 0 1.42-.42 0 .52.56.22.85.37.14-.79.66-.83 1.23-.84s1.2 0 1.44-.65l.07.24a33.81 33.81 0 0 0 3.92-2.1 12.46 12.46 0 0 0 3.33-3 10 10 0 0 1 2.16-1.47 4.23 4.23 0 0 0 1.87-2c.07-.38-.34-.37-.27-.67.29-.33.34.29.57.25.11-1 1.37-1.56 2-2.55-.12-.23 0-.53-.35-.62a2.45 2.45 0 0 0 1.31-1.68 3.78 3.78 0 0 1 1-1.89c-1.3-.09-.31-1-.41-1.47.14-.22.46-.13.65 0a5.74 5.74 0 0 1 1-2.43c0-.55-.61-.85-.29-1.41.94-.2.3-1.28.71-1.82a.91.91 0 0 1-.83-1.35l1 .3c-.42-2 .82-4.76-.71-6.92m-54 7.72v-.06a1.37 1.37 0 0 0 0 .34.2.2 0 0 1-.07-.28m28.92-30.18v.07a.38.38 0 0 0-.24 0 .27.27 0 0 1 .29 0m-3.06 8.04a18.82 18.82 0 0 1 11.61 4.5l.11.11a18.84 18.84 0 0 1 6.55 14.29 18.28 18.28 0 0 1-.21 2.68v.15c-.1.63-.22 1.25-.38 1.86 0 .1 0 .21-.08.31a1.94 1.94 0 0 1-.05.2v.11a19.5 19.5 0 0 1-1.22 3.11c-.06.1-.1.2-.15.3a1.51 1.51 0 0 0-.09.18c-.32.59-.66 1.16-1 1.71s-.66.92-1 1.36l-.29.33-.29.32c-.39.44-.81.86-1.24 1.26l-.37.33-.22.21-.19.16a18.93 18.93 0 0 1-25.47-28l.09-.09a19.1 19.1 0 0 1 5.23-3.64c.41-.2.82-.38 1.24-.54s.86-.33 1.29-.47l.88-.22.3-.08a19.16 19.16 0 0 1 4.38-.52h.67m-9.73-7.18c.31-.29.44.17.56.44-.44.12-.9.29-1.31.44h-.06a5.19 5.19 0 0 0 .84-.91m-11.39 8.11c.18 0 .2.19.3.34 0-.7.58-1 1-1.27a1.08 1.08 0 0 0 .53-1.48l-.26-.69c.37 0 .7.37 1 .4-.14-.48.67-.77.38-1.32.27.14.2.32.33.46.47-.22.29-1.37.84-1.51l.07.35c1.24-.32 2.56-.65 3.75-1.08 0 0 0 .05-.08.05h-.09s0 .06-.09.06a22.94 22.94 0 0 0-5.34 4.07 25.82 25.82 0 0 0-2.87 3.32 7.66 7.66 0 0 0 .58-1.73m-2.7 5.2a.14.14 0 0 0-.09.16 1.05 1.05 0 0 0-.29-.31.91.91 0 0 1 .38.15m-2.16 6.41a.66.66 0 0 0-.08.4v-.39h.12m-.29 8.09a1 1 0 0 0 .09.53v.06a3.1 3.1 0 0 0-.25-.54.54.54 0 0 0 .15-.09m.08 2.4a.94.94 0 0 1 .28-.06.45.45 0 0 0 0 .23 1.36 1.36 0 0 0-.32-.2m.79 2.56h.19a.71.71 0 0 0 .17.37c-.26 0-.5.06-.36-.4m.36.71H478.88l-.12-.07m2.16 4.6c-.18-.18-.17-.32-.09-.44a2.24 2.24 0 0 0 .22.38l-.14.05m1.9 3.64c0-.28-.81-.65-1-.83.3-.41.11.19.46 0l.2-.67a.22.22 0 0 0 .17 0v.05a13.18 13.18 0 0 0 1.11 1.31 7 7 0 0 1-1 .1m1.58.86c.07 0 .13 0 .2-.11a.11.11 0 0 0 0 .06z" transform="translate(-299.18 -285.73)"/><path class="cls-6" d="M530.78 433.09a.73.73 0 0 0-.09-.08c0 .12 0 .22-.07.35zM504.12 395.3a6.63 6.63 0 0 0 .17 1.22c.35-.54-.05-.8-.17-1.22" transform="translate(-299.18 -285.73)"/><path d="M498.58 405.46l-.3.08-.88.22c-.43.14-.86.3-1.29.47s-.83.34-1.24.54a18.92 18.92 0 0 0-5.23 3.65l-.09.08a18.94 18.94 0 0 0 25.47 28l.19-.18.22-.2c.13-.1.25-.22.37-.33a16.54 16.54 0 0 0 1.24-1.27l.29-.31.29-.33c.36-.44.7-.89 1-1.36s.71-1.12 1-1.71l.08-.18c0-.1.1-.2.14-.3a18.63 18.63 0 0 0 1.23-3.11v-.11a1.46 1.46 0 0 0 .05-.2c0-.1.06-.21.08-.31a18.75 18.75 0 0 0 .38-1.87v-.14a19.77 19.77 0 0 0 .21-2.68 18.84 18.84 0 0 0-6.55-14.29l-.11-.11a18.82 18.82 0 0 0-11.6-4.51h-.68a19.16 19.16 0 0 0-4.38.52" transform="translate(-299.18 -285.73)" fill="#f7941d"/><path class="cls-1" d="M612 393.93a22.11 22.11 0 0 0-14.93 5.44l-8.38-6.78v60h12v-35.36A11.23 11.23 0 0 1 612 406a11.81 11.81 0 0 1 4 .68l5.5-10.8a23.76 23.76 0 0 0-9.5-1.95zM548.26 393.7h-12V429a23 23 0 0 0 23.32 23.29 22.12 22.12 0 0 0 14.93-5.43l8.37 6.78V393.7h-12V429a11.22 11.22 0 0 1-11.27 11.27 11.08 11.08 0 0 1-8-3.18 10.75 10.75 0 0 1-3.25-8.09z" transform="translate(-299.18 -285.73)"/></svg>