<svg id="Слой_1" xmlns="http://www.w3.org/2000/svg" viewBox="0 0 1028.6 363.4"><style>.st0{fill:#004d81}</style><g id="Слой_x0020_1"><g id="_155205520"><path class="st0" d="M181.7 5c97.6 0 176.7 79.1 176.7 176.7s-79.1 176.7-176.7 176.7S5 279.3 5 181.7 84.1 5 181.7 5z"/><path d="M292.2 319.6c-30.3 24.3-68.7 38.8-110.5 38.8h-3.4c-29.6-.7-64.4-10.5-90.6-27h-.1l-.9-2.7s-12-36-16.4-53.2c-4.4-17.2-3.8-35.5-3.8-35.5s-6.9 4.4-14.5 10.5-11.2 13.2-11.2 13.2 1.1-12.3 7.9-20.8c6.8-8.5 10.5-9.3 10.5-9.3L45 231l-.9-5.2-1.5 4.2-18.9-.7s6.1-8.3 13.6-12.3 18.9 1.6 18.9 1.6-4.2-7.4-6.9-9.9l-2.7-2.5 1.2-3.8-4.6 2.9-5.6-4.3 1.1-4-4.4 2.3-1.6-2.1-13.7-1.6s7.9-10.2 21.9-7.8 21.4 15.9 22.5 17.4c1.1 1.6 3.1 5.6 3.1 5.6s.3-6.5-2.9-16.7c-3.3-10.2-4.1-10.8-4.1-10.8s12 9.7 14.6 14.3c2.6 4.6.5 17.9.5 17.9s10.5-12.3 17.4-14.3c6.9-2 16.4 1.6 19.9 4.1 3.5 2.5 5.3 4.7 5.3 4.7s-8.3 1.2-11.5 1.6c-3.2.4-4.8 1.9-4.8 1.9s-3.7-6.5-3.7-5.4c0 1.2.5 6.4.5 6.4s-2.4.6-3.7.6c-1.3 0-3.3.3-3.3.3l-.3 3.5s-4.4 1.7-5.6 3.1c-1.2 1.4-3.2 3.5-3.2 3.5s18-1.8 25.1 4.8c7.2 6.6 8.7 15.6 9.4 18.9s.4 11.1.4 11.1-10.4-12.1-15.8-17-13.7-4.2-15.9-4.1c-2.2.1-12 1.4-12 1.4s1.4 36.5 21.3 69.9c5.4 9.1 11 15.9 16.2 21.1.8-3.3 2.4-9.1 3.6-11.6 1.7-3.5 5.2-5.4 5.2-5.4s-3.3 8.2-2.1 13.8c1.2 5.6 2.9 4.3 2.9 4.3l2.2-7.3s-.1 7.2 1.5 7.9c1.6.7 1.8-4 1.8-4s2.1 2.5 2.2-1.3l.1-3.8s.7 6.9 2.7 7.3c2 .3 2.5-5.6 2.6-10.4.1-4.8.7-11.1.7-11.1s1.2 10 2.3 13.1c1.2 3.2 2.7 11.1 4.3 8.3 1.6-2.7 1.6-5.7 1.6-5.7l4.9 6.8s1.6-3.8 1.6-5.8v-2.2s3.1 3.5 3.8 5.2c.7 1.7 5.7 2.5 5.7 2.5s.1-2.4-2.6-5.1c-2.7-2.6-2.9-3.7-2.9-3.7s2.9 1.3 4.1 1.6c1.2.3 3.3.9 3.3.9s-17.6-23.9-24.9-64.7c-7.4-40.8-.2-80.3 2.7-91.7 2.9-11.4 7.6-24.4 7.6-24.4s-15.1 13.9-22.1 22.7c-6.9 8.8-7.1 9.7-9.7 13-2.6 3.4-7.1 12.9-7.1 12.9s-2.1-21.3 5.9-34c8-12.6 21.2-20.8 21.2-20.8s-10-.8-16.9-.9c-6.9-.1-9.2.1-9.2.1l-2.9-3.2.3 6.7-9.3 1.3-1.8-4.9-.7 6-2.6.1s-1.6-2.4-2.2-2.3c-.6.1-1.4 4.3-1.6 5.4-.2 1.1-4.9-1.5-5.4-.4-.4 1.1-.8 3.7-.8 3.7s-8.3 4.3-11.1 7.4c-2.7 3.1-3.9 5.6-3.9 5.6s-1.8-11.4 10.5-25.9 26.6-18.1 35.5-18.1 18.5 1.9 18.5 1.9-9.4-10.4-14-12.8c-4.6-2.4-6.2-2.6-6.4-3.3-.2-.6-.2-9.3-.2-9.3s-2.9 7.7-4 8.7l-1.1 1.1s-2-4.3-8.2-4.8c-6.2-.5-9.3-.9-10.3-1.4-1.1-.4-1.2-7.3-1.3-6.4-.1.8-1.8 8-1.8 8s-4.7-.8-5.4-.8c-.6 0-1.7-7.2-1.7-7.2l-3.5 6.7s-7.2-.1-15.9 1.5-15 2-15.8 2.2c-.7.2 15-15.1 26.7-21.1 11.7-6 32.3-7.4 40.7-4.9 8.4 2.4 29.1 22.2 29.1 22.2s-4.4-15.1-9.9-21.9c-5.5-6.7-17.9-16-17.9-16s16.5-1.9 26.8 9.1c10.3 10.9 10.5 19 10.5 19s.8-12-.6-17.1c-1.5-5.2-2.8-6.9-2.8-6.9l5.3-3.9s-6.2-.1-6.8-.2c-.6-.1-1.5-6.6-4.1-9.3-2.6-2.6-7.4-6.3-6.4-6 .9.3 12.4-1.8 18.7 6.5s12.3 15.8 12.8 20.6c.5 4.8 1.2 25.8 1.2 25.8s20-24.6 25.9-28.3c5.9-3.7 6.7-.7 11.4-2.4 4.6-1.7 17.4-1.5 23.1.5 5.7 2 13.1 9.3 13.1 9.3s-11.7-.5-16.3 1.1l-4.6 1.6s-3.2-6.3-3.4-5.7c-.2.6-.7 3.7 0 4.4.7.7-4.7 2.3-5.3 2.9-.5.6-2.3-1.4-2.3-1.4l-.8 4.1s-8.5 3.1-11.8 6.4-7.9 9.8-7.9 9.8 25-4.8 31-1.1c6 3.8 17.7 7.4 26.2 18.3s10.5 19.1 10.5 19.1-13.8-8.2-20-10c-6.2-1.8-16.9-2.3-16.9-2.3s-.3-4-1.4-5.4c-1.1-1.4-3.3-4.9-3.4-3.9-.1 1.1.4 8.4.4 8.4l-8.4-.7-1.4-5.3-3.4 1.5-1.9 5.1s-5.3-3.1-11.9.9-10 4.6-10 4.6 12.3 5.9 19.4 15.8c7.2 9.9 6.1 24.5 5.7 29-.4 4.5-6.6 20-6.6 20s-1.5-14.8-2.3-19.3c-.8-4.5-5.8-18.1-5.8-18.1l3.1-3.2-4.1-1.1s-7.1-5.4-15.1-10.1-7.9-3.1-7.9-3.1-6.2 11.8-11.8 39.5c-5.6 27.8-1.8 81.8 21.6 111.3 23.4 29.4 26.5 36.8 26.5 36.8s5.1-9.4 6.3-17.7c1.3-8.3.5-12.5.5-12.5s5.9 7.5 5.9 12.8c0 5.4-.9 9.4.2 9.1 1.2-.3 4-3.5 4.1-4.7.1-1.3.9-.7.9-.7s1.5 4.6 1.2 9.3c-.3 4.6-1.6 7.4-1.6 7.4s7.7-6.6 8.4-14.5c.7-7.9.7-11.8.7-11.8s4.3 6.2 4.5 9.8c.2 3.6-.3 9.8-.3 9.8s14.6-18.4 19.9-32.9c5.3-14.5 16.1-44.6 16.1-70.5s-.8-28.8-.8-28.8-12.2 11.2-15.1 17.4c-2.9 6.3-4.2 12.2-4.2 12.2s-4.8-8.8-2.9-14.3 2.5-10.1 5.5-12.4c2.9-2.3 7.2-6.5 7.2-6.5s-9.6-2.5-13.1-2.5h-5.5l-.4-2.5-2.3 3.5-3.7.7s-2.4-1.1-2.7-2.9c-.3-1.9-.5-5.3-.6-4.4-.1.8.6 8.3.6 8.3s-3.9.3-6.2 2.3c-2.3 2-2.8 2.6-2.8 2.6s-2.3-3.9-2.2-3.3c.1.6-.1 5.9-.1 5.9s-9.6 4.8-12.4 9.4c-2.8 4.5-8.7 15.9-8.7 15.9s-3.9-11.6 7.3-30.3c11.2-18.7 24.8-24.1 36.8-22.9s21.2 7.5 21.2 7.5-7.8-11.6-21.6-14.9C223 158 218.7 157 215 157c-3.7 0-9.8 1.7-9.8 1.7s7.6-11.2 23.8-11.8c16.2-.5 28.1 9.3 31.9 12 3.8 2.7 4.5 4.1 4.5 4.1s.1-17.1 8.3-25.4c8.2-8.3 20.7-9.6 20.7-9.6s-9.8 8.9-14.1 14.2c-4.3 5.3-6 22.6-6.2 23.8-.2 1.2-1.8 7.2-1.8 7.2s11.4-16.6 20-21.7c8.6-5.1 14.7-7.6 23.7-6.8 8.9.7 20.8 6.6 25.8 10.9 4.9 4.3 10.9 15.2 10.9 15.2s-13.1-8-22.4-8.9c-9.4-.9-12.4.2-12.4.2l-1.6-6.1-.8 5.6-4.3.1s-2.8-4.6-2.9-3.6c-.1 1.1-2.2.1-1.5 2.4.7 2.3.8 2.5.8 2.5s-11.8 3.8-15.7 6.2c-3.9 2.4-10.7 8.6-10.7 8.6s19.3-2.2 24.9-1.5c5.6.7 13.4 2.8 20.8 9.8 7.4 6.9 12 15.4 11.8 18.3-.2 2.9-.4 4.1-.4 4.1s-5.8-7.3-13.9-13.2c-8.1-6-12.1-8.6-12.1-8.6s-9.5 1.6-13.7.2c-4.2-1.4-10.5-.3-10.5-.3s14.8 4.1 22.3 11.9c7.5 7.8 11.1 29.9 8.9 38.5-2.1 8.6-2.1 8.8-2.1 8.8s-4-15.1-9.9-23.6l-5.9-8.4 2.1-6.5-3.8 2.3s-5.4-5.2-11.7-9.7c-6.3-4.5-14.6-4.6-14.6-4.6s3.8 28.8.6 52.4c-3.2 23.6-16.6 59.5-20.4 66.5s-6.3 12.8-6.3 12.8l7.2-6.1v7.2l37.4-8.4.3-.1z" fill="#fefefe"/></g><g id="_155204176"><path class="st0" d="M499.2 202c0 6.9-.2 11.8-.5 14.7-.3 2.9-1.3 5.5-3 7.9-1.7 2.4-4 4.2-6.9 5.5-2.9 1.3-6.3 1.9-10.2 1.9-3.7 0-7-.6-9.9-1.8-2.9-1.2-5.3-3-7.1-5.4-1.8-2.4-2.8-5-3.2-7.8-.3-2.8-.5-7.8-.5-14.8v-11.8c0-6.9.2-11.8.5-14.7.3-2.9 1.3-5.5 3-7.9s4-4.2 6.9-5.5c2.9-1.3 6.3-1.9 10.2-1.9 3.7 0 7 .6 9.9 1.8 2.9 1.2 5.3 3 7.1 5.4 1.8 2.4 2.8 5 3.2 7.8.3 2.8.5 7.8.5 14.8V202zm-17.9-22.6c0-3.2-.2-5.2-.5-6.1-.3-.9-1.1-1.3-2.1-1.3-.9 0-1.6.4-2.1 1.1-.5.7-.7 2.8-.7 6.4v32.1c0 4 .2 6.4.5 7.4.3.9 1.1 1.4 2.2 1.4 1.2 0 1.9-.5 2.3-1.6.3-1.1.5-3.6.5-7.7l-.1-31.7zm60.6-17.7v13.7h-10.5v55h-17.9v-55h-10.6v-13.7h39zm55.1 80.5h-12.3v-11.8h-28.8v11.8h-12.3v-26.1h3.7c1.9-5.6 3.5-13 4.8-22.2 1.2-9.2 1.8-19.2 1.8-30.1v-2.1h39.6V216h3.7l-.2 26.2zM575.5 216v-40.7h-5.3v.5c0 13.2-1.4 26.6-4.3 40.2h9.6zm27.1-54.3h29.8v13.7h-11.9v13.1h11.1v13h-11.1v15.1h13.1v13.7h-31v-68.6zm79.7 68.7h-17.9v-55h-5.2v38.9c0 5.1-.7 8.8-2 11-1.3 2.2-3.3 3.6-6 4.2-2.7.6-7 .9-12.8.9h-2.8v-11.8c2.2 0 3.7-.3 4.5-.8.8-.5 1.2-2.4 1.2-5.5v-50.6h41v68.7zm58.4-68.7v13.7h-10.5v55h-17.9v-55h-10.6v-13.7h39zm39.4 0l-4.9 45.5c-.8 7.2-1.6 12.2-2.5 15.1-.9 2.9-2.6 5-5.1 6.2-2.5 1.2-6.7 1.9-12.4 1.9h-10.4v-8.9h1.1c2.4 0 3.8-.2 4.4-.6.6-.4.8-.9.8-1.8 0-.1-.3-2-1-5.8l-9.4-51.7h15.5l5.6 42.8 2.7-42.8 15.6.1zm3.6 0h18c4.9 0 8.6.4 11.2 1.1 2.6.8 4.6 1.9 5.9 3.3 1.3 1.4 2.2 3.2 2.7 5.2.5 2.1.7 5.2.7 9.5v6c0 4.4-.4 7.6-1.4 9.6-.9 2-2.6 3.6-5 4.6-2.4 1.1-5.6 1.6-9.5 1.6h-4.8v27.7h-17.9v-68.6h.1zm17.8 11.7v17.5c.5 0 .9.1 1.3.1 1.6 0 2.8-.4 3.4-1.2.6-.8.9-2.5.9-5v-5.7c0-2.3-.4-3.9-1.1-4.6-.6-.7-2.2-1.1-4.5-1.1zm65.5 57h-14.9v-31.3l-9.3 31.3h-15.5v-68.7h14.9v31l10-31H867v68.7zm38.9-38.9c2.6.9 4.5 2.3 5.8 4.3 1.3 2 1.9 6.7 1.9 14 0 5.5-.6 9.7-1.9 12.7-1.2 3-3.4 5.3-6.4 6.9-3.1 1.6-7 2.4-11.7 2.4-5.4 0-9.7-.9-12.8-2.7-3.1-1.8-5.1-4.1-6.1-6.7-1-2.6-1.5-7.2-1.5-13.8v-5.4h17.1v11.2c0 3 .2 4.9.5 5.7.3.8 1.1 1.2 2.4 1.2 1.3 0 2.2-.5 2.6-1.5.4-1 .6-3.7.6-8V207c0-2.6-.3-4.6-.9-5.8-.6-1.2-1.5-2-2.6-2.4-1.2-.4-3.4-.6-6.7-.7v-10c4.1 0 6.6-.2 7.6-.5.9-.3 1.7-1 2.1-2 .4-1 .6-2.7.6-4.9v-3.8c0-2.4-.2-4-.7-4.8-.5-.8-1.3-1.1-2.3-1.1-1.2 0-2 .4-2.4 1.2-.4.8-.7 2.5-.7 5.2v5.6h-17.1v-5.8c0-6.6 1.5-11 4.5-13.3 3-2.3 7.8-3.5 14.3-3.5 8.2 0 13.7 1.6 16.6 4.8 2.9 3.2 4.4 7.7 4.4 13.3 0 3.8-.5 6.6-1.6 8.3-1.1 1.8-3 3.3-5.6 4.7zm69.5-29.8v68.7h-15.6V184l-6.2 46.4h-10.9l-6.6-45.3v45.3h-15.6v-68.7h23.1c.6 4.2 1.4 9.1 2.1 14.6l2.5 17.4 4.1-32.1 23.1.1zm38 0l10.2 68.7h-18.3l-1-12.3h-6.4l-1 12.3h-18.5l9.1-68.7h25.9zm-9.5 44.2c-.9-7.8-1.8-17.4-2.7-28.9-1.8 13.2-2.9 22.8-3.4 28.9h6.1zM725 108.1h2.9v22.5h11.2v-22.5h2.9v22.5h2v10.1h-2.5v-7.1H725v-25.5zm32.6 19.6l2.7.4c-.4 1.9-1.2 3.3-2.4 4.4-1.2 1-2.7 1.6-4.5 1.6-2.3 0-4.1-.8-5.4-2.5-1.3-1.7-2-4-2-7 0-3.1.7-5.5 2-7.2 1.3-1.7 3.1-2.6 5.3-2.6 2.1 0 3.8.8 5.1 2.5 1.3 1.7 2 4.1 2 7.1v.8h-11.7c.1 2 .6 3.6 1.4 4.7.9 1.1 2 1.6 3.3 1.6 1 0 1.8-.3 2.5-.9.7-.7 1.3-1.6 1.7-2.9zm-8.7-5.1h8.7c-.1-1.6-.4-2.7-1-3.5-.8-1.2-1.9-1.8-3.3-1.8-1.2 0-2.2.5-3.1 1.4-.8 1-1.2 2.3-1.3 3.9zm14.8-7.4h2.7v7.7h7.4v-7.7h2.7v18.5h-2.7v-8.2h-7.4v8.2h-2.7v-18.5zm15.2 0h12.7v2.6h-5v15.9h-2.7v-15.9h-5v-2.6zm15.2 25.5v-25.6h2.4v2.4c.6-.9 1.2-1.7 1.9-2.1.7-.5 1.6-.7 2.6-.7 1.3 0 2.5.4 3.5 1.2 1 .8 1.8 1.9 2.3 3.4.5 1.5.8 3.1.8 4.9 0 1.9-.3 3.6-.9 5.1s-1.4 2.7-2.5 3.5c-1.1.8-2.2 1.2-3.4 1.2-.9 0-1.7-.2-2.4-.7-.7-.4-1.3-1-1.7-1.7v9l-2.6.1zm2.4-16.2c0 2.4.4 4.1 1.2 5.3.8 1.1 1.8 1.7 2.9 1.7 1.2 0 2.2-.6 3-1.8.8-1.2 1.3-3 1.3-5.5 0-2.4-.4-4.1-1.2-5.3-.8-1.2-1.8-1.8-2.9-1.8-1.1 0-2.1.6-3 1.9-.8 1.3-1.3 3.1-1.3 5.5zm23.2-16.4h14v3h-11.2v7.9h5.2c1.9 0 3.4.2 4.6.6 1.1.4 2 1.2 2.7 2.4.7 1.2 1 2.6 1 4.2 0 1.3-.2 2.5-.7 3.6-.5 1.1-1.2 2-2.2 2.7-.9.7-2.6 1.1-4.9 1.1h-8.4l-.1-25.5zm2.9 22.7h5.7c1.5 0 2.7-.4 3.5-1.1.8-.7 1.2-1.8 1.2-3.3 0-1.1-.2-1.9-.7-2.6-.4-.7-1.1-1.2-1.8-1.4-.8-.2-2.1-.3-4-.3h-3.8l-.1 8.7zm16.5 9.9v-25.6h2.4v2.4c.6-.9 1.2-1.7 1.9-2.1.7-.5 1.6-.7 2.6-.7 1.3 0 2.5.4 3.5 1.2 1 .8 1.8 1.9 2.3 3.4.5 1.5.8 3.1.8 4.9 0 1.9-.3 3.6-.9 5.1-.6 1.5-1.4 2.7-2.5 3.5-1.1.8-2.2 1.2-3.4 1.2-.9 0-1.7-.2-2.4-.7-.7-.4-1.3-1-1.7-1.7v9l-2.6.1zm2.4-16.2c0 2.4.4 4.1 1.2 5.3.8 1.1 1.8 1.7 2.9 1.7 1.2 0 2.2-.6 3-1.8.8-1.2 1.3-3 1.3-5.5 0-2.4-.4-4.1-1.2-5.3-.8-1.2-1.8-1.8-2.9-1.8s-2.1.6-3 1.9c-.9 1.3-1.3 3.1-1.3 5.5zm13.3-.1c0-3.4.8-5.9 2.4-7.6 1.3-1.4 3-2.1 4.9-2.1 2.2 0 3.9.8 5.3 2.5s2.1 4 2.1 6.9c0 2.4-.3 4.2-.9 5.6-.6 1.4-1.5 2.4-2.6 3.2-1.2.8-2.4 1.1-3.8 1.1-2.2 0-4-.8-5.3-2.5-1.4-1.6-2.1-4-2.1-7.1zm2.7 0c0 2.4.4 4.1 1.3 5.3.9 1.2 2 1.8 3.3 1.8 1.3 0 2.4-.6 3.3-1.8.9-1.2 1.3-3 1.3-5.4 0-2.3-.4-4-1.3-5.2-.9-1.2-2-1.8-3.3-1.8-1.3 0-2.4.6-3.3 1.8-.8 1.2-1.2 2.9-1.3 5.3zm15.1-9.3h2.7v7.7h7.4v-7.7h2.7v18.5h-2.7v-8.2h-7.4v8.2h-2.7v-18.5zm16.6 0h2.7v14.1l7.4-14.1h2.8v18.5h-2.7v-14l-7.4 14h-2.9l.1-18.5zm16.9 25.6v-25.6h2.4v2.4c.6-.9 1.2-1.7 1.9-2.1.7-.5 1.6-.7 2.6-.7 1.3 0 2.5.4 3.5 1.2 1 .8 1.8 1.9 2.3 3.4s.8 3.1.8 4.9c0 1.9-.3 3.6-.9 5.1-.6 1.5-1.4 2.7-2.5 3.5-1.1.8-2.2 1.2-3.4 1.2-.9 0-1.7-.2-2.4-.7-.7-.4-1.3-1-1.7-1.7v9l-2.6.1zm2.4-16.2c0 2.4.4 4.1 1.2 5.3.8 1.1 1.8 1.7 2.9 1.7 1.2 0 2.2-.6 3-1.8.8-1.2 1.3-3 1.3-5.5 0-2.4-.4-4.1-1.2-5.3-.8-1.2-1.8-1.8-2.9-1.8s-2.1.6-3 1.9c-.9 1.3-1.3 3.1-1.3 5.5zm13.3-.1c0-3.4.8-5.9 2.4-7.6 1.3-1.4 3-2.1 4.9-2.1 2.2 0 3.9.8 5.3 2.5s2.1 4 2.1 6.9c0 2.4-.3 4.2-.9 5.6-.6 1.4-1.5 2.4-2.6 3.2-1.2.8-2.4 1.1-3.8 1.1-2.2 0-4-.8-5.3-2.5-1.4-1.6-2.1-4-2.1-7.1zm2.8 0c0 2.4.4 4.1 1.3 5.3.9 1.2 2 1.8 3.3 1.8 1.3 0 2.4-.6 3.3-1.8.9-1.2 1.3-3 1.3-5.4 0-2.3-.4-4-1.3-5.2-.9-1.2-2-1.8-3.3-1.8-1.3 0-2.4.6-3.3 1.8-.9 1.1-1.3 2.9-1.3 5.3zm15-9.3h6.1c1.5 0 2.6.2 3.3.4.7.3 1.3.8 1.9 1.6.5.8.8 1.7.8 2.8 0 .9-.2 1.7-.5 2.3-.3.7-.8 1.2-1.4 1.7.7.3 1.3.8 1.8 1.6s.7 1.7.7 2.8c-.1 1.8-.6 3.1-1.6 3.9-.9.8-2.4 1.3-4.2 1.3h-7v-18.4h.1zm2.7 7.8h2.8c1.1 0 1.9-.1 2.3-.2.4-.1.8-.4 1.1-.8.3-.4.5-.9.5-1.5 0-1-.3-1.7-.9-2.1-.6-.4-1.6-.6-3-.6h-2.9l.1 5.2zm0 8.2h3.5c1.5 0 2.5-.2 3.1-.6.6-.4.8-1.1.9-2.1 0-.6-.2-1.1-.5-1.7-.3-.5-.7-.8-1.3-.9-.5-.1-1.3-.2-2.5-.2h-3.2v5.5zm23.2.2c-1 1-1.9 1.7-2.8 2.1-.9.4-1.9.6-2.9.6-1.7 0-3-.5-4-1.5-.9-1-1.4-2.2-1.4-3.8 0-.9.2-1.7.5-2.5.3-.7.8-1.3 1.4-1.8.6-.4 1.2-.8 1.9-1 .5-.2 1.3-.3 2.4-.5 2.1-.3 3.7-.7 4.7-1.1v-.8c0-1.3-.2-2.2-.8-2.7-.7-.7-1.7-1.1-3-1.1s-2.2.3-2.8.8-1 1.4-1.3 2.8l-2.6-.4c.2-1.3.6-2.4 1.2-3.2.6-.8 1.3-1.4 2.3-1.9 1-.4 2.2-.7 3.6-.7 1.3 0 2.4.2 3.3.6.8.4 1.4.8 1.8 1.4.4.6.7 1.3.8 2.1.1.5.1 1.5.1 2.9v4.2c0 2.9.1 4.7.2 5.5.1.8.3 1.5.6 2.2H966c-.3-.6-.4-1.3-.5-2.2zm-.2-6.9c-1 .5-2.4.9-4.3 1.2-1.1.2-1.9.4-2.3.6-.4.2-.8.6-1 1-.2.4-.4.9-.4 1.5 0 .8.3 1.5.8 2.1.5.6 1.3.8 2.3.8 1 0 1.9-.3 2.7-.8.8-.5 1.4-1.2 1.8-2.2.3-.7.4-1.8.4-3.1v-1.1zm6.8-9.3h2.7v7.7h7.4v-7.7h2.7v18.5h-2.7v-8.2h-7.4v8.2h-2.7v-18.5zm16.6 0h2.7v14.1l7.4-14.1h2.8v18.5h-2.7v-14l-7.4 14h-2.9l.1-18.5zm29.2 0v18.5h-2.7v-7.2h-1.5c-.9 0-1.6.1-2.1.4-.5.3-1.1 1.2-2 2.7l-2.3 4h-3.3l2.9-5c.9-1.5 1.8-2.4 2.6-2.6-1.5-.2-2.6-.9-3.4-1.9-.7-1-1.1-2.2-1.1-3.6 0-1.6.5-2.9 1.4-3.9.9-1 2.3-1.5 4.2-1.5l7.3.1zm-2.7 2.6h-3.8c-1.6 0-2.6.3-3.1.9-.5.6-.7 1.3-.7 2.1 0 1.1.3 1.9 1 2.4s1.9.8 3.6.8h2.9l.1-6.2zM452.4 249.7h570.2v5.6H452.4z"/></g></g><text transform="translate(151.818 334.569)" font-size="2.069" font-family="ArialNarrow">file:///C:/Program%20Files%20(x86)/Adobe/Adobe%20illustrator%20cc/Adobe%20Illustrator%20CC%202017/CEP/extensions/com.adobe.illustrator.OnBoarding/offline/SmartExport/smart-export.gif</text></svg>