<svg xmlns="http://www.w3.org/2000/svg"><symbol id="main-logo1" viewBox="0 0 1028.6 363.4"><style>.st0{fill:#1b4e7e}</style><g id="&#x421;&#x43B;&#x43E;&#x439;_x0020_1"><g id="_155205520"><path class="st0" d="M181.7 5c97.6 0 176.7 79.1 176.7 176.7s-79.1 176.7-176.7 176.7S5 279.3 5 181.7 84.1 5 181.7 5z"/><path d="M292.2 319.6c-30.3 24.3-68.7 38.8-110.5 38.8h-3.4c-29.6-.7-64.4-10.5-90.6-27h-.1l-.9-2.7s-12-36-16.4-53.2c-4.4-17.2-3.8-35.5-3.8-35.5s-6.9 4.4-14.5 10.5-11.2 13.2-11.2 13.2 1.1-12.3 7.9-20.8c6.8-8.5 10.5-9.3 10.5-9.3L45 231l-.9-5.2-1.5 4.2-18.9-.7s6.1-8.3 13.6-12.3 18.9 1.6 18.9 1.6-4.2-7.4-6.9-9.9l-2.7-2.5 1.2-3.8-4.6 2.9-5.6-4.3 1.1-4-4.4 2.3-1.6-2.1-13.7-1.6s7.9-10.2 21.9-7.8 21.4 15.9 22.5 17.4c1.1 1.6 3.1 5.6 3.1 5.6s.3-6.5-2.9-16.7c-3.3-10.2-4.1-10.8-4.1-10.8s12 9.7 14.6 14.3c2.6 4.6.5 17.9.5 17.9s10.5-12.3 17.4-14.3c6.9-2 16.4 1.6 19.9 4.1 3.5 2.5 5.3 4.7 5.3 4.7s-8.3 1.2-11.5 1.6c-3.2.4-4.8 1.9-4.8 1.9s-3.7-6.5-3.7-5.4c0 1.2.5 6.4.5 6.4s-2.4.6-3.7.6c-1.3 0-3.3.3-3.3.3l-.3 3.5s-4.4 1.7-5.6 3.1c-1.2 1.4-3.2 3.5-3.2 3.5s18-1.8 25.1 4.8c7.2 6.6 8.7 15.6 9.4 18.9s.4 11.1.4 11.1-10.4-12.1-15.8-17-13.7-4.2-15.9-4.1c-2.2.1-12 1.4-12 1.4s1.4 36.5 21.3 69.9c5.4 9.1 11 15.9 16.2 21.1.8-3.3 2.4-9.1 3.6-11.6 1.7-3.5 5.2-5.4 5.2-5.4s-3.3 8.2-2.1 13.8c1.2 5.6 2.9 4.3 2.9 4.3l2.2-7.3s-.1 7.2 1.5 7.9c1.6.7 1.8-4 1.8-4s2.1 2.5 2.2-1.3l.1-3.8s.7 6.9 2.7 7.3c2 .3 2.5-5.6 2.6-10.4.1-4.8.7-11.1.7-11.1s1.2 10 2.3 13.1c1.2 3.2 2.7 11.1 4.3 8.3 1.6-2.7 1.6-5.7 1.6-5.7l4.9 6.8s1.6-3.8 1.6-5.8v-2.2s3.1 3.5 3.8 5.2c.7 1.7 5.7 2.5 5.7 2.5s.1-2.4-2.6-5.1c-2.7-2.6-2.9-3.7-2.9-3.7s2.9 1.3 4.1 1.6c1.2.3 3.3.9 3.3.9s-17.6-23.9-24.9-64.7c-7.4-40.8-.2-80.3 2.7-91.7 2.9-11.4 7.6-24.4 7.6-24.4s-15.1 13.9-22.1 22.7c-6.9 8.8-7.1 9.7-9.7 13-2.6 3.4-7.1 12.9-7.1 12.9s-2.1-21.3 5.9-34c8-12.6 21.2-20.8 21.2-20.8s-10-.8-16.9-.9c-6.9-.1-9.2.1-9.2.1l-2.9-3.2.3 6.7-9.3 1.3-1.8-4.9-.7 6-2.6.1s-1.6-2.4-2.2-2.3c-.6.1-1.4 4.3-1.6 5.4-.2 1.1-4.9-1.5-5.4-.4-.4 1.1-.8 3.7-.8 3.7s-8.3 4.3-11.1 7.4c-2.7 3.1-3.9 5.6-3.9 5.6s-1.8-11.4 10.5-25.9 26.6-18.1 35.5-18.1 18.5 1.9 18.5 1.9-9.4-10.4-14-12.8c-4.6-2.4-6.2-2.6-6.4-3.3-.2-.6-.2-9.3-.2-9.3s-2.9 7.7-4 8.7l-1.1 1.1s-2-4.3-8.2-4.8c-6.2-.5-9.3-.9-10.3-1.4-1.1-.4-1.2-7.3-1.3-6.4-.1.8-1.8 8-1.8 8s-4.7-.8-5.4-.8c-.6 0-1.7-7.2-1.7-7.2l-3.5 6.7s-7.2-.1-15.9 1.5-15 2-15.8 2.2c-.7.2 15-15.1 26.7-21.1 11.7-6 32.3-7.4 40.7-4.9 8.4 2.4 29.1 22.2 29.1 22.2s-4.4-15.1-9.9-21.9c-5.5-6.7-17.9-16-17.9-16s16.5-1.9 26.8 9.1c10.3 10.9 10.5 19 10.5 19s.8-12-.6-17.1c-1.5-5.2-2.8-6.9-2.8-6.9l5.3-3.9s-6.2-.1-6.8-.2c-.6-.1-1.5-6.6-4.1-9.3-2.6-2.6-7.4-6.3-6.4-6 .9.3 12.4-1.8 18.7 6.5s12.3 15.8 12.8 20.6c.5 4.8 1.2 25.8 1.2 25.8s20-24.6 25.9-28.3c5.9-3.7 6.7-.7 11.4-2.4 4.6-1.7 17.4-1.5 23.1.5 5.7 2 13.1 9.3 13.1 9.3s-11.7-.5-16.3 1.1l-4.6 1.6s-3.2-6.3-3.4-5.7c-.2.6-.7 3.7 0 4.4.7.7-4.7 2.3-5.3 2.9-.5.6-2.3-1.4-2.3-1.4l-.8 4.1s-8.5 3.1-11.8 6.4-7.9 9.8-7.9 9.8 25-4.8 31-1.1c6 3.8 17.7 7.4 26.2 18.3s10.5 19.1 10.5 19.1-13.8-8.2-20-10c-6.2-1.8-16.9-2.3-16.9-2.3s-.3-4-1.4-5.4c-1.1-1.4-3.3-4.9-3.4-3.9-.1 1.1.4 8.4.4 8.4l-8.4-.7-1.4-5.3-3.4 1.5-1.9 5.1s-5.3-3.1-11.9.9-10 4.6-10 4.6 12.3 5.9 19.4 15.8c7.2 9.9 6.1 24.5 5.7 29-.4 4.5-6.6 20-6.6 20s-1.5-14.8-2.3-19.3c-.8-4.5-5.8-18.1-5.8-18.1l3.1-3.2-4.1-1.1s-7.1-5.4-15.1-10.1-7.9-3.1-7.9-3.1-6.2 11.8-11.8 39.5c-5.6 27.8-1.8 81.8 21.6 111.3 23.4 29.4 26.5 36.8 26.5 36.8s5.1-9.4 6.3-17.7c1.3-8.3.5-12.5.5-12.5s5.9 7.5 5.9 12.8c0 5.4-.9 9.4.2 9.1 1.2-.3 4-3.5 4.1-4.7.1-1.3.9-.7.9-.7s1.5 4.6 1.2 9.3c-.3 4.6-1.6 7.4-1.6 7.4s7.7-6.6 8.4-14.5c.7-7.9.7-11.8.7-11.8s4.3 6.2 4.5 9.8c.2 3.6-.3 9.8-.3 9.8s14.6-18.4 19.9-32.9c5.3-14.5 16.1-44.6 16.1-70.5s-.8-28.8-.8-28.8-12.2 11.2-15.1 17.4c-2.9 6.3-4.2 12.2-4.2 12.2s-4.8-8.8-2.9-14.3 2.5-10.1 5.5-12.4c2.9-2.3 7.2-6.5 7.2-6.5s-9.6-2.5-13.1-2.5h-5.5l-.4-2.5-2.3 3.5-3.7.7s-2.4-1.1-2.7-2.9c-.3-1.9-.5-5.3-.6-4.4-.1.8.6 8.3.6 8.3s-3.9.3-6.2 2.3c-2.3 2-2.8 2.6-2.8 2.6s-2.3-3.9-2.2-3.3c.1.6-.1 5.9-.1 5.9s-9.6 4.8-12.4 9.4c-2.8 4.5-8.7 15.9-8.7 15.9s-3.9-11.6 7.3-30.3c11.2-18.7 24.8-24.1 36.8-22.9s21.2 7.5 21.2 7.5-7.8-11.6-21.6-14.9C223 158 218.7 157 215 157c-3.7 0-9.8 1.7-9.8 1.7s7.6-11.2 23.8-11.8c16.2-.5 28.1 9.3 31.9 12 3.8 2.7 4.5 4.1 4.5 4.1s.1-17.1 8.3-25.4c8.2-8.3 20.7-9.6 20.7-9.6s-9.8 8.9-14.1 14.2c-4.3 5.3-6 22.6-6.2 23.8-.2 1.2-1.8 7.2-1.8 7.2s11.4-16.6 20-21.7c8.6-5.1 14.7-7.6 23.7-6.8 8.9.7 20.8 6.6 25.8 10.9 4.9 4.3 10.9 15.2 10.9 15.2s-13.1-8-22.4-8.9c-9.4-.9-12.4.2-12.4.2l-1.6-6.1-.8 5.6-4.3.1s-2.8-4.6-2.9-3.6c-.1 1.1-2.2.1-1.5 2.4.7 2.3.8 2.5.8 2.5s-11.8 3.8-15.7 6.2c-3.9 2.4-10.7 8.6-10.7 8.6s19.3-2.2 24.9-1.5c5.6.7 13.4 2.8 20.8 9.8 7.4 6.9 12 15.4 11.8 18.3-.2 2.9-.4 4.1-.4 4.1s-5.8-7.3-13.9-13.2c-8.1-6-12.1-8.6-12.1-8.6s-9.5 1.6-13.7.2c-4.2-1.4-10.5-.3-10.5-.3s14.8 4.1 22.3 11.9c7.5 7.8 11.1 29.9 8.9 38.5-2.1 8.6-2.1 8.8-2.1 8.8s-4-15.1-9.9-23.6l-5.9-8.4 2.1-6.5-3.8 2.3s-5.4-5.2-11.7-9.7c-6.3-4.5-14.6-4.6-14.6-4.6s3.8 28.8.6 52.4c-3.2 23.6-16.6 59.5-20.4 66.5s-6.3 12.8-6.3 12.8l7.2-6.1v7.2l37.4-8.4.3-.1z" fill="#fefefe"/></g><path class="st0" d="M499.2 202c0 6.9-.2 11.8-.5 14.7-.3 2.9-1.3 5.5-3 7.9-1.7 2.4-4 4.2-6.9 5.5-2.9 1.3-6.3 1.9-10.2 1.9-3.7 0-7-.6-9.9-1.8-2.9-1.2-5.3-3-7.1-5.4-1.8-2.4-2.8-5-3.2-7.8-.3-2.8-.5-7.8-.5-14.8v-11.8c0-6.9.2-11.8.5-14.7.3-2.9 1.3-5.5 3-7.9s4-4.2 6.9-5.5c2.9-1.3 6.3-1.9 10.2-1.9 3.7 0 7 .6 9.9 1.8 2.9 1.2 5.3 3 7.1 5.4 1.8 2.4 2.8 5 3.2 7.8.3 2.8.5 7.8.5 14.8V202zm-17.9-22.6c0-3.2-.2-5.2-.5-6.1-.3-.9-1.1-1.3-2.1-1.3-.9 0-1.6.4-2.1 1.1-.5.7-.7 2.8-.7 6.4v32.1c0 4 .2 6.4.5 7.4.3.9 1.1 1.4 2.2 1.4 1.2 0 1.9-.5 2.3-1.6.3-1.1.5-3.6.5-7.7l-.1-31.7zm60.6-17.7v13.7h-10.5v55h-17.9v-55h-10.6v-13.7h39zm55.1 80.5h-12.3v-11.8h-28.8v11.8h-12.3v-26.1h3.7c1.9-5.6 3.5-13 4.8-22.2 1.2-9.2 1.8-19.2 1.8-30.1v-2.1h39.6V216h3.7l-.2 26.2zM575.5 216v-40.7h-5.3v.5c0 13.2-1.4 26.6-4.3 40.2h9.6zm27.1-54.3h29.8v13.7h-11.9v13.1h11.1v13h-11.1v15.1h13.1v13.7h-31v-68.6zm79.7 68.7h-17.9v-55h-5.2v38.9c0 5.1-.7 8.8-2 11-1.3 2.2-3.3 3.6-6 4.2-2.7.6-7 .9-12.8.9h-2.8v-11.8c2.2 0 3.7-.3 4.5-.8.8-.5 1.2-2.4 1.2-5.5v-50.6h41v68.7zm58.4-68.7v13.7h-10.5v55h-17.9v-55h-10.6v-13.7h39zm39.4 0l-4.9 45.5c-.8 7.2-1.6 12.2-2.5 15.1-.9 2.9-2.6 5-5.1 6.2-2.5 1.2-6.7 1.9-12.4 1.9h-10.4v-8.9h1.1c2.4 0 3.8-.2 4.4-.6.6-.4.8-.9.8-1.8 0-.1-.3-2-1-5.8l-9.4-51.7h15.5l5.6 42.8 2.7-42.8 15.6.1zm3.6 0h18c4.9 0 8.6.4 11.2 1.1 2.6.8 4.6 1.9 5.9 3.3 1.3 1.4 2.2 3.2 2.7 5.2.5 2.1.7 5.2.7 9.5v6c0 4.4-.4 7.6-1.4 9.6-.9 2-2.6 3.6-5 4.6-2.4 1.1-5.6 1.6-9.5 1.6h-4.8v27.7h-17.9v-68.6h.1zm17.8 11.7v17.5c.5 0 .9.1 1.3.1 1.6 0 2.8-.4 3.4-1.2.6-.8.9-2.5.9-5v-5.7c0-2.3-.4-3.9-1.1-4.6-.6-.7-2.2-1.1-4.5-1.1zm65.5 57h-14.9v-31.3l-9.3 31.3h-15.5v-68.7h14.9v31l10-31H867v68.7zm38.9-38.9c2.6.9 4.5 2.3 5.8 4.3 1.3 2 1.9 6.7 1.9 14 0 5.5-.6 9.7-1.9 12.7-1.2 3-3.4 5.3-6.4 6.9-3.1 1.6-7 2.4-11.7 2.4-5.4 0-9.7-.9-12.8-2.7-3.1-1.8-5.1-4.1-6.1-6.7-1-2.6-1.5-7.2-1.5-13.8v-5.4h17.1v11.2c0 3 .2 4.9.5 5.7.3.8 1.1 1.2 2.4 1.2 1.3 0 2.2-.5 2.6-1.5.4-1 .6-3.7.6-8V207c0-2.6-.3-4.6-.9-5.8-.6-1.2-1.5-2-2.6-2.4-1.2-.4-3.4-.6-6.7-.7v-10c4.1 0 6.6-.2 7.6-.5.9-.3 1.7-1 2.1-2 .4-1 .6-2.7.6-4.9v-3.8c0-2.4-.2-4-.7-4.8-.5-.8-1.3-1.1-2.3-1.1-1.2 0-2 .4-2.4 1.2-.4.8-.7 2.5-.7 5.2v5.6h-17.1v-5.8c0-6.6 1.5-11 4.5-13.3 3-2.3 7.8-3.5 14.3-3.5 8.2 0 13.7 1.6 16.6 4.8 2.9 3.2 4.4 7.7 4.4 13.3 0 3.8-.5 6.6-1.6 8.3-1.1 1.8-3 3.3-5.6 4.7zm69.5-29.8v68.7h-15.6V184l-6.2 46.4h-10.9l-6.6-45.3v45.3h-15.6v-68.7h23.1c.6 4.2 1.4 9.1 2.1 14.6l2.5 17.4 4.1-32.1 23.1.1zm38 0l10.2 68.7h-18.3l-1-12.3h-6.4l-1 12.3h-18.5l9.1-68.7h25.9zm-9.5 44.2c-.9-7.8-1.8-17.4-2.7-28.9-1.8 13.2-2.9 22.8-3.4 28.9h6.1zM725 108.1h2.9v22.5h11.2v-22.5h2.9v22.5h2v10.1h-2.5v-7.1H725v-25.5zm32.6 19.6l2.7.4c-.4 1.9-1.2 3.3-2.4 4.4-1.2 1-2.7 1.6-4.5 1.6-2.3 0-4.1-.8-5.4-2.5-1.3-1.7-2-4-2-7 0-3.1.7-5.5 2-7.2 1.3-1.7 3.1-2.6 5.3-2.6 2.1 0 3.8.8 5.1 2.5 1.3 1.7 2 4.1 2 7.1v.8h-11.7c.1 2 .6 3.6 1.4 4.7.9 1.1 2 1.6 3.3 1.6 1 0 1.8-.3 2.5-.9.7-.7 1.3-1.6 1.7-2.9zm-8.7-5.1h8.7c-.1-1.6-.4-2.7-1-3.5-.8-1.2-1.9-1.8-3.3-1.8-1.2 0-2.2.5-3.1 1.4-.8 1-1.2 2.3-1.3 3.9zm14.8-7.4h2.7v7.7h7.4v-7.7h2.7v18.5h-2.7v-8.2h-7.4v8.2h-2.7v-18.5zm15.2 0h12.7v2.6h-5v15.9h-2.7v-15.9h-5v-2.6zm15.2 25.5v-25.6h2.4v2.4c.6-.9 1.2-1.7 1.9-2.1.7-.5 1.6-.7 2.6-.7 1.3 0 2.5.4 3.5 1.2 1 .8 1.8 1.9 2.3 3.4.5 1.5.8 3.1.8 4.9 0 1.9-.3 3.6-.9 5.1s-1.4 2.7-2.5 3.5c-1.1.8-2.2 1.2-3.4 1.2-.9 0-1.7-.2-2.4-.7-.7-.4-1.3-1-1.7-1.7v9l-2.6.1zm2.4-16.2c0 2.4.4 4.1 1.2 5.3.8 1.1 1.8 1.7 2.9 1.7 1.2 0 2.2-.6 3-1.8.8-1.2 1.3-3 1.3-5.5 0-2.4-.4-4.1-1.2-5.3-.8-1.2-1.8-1.8-2.9-1.8-1.1 0-2.1.6-3 1.9-.8 1.3-1.3 3.1-1.3 5.5zm23.2-16.4h14v3h-11.2v7.9h5.2c1.9 0 3.4.2 4.6.6 1.1.4 2 1.2 2.7 2.4.7 1.2 1 2.6 1 4.2 0 1.3-.2 2.5-.7 3.6-.5 1.1-1.2 2-2.2 2.7-.9.7-2.6 1.1-4.9 1.1h-8.4l-.1-25.5zm2.9 22.7h5.7c1.5 0 2.7-.4 3.5-1.1.8-.7 1.2-1.8 1.2-3.3 0-1.1-.2-1.9-.7-2.6-.4-.7-1.1-1.2-1.8-1.4-.8-.2-2.1-.3-4-.3h-3.8l-.1 8.7zm16.5 9.9v-25.6h2.4v2.4c.6-.9 1.2-1.7 1.9-2.1.7-.5 1.6-.7 2.6-.7 1.3 0 2.5.4 3.5 1.2 1 .8 1.8 1.9 2.3 3.4.5 1.5.8 3.1.8 4.9 0 1.9-.3 3.6-.9 5.1-.6 1.5-1.4 2.7-2.5 3.5-1.1.8-2.2 1.2-3.4 1.2-.9 0-1.7-.2-2.4-.7-.7-.4-1.3-1-1.7-1.7v9l-2.6.1zm2.4-16.2c0 2.4.4 4.1 1.2 5.3.8 1.1 1.8 1.7 2.9 1.7 1.2 0 2.2-.6 3-1.8.8-1.2 1.3-3 1.3-5.5 0-2.4-.4-4.1-1.2-5.3-.8-1.2-1.8-1.8-2.9-1.8s-2.1.6-3 1.9c-.9 1.3-1.3 3.1-1.3 5.5zm13.3-.1c0-3.4.8-5.9 2.4-7.6 1.3-1.4 3-2.1 4.9-2.1 2.2 0 3.9.8 5.3 2.5s2.1 4 2.1 6.9c0 2.4-.3 4.2-.9 5.6-.6 1.4-1.5 2.4-2.6 3.2-1.2.8-2.4 1.1-3.8 1.1-2.2 0-4-.8-5.3-2.5-1.4-1.6-2.1-4-2.1-7.1zm2.7 0c0 2.4.4 4.1 1.3 5.3.9 1.2 2 1.8 3.3 1.8 1.3 0 2.4-.6 3.3-1.8.9-1.2 1.3-3 1.3-5.4 0-2.3-.4-4-1.3-5.2-.9-1.2-2-1.8-3.3-1.8-1.3 0-2.4.6-3.3 1.8-.8 1.2-1.2 2.9-1.3 5.3zm15.1-9.3h2.7v7.7h7.4v-7.7h2.7v18.5h-2.7v-8.2h-7.4v8.2h-2.7v-18.5zm16.6 0h2.7v14.1l7.4-14.1h2.8v18.5h-2.7v-14l-7.4 14h-2.9l.1-18.5zm16.9 25.6v-25.6h2.4v2.4c.6-.9 1.2-1.7 1.9-2.1.7-.5 1.6-.7 2.6-.7 1.3 0 2.5.4 3.5 1.2 1 .8 1.8 1.9 2.3 3.4s.8 3.1.8 4.9c0 1.9-.3 3.6-.9 5.1-.6 1.5-1.4 2.7-2.5 3.5-1.1.8-2.2 1.2-3.4 1.2-.9 0-1.7-.2-2.4-.7-.7-.4-1.3-1-1.7-1.7v9l-2.6.1zm2.4-16.2c0 2.4.4 4.1 1.2 5.3.8 1.1 1.8 1.7 2.9 1.7 1.2 0 2.2-.6 3-1.8.8-1.2 1.3-3 1.3-5.5 0-2.4-.4-4.1-1.2-5.3-.8-1.2-1.8-1.8-2.9-1.8s-2.1.6-3 1.9c-.9 1.3-1.3 3.1-1.3 5.5zm13.3-.1c0-3.4.8-5.9 2.4-7.6 1.3-1.4 3-2.1 4.9-2.1 2.2 0 3.9.8 5.3 2.5s2.1 4 2.1 6.9c0 2.4-.3 4.2-.9 5.6-.6 1.4-1.5 2.4-2.6 3.2-1.2.8-2.4 1.1-3.8 1.1-2.2 0-4-.8-5.3-2.5-1.4-1.6-2.1-4-2.1-7.1zm2.8 0c0 2.4.4 4.1 1.3 5.3.9 1.2 2 1.8 3.3 1.8 1.3 0 2.4-.6 3.3-1.8.9-1.2 1.3-3 1.3-5.4 0-2.3-.4-4-1.3-5.2-.9-1.2-2-1.8-3.3-1.8-1.3 0-2.4.6-3.3 1.8-.9 1.1-1.3 2.9-1.3 5.3zm15-9.3h6.1c1.5 0 2.6.2 3.3.4.7.3 1.3.8 1.9 1.6.5.8.8 1.7.8 2.8 0 .9-.2 1.7-.5 2.3-.3.7-.8 1.2-1.4 1.7.7.3 1.3.8 1.8 1.6s.7 1.7.7 2.8c-.1 1.8-.6 3.1-1.6 3.9-.9.8-2.4 1.3-4.2 1.3h-7v-18.4h.1zm2.7 7.8h2.8c1.1 0 1.9-.1 2.3-.2.4-.1.8-.4 1.1-.8.3-.4.5-.9.5-1.5 0-1-.3-1.7-.9-2.1-.6-.4-1.6-.6-3-.6h-2.9l.1 5.2zm0 8.2h3.5c1.5 0 2.5-.2 3.1-.6.6-.4.8-1.1.9-2.1 0-.6-.2-1.1-.5-1.7-.3-.5-.7-.8-1.3-.9-.5-.1-1.3-.2-2.5-.2h-3.2v5.5zm23.2.2c-1 1-1.9 1.7-2.8 2.1-.9.4-1.9.6-2.9.6-1.7 0-3-.5-4-1.5-.9-1-1.4-2.2-1.4-3.8 0-.9.2-1.7.5-2.5.3-.7.8-1.3 1.4-1.8.6-.4 1.2-.8 1.9-1 .5-.2 1.3-.3 2.4-.5 2.1-.3 3.7-.7 4.7-1.1v-.8c0-1.3-.2-2.2-.8-2.7-.7-.7-1.7-1.1-3-1.1s-2.2.3-2.8.8-1 1.4-1.3 2.8l-2.6-.4c.2-1.3.6-2.4 1.2-3.2.6-.8 1.3-1.4 2.3-1.9 1-.4 2.2-.7 3.6-.7 1.3 0 2.4.2 3.3.6.8.4 1.4.8 1.8 1.4.4.6.7 1.3.8 2.1.1.5.1 1.5.1 2.9v4.2c0 2.9.1 4.7.2 5.5.1.8.3 1.5.6 2.2H966c-.3-.6-.4-1.3-.5-2.2zm-.2-6.9c-1 .5-2.4.9-4.3 1.2-1.1.2-1.9.4-2.3.6-.4.2-.8.6-1 1-.2.4-.4.9-.4 1.5 0 .8.3 1.5.8 2.1.5.6 1.3.8 2.3.8 1 0 1.9-.3 2.7-.8.8-.5 1.4-1.2 1.8-2.2.3-.7.4-1.8.4-3.1v-1.1zm6.8-9.3h2.7v7.7h7.4v-7.7h2.7v18.5h-2.7v-8.2h-7.4v8.2h-2.7v-18.5zm16.6 0h2.7v14.1l7.4-14.1h2.8v18.5h-2.7v-14l-7.4 14h-2.9l.1-18.5zm29.2 0v18.5h-2.7v-7.2h-1.5c-.9 0-1.6.1-2.1.4-.5.3-1.1 1.2-2 2.7l-2.3 4h-3.3l2.9-5c.9-1.5 1.8-2.4 2.6-2.6-1.5-.2-2.6-.9-3.4-1.9-.7-1-1.1-2.2-1.1-3.6 0-1.6.5-2.9 1.4-3.9.9-1 2.3-1.5 4.2-1.5l7.3.1zm-2.7 2.6h-3.8c-1.6 0-2.6.3-3.1.9-.5.6-.7 1.3-.7 2.1 0 1.1.3 1.9 1 2.4s1.9.8 3.6.8h2.9l.1-6.2zm-562.8 132h570.2v5.6H452.4z" id="_155204176"/></g><text transform="translate(151.818 334.569)" font-size="2.069" font-family="ArialNarrow">file:///C:/Program%20Files%20(x86)/Adobe/Adobe%20illustrator%20cc/Adobe%20Illustrator%20CC%202017/CEP/extensions/com.adobe.illustrator.OnBoarding/offline/SmartExport/smart-export.gif</text></symbol><symbol id="main-logo2" viewBox="0 0 1106.7 437.1"><ellipse cx="240.2" cy="218.6" rx="235.1" ry="213.5" fill="#004d81"/><path d="M83.2 260.7l-1.8 25.1c-2.7 0-10.8-.9-12.6-.9l.9-22.4c-5.4.9-10.8-.9-17-5.4l-.9 18.9c-5.4-8.1-2.7-19.7-1.8-26 0-.9.9-3.6.9-3.6 3.6 7.2 14.4 12.6 21.5 13.5 11.7.9 25.1-1.8 27.8-2.7-3.6 2.7-12.6 4.5-18.8 5.4l1.8-1.9zm43.9-66.4c-.9 0 0 .9-2.7 0l-8.1-3.6c-3.6-.9-9-2.7-12.6-3.6 0-1.8 3.6-5.4 5.4-8.1 1.8-3.6 3.6-2.7 9 0 4.6 1 12.6 8.2 9 15.3zM77.8 180c8.1-6.3 15.3-8.1 26.9-5.4-.9 2.7-2.7 4.5-3.6 6.3-1.8 3.6-1.8 3.6-5.4 3.6-2.7-.9-16.1-1.8-17.9-4.5zM67 184.5c5.4.9 12.6.9 17.9 1.8 5.4.9 11.7 1.8 17 3.6 7.2 1.8 16.1 3.6 23.3 8.1 4.5 2.7 3.6 3.6 5.4 4.5.9-2.7 5.4-9.9 5.4-12.6 0-4.5-5.4-7.2-8.1-9.9.9-.9 36.8 3.6 41.3 3.6-5.4-4.5-48.4-11.7-57.4-12.6-9.9-.9-19.7-3.6-26.9 0-3.5.9-17.9 8.1-17.9 13.5zm58.3 55.6c-.9 13.5-8.1 33.2-18.8 40.4-3.6 1.8-9 3.6-12.6 0-4.5-4.5 3.6-7.2 5.4-9 19.8-12.6 21.6-27.8 26-31.4zm9-15.3c.9-2.7 9-15.3 10.8-16.1l44.9 7.2-.9 10.8c-8.1 0-15.3-.9-23.3-.9-4.6-.1-28.8-.1-31.5-1zm60.1 1.8l.9-9.9c4.5.9 24.2 3.6 27.8 4.5l-.9 5.4c-8 .9-19.7 0-27.8 0zm32.3.9v-5.4l33.2 5.4c-.9.9-31.4-.9-33.2 0zm-83.4-43c.9.9 0 .9.9 1.8 4.5 8.1 3.6 12.6-5.4 17.9-16.1 11.7-35.9 24.2-52 35-4.5 3.6-13.5 9.9-18.8 9.9-17.9.9-22.4-30.5 1.8-27.8 10.8.9 14.4 5.4 19.7 12.6 2.7 0 34.1-20.6 37.7-24.2.9-12.6-21.5-15.3-31.4-17-6.3-.9-14.4-2.7-20.6-3.6-8.1-.9-13.5-3.6-17.9 1.8-8.1 9-10.8 22.4-12.6 39.5-.9 8.1-.9 17-.9 25.1 0 13.5 2.7 19.7 2.7 21.5-4.5 0-17 1.8-15.3 8.1.9.9.9.9 1.8.9s.9 0 1.8.9c8.1.9 5.4-4.5 27.8 0-.9 3.6-10.8 3.6-10.8 9.9 3.6 9 25.1-.9 30.5-2.7 9.9-3.6 19.7-6.3 28.7-9.9 19.7-6.3 38.6-12.6 58.3-18.8l116.6-37.7-93.3-28.7c.9-2.7 3.6-3.6 3.6-7.2 0-2.7-2.7-4.5-4.5-5.4-1.8.8-43.9-1.9-48.4-1.9zM294 148.6c.9 1.8 3.6 12.6 5.4 15.3.9.9 2.7 7.2 2.7 8.1s-2.7 5.4-3.6 5.4l-4.5-28.8zm-128.3-18.9c.9-.9 1.8-1.8 2.7-3.6 1.8 0 17 7.2 18.8 9-2.6.9-20.6-4.5-21.5-5.4zm27.8-17c.9-2.7.9-.9 2.7-3.6 2.7.9 18.8 13.5 22.4 17 2.7 1.8 3.6.9 6.3-.9l18.8-9.9-22.4 17.9-27.8-20.5zm-24.2-43.1c3.6-5.4 23.3.9 28.7.9 12.6 2.7 83.4 17 86.1 17.9-8.1-.9-85.2-14.4-101.4-17-2.6 0-12.5 0-13.4-1.8zm134.6 23.3c.9-7.2 2.7-7.2 11.7-11.7 9.9-5.4 19.7-10.8 29.6-15.3 6.3-3.6 9.9-5.4 17-3.6-.9.9 0 .9-.9.9s-.9 0-.9.9l-12.6 6.3c-4.4 3.7-40.3 22.5-43.9 22.5zm-8.1 91.6c2.7 0 8.1-3.6 10.8-4.5 2.7-.9 1.8-.9 3.6-5.4l12.6-63.7c.9-1.8 16.1-9.9 19.7-11.7 12.6-6.3 17.9-9 28.7-17.9 2.7-1.8 6.3-5.4 8.1-8.1 9-10.8 7.2-10.8-4.5-17-8.1-3.6-17-2.7-24.2.9-13.5 7.2-27.8 14.4-41.3 21.5-4.5 1.8-5.4 4.5-10.8 3.6l-37.7-8.1c-9.9-1.8-82.5-17.9-91.5-14.4-3.6 1.8-5.4 5.4-4.5 10.8 1.8.9 70 25.1 81.6 29.6.9.9 1.8.9 2.7.9.9 0 .9 0 .9.9l.9.9c-4.5 6.3-5.4 5.4-12.6 10.8-1.8.9-13.5 8.1-15.3 8.1s-24.2-17-27.8-17.9c-1.8 2.7-6.3 6.3-8.1 9l5.4 5.4c1.8.9 3.6 3.6 2.7 7.2-5.4 3.6-15.3-3.6-20.6-6.3-2.7-.9-2.7-.9-4.5.9l-3.6 3.6-8.1 7.2c10.8 3.6 21.5 8.1 33.2 12.6 3.6.9 4.5 2.7 6.3 5.4l8.1 9c.9.9.9 1.8 2.7 3.6l5.4 5.4c5.4-4.5 3.6-15.3 4.5-17.9 2.7-1.8 47.5-12.6 53.8-14.4 5.4-.9 10.8-1.8 13.5 1.8 4.5 4.5 5.4 37.7 9 46.7l.9 1.5zM277 286.7h-1.8c-.9-.9-.9.9-.9-.9l-.9.9h3.6zm91.5-36.7c-5.4-.9-10.8-1.8-17-1.8-6.3-.9-8.1-.9-12.6 2.7-.9 0-.9.9-.9.9-3.6 1.8-3.6 2.7-9 3.6h-.9l-.9.9c-2.7.9-15.3 3.6-16.1 5.4-.9.9-.9 17-.9 19.7-.9.9.9 0-.9.9h-3.6c0-1.8 0-5.4.9-6.3-.9-3.6.9-8.1.9-10.8l1.8-7.2v-1.8l2.7-.9c15.3-3.6 24.2-9.9 43.1-8.1 8 .1 9.8 1.9 13.4 2.8zm-63.7 8.9c.9.9.9-.9.9.9 0 .9-1.8 8.1-1.8 10.8-.9 3.6-.9 8.1-.9 11.7l-3.6.9-22.4 3.6c-.9.9-.9.9-2.7.9l.9-.9c0-3.6.9-9.9 1.8-13.5.9-4.5 3.6-8.1 8.1-7.2l.9-.9 7.2-1.8c2.7-.9 5.4-.9 8.1-1.8l2.7-.9.8-1.8zm-73.6 35.9h-1.8l.9-2.7c-.9-3.6.9-11.7 3.6-13.5.9-.9 10.8-3.6 12.6-3.6l.9-.9-.9.9-1.8 10.8c0 .9-.9 1.8-.9 3.6v.9c-.9.9 0 .9-.9.9l-11.7 3.6zm-13.4 2.7l-2.7.9v-1.8l.9-7.2.9-3.6c.9-.9.9-1.8 3.6-2.7.9-.9 3.6-.9 4.5-.9.9-.9 0-.9 1.8-.9l-.9.9-2.7 14.4v.9h-5.4zm34-5.4H250v-1.8l-.9 1.8h2.7zm-25.1 49.4v2.7l.9.9c0-1.8-.9-1.8.9-3.6h-1.8zm18-27.8c.9 3.6 0 .9-.9 1.8l.9 8.1 21.5-.9c.9-2.7 0-5.4 0-8.1v-8.1c-.9-.9-.9-3.6-.9-5.4-2.7-.9-.9-.9-.9 0s.9.9-1.8.9c-3.6.9-14.4.9-17 2.7-.9 3.6.9 14.4.9 19.7-.9-.9-.9-1.8-.9-4.5 0-1.8-.9-3.6-.9-6.2zm60.1 37.6c.9.9.9 0 .9-.9s0-1.8.9-2.7l.9-.9c-2.7-.8-2.7 1.8-2.7 4.5zm55.6-3.6c.9 0 0 0 0 0l1.8.9v-.9l.9-.9-.9-.9c-.9 1.8 0 1.8-1.8 1.8zm-48.4.9c.9.9.9-.9 0 .9 0 0-.9 0 0-.9zm0-1.8c0-.9-.9-.9.9-.9h.9c0 .9.9.9-.9.9-.9 0-.9-.8-.9 0zm-16.2 5.4l.9 2.7-.9.9c.9.9.9 1.8.9 2.7h4.5c-1.8 0-.9.9-.9-.9V354l-.9.9c-.9.9.9 0-.9.9-.9-.9-.9-1.8-.9-3.6s-.9-1.8-.9-3.6c0-2.7-.9-5.4 0-8.1.9.9.9 2.7.9 4.5v-2.7c0-3.6.9-5.4.9-8.1.9-.9 0-.9.9-.9.9.9.9-.9.9 1.8 2.7-.9-.9-1.8 3.6-1.8 0 1.8 0 .9-.9 2.7-.9 2.7 0-2.7 0 .9 1.8-.9 3.6-.9 5.4.9.9.9 3.6 2.7 3.6 4.5l.9.9-.9-.9c-.9-.9-2.7-2.7-4.5-3.6-3.6-.9-4.5 0-5.4.9 0-1.8.9-1.8.9-3.6-1.8 0-.9-.9-.9.9 0 0-.9-.9-.9 0 0 0-.9-.9-1.8-.9-.9 3.6.9.9.9 3.6s0 .9-.9 1.8c0 .9-.9.9 0 .9 0-1.8.9-1.8 2.7-1.8 0 1.8-.9.9-.9 2.7-.9 1.8 0 .9 0 2.7l.9 5.4c0-1.8-.9-3.6-.9-5.4.9-4.5.9-2.7 1.8-2.7v-2.7c.9.9 0 .9.9 1.8v-2.7s.9 0 .9.9.9 1.8.9 1.8v-1.8c2.7.9.9 0 .9 3.6h.9s0-.9 0 0l.9-.9c.9 2.7 0-.9-.9 2.7h-.9c-.9.9 0 1.8.9 4.5 0 2.7 0 4.5-1.8 5.4v3.6h.9l-.9-2.7 1.8 1.8.9-.9c-.9-.9.9-.9-.9-.9l.9-.9s0-.9.9 0l.9-.9h1.8l-.9-.9h-.9 2.7c0-1.8.9 0 0-2.7.9 1.8 0 0-.9.9v-1.8c.9-2.7.9-.9.9-2.7l.9.9c.9.9.9 5.4.9 6.3v2.7c.9-.9.9.9 1.8-.9l.9-1.8c-.9-9-.9-12.6-5.4-19.7-1.8-2.7-2.7-1.8-6.3-1.8-4.5 0-8.1-.9-9.9 6.3-1.8 5.4 0 9.9-.9 15.3l.9-2.8zm-63.7-6.2c0 1.8 0 .9-.9.9l-.9-.9h1.8zm-.9-4.5l.9 1.8h-.9v-1.8c0-1.8-.9-.9 0 0zm-4.5-6.3c-.9.9.9.9-.9.9l.9.9h.9v1.8-.9c0-.9 0-.9.9-.9l.9.9.9-.9v.9l.9.9.9-.9c0 .9 0 .9-.9 1.8.9 2.7.9 3.6 0 5.4v.9c1.8 2.7 0 1.8 0 1.8-.9 0-1.8-.9-2.7-1.8 0-.9 0 0-.9-.9v2.7l1.8.9v-.9h2.7c.9-.9.9-.9 0-2.7v-.9c-.9-.9-.9 0-.9-.9.9 0 .9 0 1.8.9.9-.9 0-.9.9-1.8l.9-.9.9-.9c0 .9 0 3.6.9 4.5l.9-.9-.9-8.1-.9.9v3.6c-.9 0-1.8 0-2.7-.9v-.9c0-2.7.9-.9 0-.9-1.8-.9-4.5-2.7-6.3-2.7zm6.3 9.9l-.9.9c.9.9.9.9 0 2.7h-2.7v.9c0 .9.9.9-.9.9l-1.8-.9-.9.9c-.9 1.8-.9 0-.9.9.9-1.8.9-.9 0-2.7l-.9-.9-.9 3.6 9 .9c2.7 0 2.7-.9 5.4-.9h6.3c-.9-2.7.9-.9-1.8-1.8 3.6 0 1.8-.9 1.8-.9-1.8 0-11.7.9-8.1-3.6-.9-.9-.9-3.6-.9-4.5l-.9.9-.9.9c.9 2.7.9 1.8 0 2.7zm-13.5.9c0 .9.9.9 0 .9-1.7-1.8 0-.9 0-.9zm-7.1-59.3l-1.8 12.6-7.2.9h-1.8c0-3.6.9-9 1.8-12.6l10.8-2.7-1.8 1.8zm-6.3 17.1l26.9-5.4c10.8-.9 42.2-7.2 54.7-9.9 4.5-.9 9-.9 13.5-2.7 5.4-.9 44-.9 47.5 0 5.4.9 33.2 3.6 35.9 2.7.9.9 5.4.9 7.2.9 1.8 0 3.6 0 4.5.9-.9 1.8 0 .9-.9.9l-.9-.9-36.8-3.6c-3.6 0-8.1-.9-12.6-.9-3.6.9-7.2.9-10.8.9-7.2.9-14.4 1.8-20.6 2.7l-2.7.9-112.1 15.3v-2.7c2.7.9 4.5 0 7.2.9zm45.7-11.7h-2.7l.9-1.8c0-3.6.9-7.2.9-10.8.9-.9.9-3.6 2.7-5.4.9-.9 3.6-.9 5.4-1.8 3.6-.9 9.9-3.6 12.6-3.6l.9-.9-.9.9c-.9 4.5-2.7 13.5-3.6 19.7l-16.2 3.7v.9-.9zm-7.1-20.6c-3.6-.9-28.7 8.1-35.9 9.9-9.9 3.6-10.8.9-11.7 21.5 0 .9-.9 3.6-.9 5.4 0 2.7.9 1.8.9 5.4 0 7.2 0 14.4.9 21.5.9 9.9.9 5.4 10.8 11.7 2.7.9 3.6.9 5.4 3.6-.9.9-3.6.9-4.5.9v.9l2.7.9 22.4 2.7c5.4.9 15.3 1.8 21.5 2.7l96 12.6c4.5.9 6.3 0 10.8-.9 4.5-.9 40.4-5.4 42.2-6.3-.9-.9-26.9-3.6-30.5-3.6-1.8 0-3.6 0-5.4-.9h1.8l24.2-1.8c.9-.9.9-1.8 1.8-2.7l2.7-.9c1.8-.9 3.6-2.7 3.6-5.4v-4.5c0-.9 0-1.8-.9-2.7.9-5.4 0-9-.9-14.4-1.8-.9-.9-.9-1.8-6.3l-2.7-24.2s.9 0 .9-1.8c.9-1.8-.9-7.2-.9-8.1-.9-.9-3.6-5.4-3.6-7.2-3.6-4.5-5.4-9-8.1-14.4-1.8-3.6-.9-1.8 0-5.4.9-6.3-9-8.1-12.6-10.8-12.6-3.6-18.8-6.3-34.1-3.6-5.4.9-56.5 16.1-62.8 17-5.4.9-10.8 3.6-15.3 4.5-1.7-.7-13.3 2.9-16 4.7zm-27.8 75.3c.9 0 .9 0 .9.9l.9.9c-1.8-.9-.9 0-1.8-1.8zm.9-.8l-.9-.9c0-.9-.9 0-.9-.9v-3.6c.9-.9.9-.9.9-1.8h.9s0 .9.9.9l.9.9-.9.9c-.9 1.8.9 3.6-.9 5.4v-.9zm2.6-9.9v.9c-.9-.9-.9-.9 0-.9-1.8 0-2.7-.9-4.5 0 0-.9.9-.9.9-1.8 1.8 0 2.7.9 3.6 1.8zm22.5 16.1h-5.4c-3.6 0-3.6.9-5.4.9l-9-.9.9-3.6.9.9c.9 1.8.9.9 0 2.7.9-.9 0 .9.9-.9l.9-.9 1.8.9c-.9-.9-.9-.9-.9-1.8V344.2c-.9-.9 0 .9-.9-.9v-.9c0-.9 0-1.8.9-1.8h.9V337h-.9l-.9-.9.9-.9c.9-4.5 5.4-.9 5.4 1.8.9.9 0-.9 0 .9v.9c0 .9.9.9 2.7.9v-3.6l.9-.9c-3.6-5.4-.9-7.2-9.9-6.3l-1.8 3.6c-3.6.9-1.8-.9-3.6-1.8-.9-.9-.9-.9-4.5-.9-3.6 4.5-1.8 10.8-1.8 16.1l-13.5-5.4c-1.8-5.4-1.8-24.2-.9-30.5l15.3-1.8c.9 1.8.9 3.6 2.7 5.4 0 1.8 3.6 9.9 5.4 11.7h15.3c.9-2.7-.9-12.6-.9-15.3v-5.4c1.8-.9 5.4-.9 7.2-.9l.9 11.7c.9-.9.9 1.8.9-1.8l-.9-10.8c.9-.9 17.9-3.6 19.7-2.7.9-.9-.9-.9.9 0h.9l3.6-.9c.9-.9.9-.9 1.8-.9v1.8l.9 6.3.9 7.2.9 8.1c1.8.9 24.2 0 26.9-.9l-.9-23.3v-1.8l7.2-.9c.9-.9.9-.9 3.6-.9v3.6c0 .9 0 9 .9 10.8-.9 2.7 0 10.8.9 12.6.9.9 4.5 1.8 5.4 2.7 1.8.9 3.6.9 6.3 1.8l.9 20.6.9 10.8H320c-2.7-.9-1.8-3.6-1.8-6.3l-.9 1.8c-.9.9-.9-.9-1.8.9v-2.7c0-1.8.9-5.4-.9-6.3l-.9-.9c-.9 1.8 0 0-.9 2.7v.9h.9c.9 2.7.9.9 0 2.7v1.8c-.9 0-.9.9-.9-.9H311.1l-.9.9h-.9c.9.9 0 .9 1.8.9l-.9.9v.9c-.9-.9-.9.9-.9-.9l-.9.9-1.8.9h-.9c-.9-.9-.9-.9-.9-2.7h-.9v.9c-.9-2.7 0 0-1.8-2.7-.9-.9-.9-1.8-.9-2.7l-.9-5.4c0-1.8-.9-.9 0-2.7 0-.9.9-.9.9-2.7-1.8 0-2.7 0-2.7 1.8v-.9c.9-.9.9.9.9-1.8s-.9 0-.9-3.6c.9 0 .9.9 1.8.9h.9c0-2.7-.9-.9.9-.9 0-3.6-.9 1.8 0-.9.9-1.8.9-.9.9-2.7-5.4 0-.9.9-3.6 1.8 0-3.6 0-.9-.9-1.8-.9.9-.9 0-.9.9-.9 2.7-.9 4.5-.9 8.1v2.7c0-1.8.9-3.6-.9-4.5-.9 1.8 0 5.4 0 8.1 0 1.8.9 1.8.9 3.6s-.9 2.7.9 3.6c2.7-.9 0 0 .9-.9l.9-.9c0 .9-.9 1.8 0 3.6s-.9.9.9.9h-4.5c-.9-.9-.9-1.8-.9-2.7l-1.8-.9c-6.3 0-31.4-4.5-34.1-3.6-.9-.9-7.2-.9-12.6-1.8-3.6-.9-8.1-.9-11.7-.9v-3.6l-.9.9c-3.6 5.4 6.3 3.6 8.1 3.6 0 .9.9.9-1.8.9 3.6.9.9-.9 1.8.9m-21.5-29.7c.9.9.9 0 .9.9l1.8 3.6c-.9 0-.9-2.7-2.7-4.5zm15.3-12.5l-11.7.9c-3.6.9-3.6 0-3.6-.9 1.8 0 12.6-.9 14.4-1.8.9 0-.9 0 .9 1.8zm-19.7 2.7l-.9-.9c2.7-.9 0-.9.9.9zm167.7-44l11.7 17.9c.9.9.9-.9.9.9l-1.8-.9-3.6-.9c-9-3.6-31.4-2.7-41.3-1.8-.9-3.6-9-23.3-9-25.1 5.4-3.6 27.8.9 35 3.6 4.5 3.6 7.2 3.6 8.1 6.3zm15.3 53.8c-.9-.9-.9-.9-2.7-.9l-2.7-19.7h3.6l3.6 26.9c-1.8-.9-.9.9-.9-.9-1.8-1.8-1.8-3.6-.9-5.4zm-94.2 38.6c.9.9.9.9 1.8.9l1.8.9s.9.9-1.8.9c-.9 0-1.8-1.8-1.8-2.7-.9-1.8-.9 0 0 0zm97.8-15.2c.9.9.9.9.9 2.7v2.7c-2.7 0-.9-.9-1.8-2.7l.9-2.7h.9-.9zm-1.8 3.6c0 .9.9.9-.9.9h-2.7c-1.8 0-3.6.9-5.4 0v-.9h1.8c1.8 0 1.8 0 3.6-.9h-2.7c-.9-.9-.9 0-.9-.9h4.5c2.7.9 1.8 1.8 2.7 1.8zm.9-18.9l.9 3.6v.9h-9l-42.2 3.6v.9l.9 10.8.9 10.8c-.9-.9-1.8-23.3-1.8-26.9v-1.8l50.3-1.9zm-53.9 1.8c-.9 1.8 0 1.8 0 3.6-.9 5.4 1.8 15.3.9 20.6.9.9.9 2.7.9 4.5h-19.7v-2.7l-.9-18.8-.9-9.9c.9 0 3.6 0 4.5.9 3.6-.9 9 .9 12.6.9h2.7v.9zm44 14.4c2.7 0 6.3-.9 9-.9-.9.9-.9.9-3.6.9s-2.7 0-4.5.9h-.9v-.9zm-28.7 8.9c-1.8 0-.9.9-1.8-.9.9-.9 3.6-.9 5.4-.9l-3.6-.9c-.9 0-.9-.9-.9-.9-.9-.9-.9 0-.9-.9v-.9c1.8-.9 11.7-1.8 13.5-.9-.9.9.9 0-.9.9l-9 .9.9.9c2.7 0 6.3-.9 8.1.9l.9.9.9.9c-1.8-.9-9-.9-12.6.9zm-2.7-5.3v5.4h-3.6v-5.4h3.6zM322.7 293v-.9c0 .9.9 0 0 .9zm21.6-1.8c.8.9.8 0 0 0l-14.4 2.7c-2.7 0-3.6.9-4.5 0l18.9-2.7zm3.5 0c0-.9 0 0-.9-.9l-.9-.9h1.8c.9 1.8.9.9 0 1.8zm-73.5 23.4c.9 0 .9 0 0 0 .9.9.9 1.8.9 3.6.9 5.4 0 2.7.9 3.6l-.9-21.5c.9-.9 21.5-3.6 24.2-3.6l.9-.9c-1.8-.9-21.5 2.7-24.2 3.6l-.9.9.9 12.6v.9m116.6-16.3l.9 12.6.9 1.8h-3.6l-2.7-.9.9-1.8c-3.6-4.5-4.5-3.6-4.5-12.6l-.9-3.6c1.8 0 5.4-.9 7.2 0v2.7l1.8 1.8zM337.1 258c0 3.6 7.2 17.9 8.1 23.3-7.2 0-22.4-.9-27.8 0l.9-18.8 18.8-4.5zm-114.9 86.2c-.9-.9-.9.9-.9-.9.9.9.9-.9.9.9zm-.9-5.4c-1.8.9.9.9 0 0zm-2.7 5.4c-.9 0-.9 0 0 .9m76.3 6.2l1.8.9.9-.9-.9-2.7v2.7h-1.8z" fill="#fefefe"/><g><path d="M643.9 55.1l12 80.4h-21.4l-1.1-14.4h-7.5l-1.1 14.4h-21.6l10.6-80.4h30.1zm-11.1 51.7c-1-9.1-2-20.4-3.2-33.9-2.1 15.5-3.4 26.8-3.9 33.9h7.1zm26.7-51.7h20.8c6.6 0 11.6.5 14.9 1.5 3.4 1 6.1 3.1 8.2 6.2 2.1 3.1 3.1 8.2 3.1 15.1 0 4.7-.7 8-2.2 9.8-1.5 1.9-4.4 3.3-8.7 4.3 4.9 1.1 8.1 2.9 9.9 5.4 1.7 2.5 2.6 6.4 2.6 11.7v7.5c0 5.4-.6 9.5-1.9 12.1-1.2 2.6-3.2 4.4-5.9 5.4s-8.3 1.4-16.7 1.4h-24.1V55.1zm20.9 13.7v17.9h2c2 0 3.3-.5 3.8-1.5s.8-3.9.8-8.7c0-2.5-.2-4.3-.7-5.3-.4-1-1.1-1.6-1.8-1.9-.6-.3-2-.5-4.1-.5zm0 30.4v22.6c2.9-.1 4.7-.6 5.5-1.4.8-.8 1.2-2.9 1.2-6.1v-7.5c0-3.5-.4-5.5-1.1-6.3-.6-.8-2.5-1.2-5.6-1.3zm81.8 36.3h-17.5V98.9l-10.9 36.6h-18.2V55.1h17.5v36.3l11.7-36.3h17.4v80.4zm44.5-80.4l12 80.4h-21.4l-1.1-14.4h-7.5l-1.1 14.4H766l10.6-80.4h30.1zm-11.1 51.7c-1-9.1-2-20.4-3.2-33.9-2.1 15.5-3.4 26.8-3.9 33.9h7.1zm37.8 12.9v7.2c0 3.8-.4 6.9-1.3 9.3-.9 2.4-2.4 4.5-4.6 6.2-2.2 1.7-4.7 2.8-7.5 3.4V140c2-1.1 3.1-2.6 3.3-4.5H820v-15.7h13.4v-.1zm47-18.8c-4.4.1-6.6 2-6.6 5.7v21.2c0 2.8-.3 4.8-.9 6-.6 1.2-1.1 1.8-1.3 1.8h-17.3c1.5-2.2 2.2-5.3 2.2-9.6v-18.1c0-3.8 1.1-6.8 3.2-8.8 2.1-2 5.8-3.5 11-4.3v-.1c-9.4-.5-14.1-4.9-14.1-13.1v-17c0-4.2-.7-7.3-2.2-9.4h17.3c.5.2 1 .9 1.5 2.2.5 1.3.7 3.1.7 5.5v20c0 3.7 2.2 5.6 6.5 5.7V55.1h20.9v33.4c4.3-.1 6.5-2 6.5-5.7v-20c0-2.8.3-4.7.9-5.9.6-1.2 1.1-1.8 1.4-1.8h17.3c-1.5 2.1-2.2 5.2-2.2 9.4v17c0 8.2-4.7 12.6-14.2 13.1v.1c5.2.9 8.9 2.3 11 4.3 2.2 2 3.2 4.9 3.2 8.8v18.1c0 4.2.7 7.4 2.2 9.6h-17.3c-.5-.2-1.1-1-1.5-2.2-.5-1.3-.7-3.1-.7-5.5v-21.2c0-3.7-2.2-5.6-6.6-5.7v34.6h-20.9v-34.6zm152.2 48.4h-14.4v-13.8h-33.8v13.8H970v-30.6h4.3c2.2-6.6 4.1-15.3 5.6-26s2.2-22.5 2.2-35.2v-2.4h46.4v63.6h4.3l-.2 30.6zm-25.3-30.7V70.9h-6.2v.6c0 15.4-1.7 31.1-5 47.1h11.2zm42.8 1.1v7.2c0 3.8-.4 6.9-1.3 9.3-.9 2.4-2.4 4.5-4.6 6.2-2.2 1.7-4.7 2.8-7.5 3.4V140c2-1.1 3.1-2.6 3.3-4.5h-3.3v-15.7h13.4v-.1zm-82-66.2l-24 83.5h-15.2L953 53.5h15.1zM592.4 179.1l12 80.4H583l-1.1-14.4h-7.5l-1.1 14.4h-21.6l10.6-80.4h30.1zm-11.1 51.7c-1-9.1-2-20.4-3.2-33.9-2.1 15.5-3.4 26.8-3.9 33.9h7.1zm26.7-51.7h20.8c6.6 0 11.6.5 14.9 1.5 3.4 1 6.1 3.1 8.2 6.2 2.1 3.1 3.1 8.2 3.1 15.1 0 4.7-.7 8-2.2 9.8-1.5 1.9-4.4 3.3-8.7 4.3 4.9 1.1 8.1 2.9 9.9 5.4 1.7 2.5 2.6 6.4 2.6 11.7v7.5c0 5.4-.6 9.5-1.9 12.1-1.2 2.6-3.2 4.4-5.9 5.4s-8.3 1.4-16.7 1.4H608v-80.4zm20.9 13.7v17.9h2c2 0 3.3-.5 3.8-1.5.6-1 .8-3.9.8-8.7 0-2.5-.2-4.3-.7-5.3-.4-1-1.1-1.6-1.8-1.9-.5-.3-2-.4-4.1-.5zm0 30.4v22.6c2.9-.1 4.7-.6 5.5-1.4.8-.8 1.2-2.9 1.2-6.1v-7.5c0-3.5-.4-5.5-1.1-6.3-.7-.8-2.5-1.2-5.6-1.3zm77.3-44.1v16.1h-12.3v64.4H673v-64.4h-12.4v-16.1h45.6zm52.5 47.1c0 8.1-.2 13.8-.6 17.1-.4 3.4-1.5 6.4-3.5 9.2-2 2.8-4.7 4.9-8.1 6.4-3.4 1.5-7.4 2.2-11.9 2.2-4.3 0-8.2-.7-11.6-2.1-3.4-1.4-6.2-3.5-8.2-6.3-2.1-2.8-3.3-5.9-3.7-9.2-.4-3.3-.6-9.1-.6-17.4v-13.8c0-8.1.2-13.8.6-17.1.4-3.4 1.5-6.4 3.5-9.2 2-2.8 4.7-4.9 8.1-6.4 3.4-1.5 7.4-2.2 11.9-2.2 4.3 0 8.2.7 11.6 2.1 3.4 1.4 6.2 3.5 8.2 6.3 2.1 2.8 3.3 5.9 3.7 9.2.4 3.3.6 9.1.6 17.4v13.8zm-21-26.4c0-3.7-.2-6.1-.6-7.2-.4-1-1.2-1.5-2.5-1.5-1.1 0-1.9.4-2.4 1.3-.6.8-.8 3.3-.8 7.5v37.5c0 4.6.2 7.5.6 8.6.4 1.1 1.2 1.6 2.6 1.6 1.4 0 2.3-.6 2.7-1.9.4-1.3.6-4.2.6-9l-.2-36.9zm77.5 40.9c0 6-.8 10.3-2.3 12.9-1.5 2.6-3.9 4.2-7.1 4.9-3.2.7-8.2 1-15.1 1h-24.2v-80.4h41V193h-20v13.6h3.2c6.4 0 11.3.4 14.6 1.1s5.8 2.4 7.4 5.1c1.6 2.6 2.4 6.7 2.4 12.2l.1 15.7zm-20.9-2.4v-11.6c0-3.4-.3-5.4-1-6.2-.7-.7-2.6-1.1-5.8-1.2v26.4c2.7 0 4.5-.3 5.4-1 .9-.7 1.4-2.8 1.4-6.4zm69.7-59.2l-5.7 53.3c-.9 8.4-1.9 14.3-2.9 17.7-1 3.4-3 5.8-6 7.3-2.9 1.5-7.8 2.2-14.5 2.2h-12.2v-10.4h1.3c2.8 0 4.5-.2 5.1-.7.7-.4 1-1.1 1-2 0-.1-.4-2.3-1.2-6.8l-11-60.5h18.2l6.6 50.2 3.1-50.2 18.2-.1zm53 35.1h-20.9v-13.9c0-4.1-.2-6.6-.7-7.6-.4-1-1.4-1.5-2.9-1.5-1.7 0-2.8.6-3.2 1.8-.4 1.2-.7 3.9-.7 8v37.3c0 3.9.2 6.4.7 7.7.4 1.2 1.5 1.8 3.1 1.8 1.5 0 2.6-.6 3-1.8.5-1.2.7-4 .7-8.4v-10.1H917v3.1c0 8.4-.6 14.2-1.8 17.7-1.2 3.5-3.8 6.5-7.8 9.2-4 2.6-9 3.9-14.9 3.9-6.1 0-11.2-1.1-15.2-3.3-4-2.2-6.6-5.3-7.9-9.2-1.3-3.9-1.9-9.8-1.9-17.7v-23.5c0-5.8.2-10.1.6-13 .4-2.9 1.6-5.7 3.5-8.4 2-2.7 4.7-4.8 8.2-6.3 3.5-1.5 7.5-2.3 12-2.3 6.2 0 11.2 1.2 15.3 3.6 4 2.4 6.6 5.3 7.9 8.9 1.3 3.5 1.9 9.1 1.9 16.6l.1 7.4zm55.5-35.1v80.4h-20.9v-33.8h-6.1v33.8h-20.9v-80.4h20.9v28.8h6.1v-28.8h20.9zm57.2 61.6c0 6-.8 10.3-2.3 12.9-1.5 2.6-3.9 4.2-7.1 4.9-3.2.7-8.2 1-15.1 1H981v-80.4h20.9v27.5h3.2c6.4 0 11.3.4 14.6 1.1s5.8 2.4 7.4 5.1c1.6 2.6 2.4 6.7 2.4 12.2l.2 15.7zm-20.9-2.4v-11.6c0-3.4-.3-5.4-1-6.2-.7-.7-2.6-1.1-5.8-1.2v26.4c2.7 0 4.5-.3 5.4-1 .9-.7 1.4-2.8 1.4-6.4zm48.9 21.2h-20.9v-80.4h20.9v80.4zm7.7-80.4h34.9v16.1h-13.9v15.3h13v15.3h-13v17.7h15.3v16.1h-36.3v-80.5zM708.7 364.8c0 6-.8 10.3-2.3 12.9-1.5 2.6-3.9 4.2-7.1 4.9-3.2.7-8.2 1-15.1 1H660v-80.4h41v13.9h-20v13.6h3.2c6.4 0 11.3.4 14.6 1.1 3.3.8 5.8 2.4 7.4 5.1 1.6 2.6 2.4 6.7 2.4 12.2l.1 15.7zm-20.9-2.5v-11.6c0-3.4-.3-5.4-1-6.2-.7-.7-2.6-1.1-5.8-1.2v26.4c2.7 0 4.5-.3 5.4-1 .9-.6 1.4-2.8 1.4-6.4zm74.9 21.3h-17.5V347l-10.9 36.6h-18.2v-80.4h17.5v36.3l11.7-36.3h17.4v80.4zm59.4 0h-20.9v-64.4h-6.1v45.6c0 6-.8 10.3-2.3 12.9-1.5 2.6-3.9 4.2-7 4.9-3.1.7-8.2 1-15 1h-3.3v-13.8c2.6 0 4.3-.3 5.3-.9 1-.6 1.4-2.8 1.4-6.4v-59.2h48l-.1 80.3zm8.4-80.5h34.9v16.1h-13.9v15.3h13v15.3h-13v17.7h15.3v16.1h-36.3v-80.5zm84.3 0v16.1h-12.3v64.4h-20.9v-64.4h-12.4v-16.1h45.6zm53.5 61.7c0 6-.8 10.3-2.3 12.9-1.5 2.6-3.9 4.2-7.1 4.9-3.2.7-8.2 1-15.1 1h-24.2v-80.4h20.9v27.6h3.2c6.4 0 11.3.4 14.6 1.1 3.3.8 5.8 2.4 7.4 5.1 1.6 2.6 2.4 6.7 2.4 12.2l.2 15.6zm-20.9-2.5v-11.6c0-3.4-.3-5.4-1-6.2-.7-.7-2.6-1.1-5.8-1.2v26.4c2.7 0 4.5-.3 5.4-1 .9-.6 1.4-2.8 1.4-6.4zm49 21.3h-20.9v-80.4h20.9v80.4z" fill="#1b4e7e"/></g></symbol></svg>